solid Exported from Blender-2.83.3
facet normal 0.031411 0.000000 0.999507
outer loop
vertex 0.000000 0.114624 2.000000
vertex 0.000000 -0.385376 2.000000
vertex 0.125581 -0.385376 1.996053
endloop
endfacet
facet normal 0.031411 0.000000 0.999507
outer loop
vertex 0.000000 0.114624 2.000000
vertex 0.125581 -0.385376 1.996053
vertex 0.125581 0.114624 1.996053
endloop
endfacet
facet normal 0.094109 0.000000 0.995562
outer loop
vertex 0.125581 0.114624 1.996053
vertex 0.125581 -0.385376 1.996053
vertex 0.250666 -0.385376 1.984229
endloop
endfacet
facet normal 0.094107 0.000000 0.995562
outer loop
vertex 0.125581 0.114624 1.996053
vertex 0.250666 -0.385376 1.984229
vertex 0.250666 0.114624 1.984229
endloop
endfacet
facet normal 0.156435 0.000000 0.987688
outer loop
vertex 0.250666 0.114624 1.984229
vertex 0.250666 -0.385376 1.984229
vertex 0.374763 -0.385376 1.964574
endloop
endfacet
facet normal 0.156435 0.000000 0.987688
outer loop
vertex 0.250666 0.114624 1.984229
vertex 0.374763 -0.385376 1.964574
vertex 0.374763 0.114624 1.964574
endloop
endfacet
facet normal 0.218143 0.000000 0.975917
outer loop
vertex 0.374763 0.114624 1.964574
vertex 0.374763 -0.385376 1.964574
vertex 0.497380 -0.385376 1.937166
endloop
endfacet
facet normal 0.218143 0.000000 0.975917
outer loop
vertex 0.374763 0.114624 1.964574
vertex 0.497380 -0.385376 1.937166
vertex 0.497380 0.114624 1.937166
endloop
endfacet
facet normal 0.278991 0.000000 0.960294
outer loop
vertex 0.497380 0.114624 1.937166
vertex 0.497380 -0.385376 1.937166
vertex 0.618034 -0.385376 1.902113
endloop
endfacet
facet normal 0.278991 0.000000 0.960294
outer loop
vertex 0.497380 0.114624 1.937166
vertex 0.618034 -0.385376 1.902113
vertex 0.618034 0.114624 1.902113
endloop
endfacet
facet normal 0.338738 0.000000 0.940881
outer loop
vertex 0.618034 0.114624 1.902113
vertex 0.618034 -0.385376 1.902113
vertex 0.736249 -0.385376 1.859553
endloop
endfacet
facet normal 0.338738 0.000000 0.940881
outer loop
vertex 0.618034 0.114624 1.902113
vertex 0.736249 -0.385376 1.859553
vertex 0.736249 0.114624 1.859553
endloop
endfacet
facet normal 0.397148 0.000000 0.917755
outer loop
vertex 0.736249 0.114624 1.859553
vertex 0.736249 -0.385376 1.859553
vertex 0.851559 -0.385376 1.809654
endloop
endfacet
facet normal 0.397148 0.000000 0.917755
outer loop
vertex 0.736249 0.114624 1.859553
vertex 0.851559 -0.385376 1.809654
vertex 0.851559 0.114624 1.809654
endloop
endfacet
facet normal 0.453991 0.000000 0.891006
outer loop
vertex 0.851559 0.114624 1.809654
vertex 0.851559 -0.385376 1.809654
vertex 0.963507 -0.385376 1.752613
endloop
endfacet
facet normal 0.453990 0.000000 0.891007
outer loop
vertex 0.851559 0.114624 1.809654
vertex 0.963507 -0.385376 1.752613
vertex 0.963507 0.114624 1.752613
endloop
endfacet
facet normal 0.509040 0.000000 0.860743
outer loop
vertex 0.963507 0.114624 1.752613
vertex 0.963507 -0.385376 1.752613
vertex 1.071654 -0.385376 1.688656
endloop
endfacet
facet normal 0.509041 0.000000 0.860742
outer loop
vertex 0.963507 0.114624 1.752613
vertex 1.071654 -0.385376 1.688656
vertex 1.071654 0.114624 1.688656
endloop
endfacet
facet normal 0.562084 0.000000 0.827080
outer loop
vertex 1.071654 0.114624 1.688656
vertex 1.071654 -0.385376 1.688656
vertex 1.175571 -0.385376 1.618034
endloop
endfacet
facet normal 0.562084 0.000000 0.827080
outer loop
vertex 1.071654 0.114624 1.688656
vertex 1.175571 -0.385376 1.618034
vertex 1.175571 0.114624 1.618034
endloop
endfacet
facet normal 0.612907 0.000000 0.790155
outer loop
vertex 1.175571 0.114624 1.618034
vertex 1.175571 -0.385376 1.618034
vertex 1.274848 -0.385376 1.541026
endloop
endfacet
facet normal 0.612907 0.000000 0.790155
outer loop
vertex 1.175571 0.114624 1.618034
vertex 1.274848 -0.385376 1.541026
vertex 1.274848 0.114624 1.541026
endloop
endfacet
facet normal 0.661312 0.000000 0.750111
outer loop
vertex 1.274848 0.114624 1.541026
vertex 1.274848 -0.385376 1.541026
vertex 1.369094 -0.385376 1.457937
endloop
endfacet
facet normal 0.661311 0.000000 0.750112
outer loop
vertex 1.274848 0.114624 1.541026
vertex 1.369094 -0.385376 1.457937
vertex 1.369094 0.114624 1.457937
endloop
endfacet
facet normal 0.707107 0.000000 0.707107
outer loop
vertex 1.369094 0.114624 1.457937
vertex 1.369094 -0.385376 1.457937
vertex 1.457937 -0.385376 1.369094
endloop
endfacet
facet normal 0.707107 0.000000 0.707107
outer loop
vertex 1.369094 0.114624 1.457937
vertex 1.457937 -0.385376 1.369094
vertex 1.457937 0.114624 1.369094
endloop
endfacet
facet normal 0.750111 0.000000 0.661312
outer loop
vertex 1.457937 0.114624 1.369094
vertex 1.457937 -0.385376 1.369094
vertex 1.541027 -0.385376 1.274848
endloop
endfacet
facet normal 0.750112 0.000000 0.661311
outer loop
vertex 1.457937 0.114624 1.369094
vertex 1.541027 -0.385376 1.274848
vertex 1.541027 0.114624 1.274848
endloop
endfacet
facet normal 0.790155 0.000000 0.612907
outer loop
vertex 1.541027 0.114624 1.274848
vertex 1.541027 -0.385376 1.274848
vertex 1.618034 -0.385376 1.175570
endloop
endfacet
facet normal 0.790156 0.000000 0.612906
outer loop
vertex 1.541027 0.114624 1.274848
vertex 1.618034 -0.385376 1.175570
vertex 1.618034 0.114624 1.175570
endloop
endfacet
facet normal 0.827081 0.000000 0.562083
outer loop
vertex 1.618034 0.114624 1.175570
vertex 1.618034 -0.385376 1.175570
vertex 1.688656 -0.385376 1.071653
endloop
endfacet
facet normal 0.827081 0.000000 0.562083
outer loop
vertex 1.618034 0.114624 1.175570
vertex 1.688656 -0.385376 1.071653
vertex 1.688656 0.114624 1.071653
endloop
endfacet
facet normal 0.860742 0.000000 0.509042
outer loop
vertex 1.688656 0.114624 1.071653
vertex 1.688656 -0.385376 1.071653
vertex 1.752614 -0.385376 0.963507
endloop
endfacet
facet normal 0.860742 0.000000 0.509041
outer loop
vertex 1.688656 0.114624 1.071653
vertex 1.752614 -0.385376 0.963507
vertex 1.752614 0.114624 0.963507
endloop
endfacet
facet normal 0.891007 0.000000 0.453990
outer loop
vertex 1.752614 0.114624 0.963507
vertex 1.752614 -0.385376 0.963507
vertex 1.809654 -0.385376 0.851558
endloop
endfacet
facet normal 0.891007 0.000000 0.453990
outer loop
vertex 1.752614 0.114624 0.963507
vertex 1.809654 -0.385376 0.851558
vertex 1.809654 0.114624 0.851558
endloop
endfacet
facet normal 0.917755 0.000000 0.397148
outer loop
vertex 1.809654 0.114624 0.851558
vertex 1.809654 -0.385376 0.851558
vertex 1.859553 -0.385376 0.736249
endloop
endfacet
facet normal 0.917755 0.000000 0.397148
outer loop
vertex 1.809654 0.114624 0.851558
vertex 1.859553 -0.385376 0.736249
vertex 1.859553 0.114624 0.736249
endloop
endfacet
facet normal 0.940881 0.000000 0.338738
outer loop
vertex 1.859553 0.114624 0.736249
vertex 1.859553 -0.385376 0.736249
vertex 1.902113 -0.385376 0.618033
endloop
endfacet
facet normal 0.940881 0.000000 0.338738
outer loop
vertex 1.859553 0.114624 0.736249
vertex 1.902113 -0.385376 0.618033
vertex 1.902113 0.114624 0.618033
endloop
endfacet
facet normal 0.960294 0.000000 0.278991
outer loop
vertex 1.902113 0.114624 0.618033
vertex 1.902113 -0.385376 0.618033
vertex 1.937166 -0.385376 0.497379
endloop
endfacet
facet normal 0.960294 0.000000 0.278991
outer loop
vertex 1.902113 0.114624 0.618033
vertex 1.937166 -0.385376 0.497379
vertex 1.937166 0.114624 0.497379
endloop
endfacet
facet normal 0.975917 0.000000 0.218143
outer loop
vertex 1.937166 0.114624 0.497379
vertex 1.937166 -0.385376 0.497379
vertex 1.964575 -0.385376 0.374762
endloop
endfacet
facet normal 0.975917 0.000000 0.218143
outer loop
vertex 1.937166 0.114624 0.497379
vertex 1.964575 -0.385376 0.374762
vertex 1.964575 0.114624 0.374762
endloop
endfacet
facet normal 0.987688 0.000000 0.156434
outer loop
vertex 1.964575 0.114624 0.374762
vertex 1.964575 -0.385376 0.374762
vertex 1.984229 -0.385376 0.250666
endloop
endfacet
facet normal 0.987688 0.000000 0.156434
outer loop
vertex 1.964575 0.114624 0.374762
vertex 1.984229 -0.385376 0.250666
vertex 1.984229 0.114624 0.250666
endloop
endfacet
facet normal 0.995562 0.000000 0.094108
outer loop
vertex 1.984229 0.114624 0.250666
vertex 1.984229 -0.385376 0.250666
vertex 1.996053 -0.385376 0.125580
endloop
endfacet
facet normal 0.995562 0.000000 0.094108
outer loop
vertex 1.984229 0.114624 0.250666
vertex 1.996053 -0.385376 0.125580
vertex 1.996053 0.114624 0.125580
endloop
endfacet
facet normal 0.999507 0.000000 0.031411
outer loop
vertex 1.996053 0.114624 0.125580
vertex 1.996053 -0.385376 0.125580
vertex 2.000000 -0.385376 -0.000001
endloop
endfacet
facet normal 0.999507 0.000001 0.031411
outer loop
vertex 1.996053 0.114624 0.125580
vertex 2.000000 -0.385376 -0.000001
vertex 2.000000 0.114624 -0.000001
endloop
endfacet
facet normal 0.999507 -0.000001 -0.031411
outer loop
vertex 2.000000 0.114624 -0.000001
vertex 2.000000 -0.385376 -0.000001
vertex 1.996053 -0.385376 -0.125582
endloop
endfacet
facet normal 0.999507 0.000000 -0.031411
outer loop
vertex 2.000000 0.114624 -0.000001
vertex 1.996053 -0.385376 -0.125582
vertex 1.996053 0.114624 -0.125582
endloop
endfacet
facet normal 0.995562 0.000000 -0.094109
outer loop
vertex 1.996053 0.114624 -0.125582
vertex 1.996053 -0.385376 -0.125582
vertex 1.984229 -0.385376 -0.250667
endloop
endfacet
facet normal 0.995562 0.000000 -0.094109
outer loop
vertex 1.996053 0.114624 -0.125582
vertex 1.984229 -0.385376 -0.250667
vertex 1.984229 0.114624 -0.250667
endloop
endfacet
facet normal 0.987688 0.000000 -0.156435
outer loop
vertex 1.984229 0.114624 -0.250667
vertex 1.984229 -0.385376 -0.250667
vertex 1.964574 -0.385376 -0.374764
endloop
endfacet
facet normal 0.987688 0.000000 -0.156435
outer loop
vertex 1.984229 0.114624 -0.250667
vertex 1.964574 -0.385376 -0.374764
vertex 1.964574 0.114624 -0.374764
endloop
endfacet
facet normal 0.975917 0.000000 -0.218144
outer loop
vertex 1.964574 0.114624 -0.374764
vertex 1.964574 -0.385376 -0.374764
vertex 1.937166 -0.385376 -0.497381
endloop
endfacet
facet normal 0.975917 0.000000 -0.218144
outer loop
vertex 1.964574 0.114624 -0.374764
vertex 1.937166 -0.385376 -0.497381
vertex 1.937166 0.114624 -0.497381
endloop
endfacet
facet normal 0.960294 0.000000 -0.278992
outer loop
vertex 1.937166 0.114624 -0.497381
vertex 1.937166 -0.385376 -0.497381
vertex 1.902113 -0.385376 -0.618035
endloop
endfacet
facet normal 0.960294 0.000000 -0.278992
outer loop
vertex 1.937166 0.114624 -0.497381
vertex 1.902113 -0.385376 -0.618035
vertex 1.902113 0.114624 -0.618035
endloop
endfacet
facet normal 0.940881 0.000000 -0.338738
outer loop
vertex 1.902113 0.114624 -0.618035
vertex 1.902113 -0.385376 -0.618035
vertex 1.859553 -0.385376 -0.736250
endloop
endfacet
facet normal 0.940881 0.000000 -0.338738
outer loop
vertex 1.902113 0.114624 -0.618035
vertex 1.859553 -0.385376 -0.736250
vertex 1.859553 0.114624 -0.736250
endloop
endfacet
facet normal 0.917754 0.000000 -0.397149
outer loop
vertex 1.859553 0.114624 -0.736250
vertex 1.859553 -0.385376 -0.736250
vertex 1.809654 -0.385376 -0.851560
endloop
endfacet
facet normal 0.917754 0.000000 -0.397149
outer loop
vertex 1.859553 0.114624 -0.736250
vertex 1.809654 -0.385376 -0.851560
vertex 1.809654 0.114624 -0.851560
endloop
endfacet
facet normal 0.891006 0.000000 -0.453991
outer loop
vertex 1.809654 0.114624 -0.851560
vertex 1.809654 -0.385376 -0.851560
vertex 1.752613 -0.385376 -0.963508
endloop
endfacet
facet normal 0.891006 0.000000 -0.453991
outer loop
vertex 1.809654 0.114624 -0.851560
vertex 1.752613 -0.385376 -0.963508
vertex 1.752613 0.114624 -0.963508
endloop
endfacet
facet normal 0.860742 0.000000 -0.509042
outer loop
vertex 1.752613 0.114624 -0.963508
vertex 1.752613 -0.385376 -0.963508
vertex 1.688655 -0.385376 -1.071655
endloop
endfacet
facet normal 0.860741 0.000000 -0.509044
outer loop
vertex 1.752613 0.114624 -0.963508
vertex 1.688655 -0.385376 -1.071655
vertex 1.688655 0.114624 -1.071655
endloop
endfacet
facet normal 0.827080 0.000000 -0.562084
outer loop
vertex 1.688655 0.114624 -1.071655
vertex 1.688655 -0.385376 -1.071655
vertex 1.618033 -0.385376 -1.175572
endloop
endfacet
facet normal 0.827080 0.000000 -0.562084
outer loop
vertex 1.688655 0.114624 -1.071655
vertex 1.618033 -0.385376 -1.175572
vertex 1.618033 0.114624 -1.175572
endloop
endfacet
facet normal 0.790155 0.000000 -0.612907
outer loop
vertex 1.618033 0.114624 -1.175572
vertex 1.618033 -0.385376 -1.175572
vertex 1.541026 -0.385376 -1.274849
endloop
endfacet
facet normal 0.790155 0.000000 -0.612907
outer loop
vertex 1.618033 0.114624 -1.175572
vertex 1.541026 -0.385376 -1.274849
vertex 1.541026 0.114624 -1.274849
endloop
endfacet
facet normal 0.750110 0.000000 -0.661313
outer loop
vertex 1.541026 0.114624 -1.274849
vertex 1.541026 -0.385376 -1.274849
vertex 1.457936 -0.385376 -1.369095
endloop
endfacet
facet normal 0.750110 0.000000 -0.661313
outer loop
vertex 1.541026 0.114624 -1.274849
vertex 1.457936 -0.385376 -1.369095
vertex 1.457936 0.114624 -1.369095
endloop
endfacet
facet normal 0.707107 0.000000 -0.707107
outer loop
vertex 1.457936 0.114624 -1.369095
vertex 1.457936 -0.385376 -1.369095
vertex 1.369093 -0.385376 -1.457938
endloop
endfacet
facet normal 0.707107 0.000000 -0.707107
outer loop
vertex 1.457936 0.114624 -1.369095
vertex 1.369093 -0.385376 -1.457938
vertex 1.369093 0.114624 -1.457938
endloop
endfacet
facet normal 0.661310 0.000000 -0.750112
outer loop
vertex 1.369093 0.114624 -1.457938
vertex 1.369093 -0.385376 -1.457938
vertex 1.274847 -0.385376 -1.541027
endloop
endfacet
facet normal 0.661311 0.000000 -0.750112
outer loop
vertex 1.369093 0.114624 -1.457938
vertex 1.274847 -0.385376 -1.541027
vertex 1.274847 0.114624 -1.541027
endloop
endfacet
facet normal 0.612907 0.000000 -0.790155
outer loop
vertex 1.274847 0.114624 -1.541027
vertex 1.274847 -0.385376 -1.541027
vertex 1.175569 -0.385376 -1.618035
endloop
endfacet
facet normal 0.612907 0.000000 -0.790155
outer loop
vertex 1.274847 0.114624 -1.541027
vertex 1.175569 -0.385376 -1.618035
vertex 1.175569 0.114624 -1.618035
endloop
endfacet
facet normal 0.562082 0.000000 -0.827081
outer loop
vertex 1.175569 0.114624 -1.618035
vertex 1.175569 -0.385376 -1.618035
vertex 1.071652 -0.385376 -1.688657
endloop
endfacet
facet normal 0.562082 0.000000 -0.827081
outer loop
vertex 1.175569 0.114624 -1.618035
vertex 1.071652 -0.385376 -1.688657
vertex 1.071652 0.114624 -1.688657
endloop
endfacet
facet normal 0.509041 0.000000 -0.860742
outer loop
vertex 1.071652 0.114624 -1.688657
vertex 1.071652 -0.385376 -1.688657
vertex 0.963506 -0.385376 -1.752614
endloop
endfacet
facet normal 0.509041 0.000000 -0.860742
outer loop
vertex 1.071652 0.114624 -1.688657
vertex 0.963506 -0.385376 -1.752614
vertex 0.963506 0.114624 -1.752614
endloop
endfacet
facet normal 0.453990 0.000000 -0.891007
outer loop
vertex 0.963506 0.114624 -1.752614
vertex 0.963506 -0.385376 -1.752614
vertex 0.851557 -0.385376 -1.809655
endloop
endfacet
facet normal 0.453990 0.000000 -0.891007
outer loop
vertex 0.963506 0.114624 -1.752614
vertex 0.851557 -0.385376 -1.809655
vertex 0.851557 0.114624 -1.809655
endloop
endfacet
facet normal 0.397148 0.000000 -0.917755
outer loop
vertex 0.851557 0.114624 -1.809655
vertex 0.851557 -0.385376 -1.809655
vertex 0.736247 -0.385376 -1.859554
endloop
endfacet
facet normal 0.397146 0.000000 -0.917755
outer loop
vertex 0.851557 0.114624 -1.809655
vertex 0.736247 -0.385376 -1.859554
vertex 0.736247 0.114624 -1.859554
endloop
endfacet
facet normal 0.338738 0.000000 -0.940881
outer loop
vertex 0.736247 0.114624 -1.859554
vertex 0.736247 -0.385376 -1.859554
vertex 0.618032 -0.385376 -1.902114
endloop
endfacet
facet normal 0.338736 0.000000 -0.940881
outer loop
vertex 0.736247 0.114624 -1.859554
vertex 0.618032 -0.385376 -1.902114
vertex 0.618032 0.114624 -1.902114
endloop
endfacet
facet normal 0.278991 0.000000 -0.960294
outer loop
vertex 0.618032 0.114624 -1.902114
vertex 0.618032 -0.385376 -1.902114
vertex 0.497378 -0.385376 -1.937167
endloop
endfacet
facet normal 0.278991 0.000000 -0.960294
outer loop
vertex 0.618032 0.114624 -1.902114
vertex 0.497378 -0.385376 -1.937167
vertex 0.497378 0.114624 -1.937167
endloop
endfacet
facet normal 0.218141 0.000000 -0.975917
outer loop
vertex 0.497378 0.114624 -1.937167
vertex 0.497378 -0.385376 -1.937167
vertex 0.374761 -0.385376 -1.964575
endloop
endfacet
facet normal 0.218143 0.000000 -0.975917
outer loop
vertex 0.497378 0.114624 -1.937167
vertex 0.374761 -0.385376 -1.964575
vertex 0.374761 0.114624 -1.964575
endloop
endfacet
facet normal 0.156433 0.000000 -0.987689
outer loop
vertex 0.374761 0.114624 -1.964575
vertex 0.374761 -0.385376 -1.964575
vertex 0.250665 -0.385376 -1.984230
endloop
endfacet
facet normal 0.156435 0.000000 -0.987688
outer loop
vertex 0.374761 0.114624 -1.964575
vertex 0.250665 -0.385376 -1.984230
vertex 0.250665 0.114624 -1.984230
endloop
endfacet
facet normal 0.094107 0.000000 -0.995562
outer loop
vertex 0.250665 0.114624 -1.984230
vertex 0.250665 -0.385376 -1.984230
vertex 0.125579 -0.385376 -1.996054
endloop
endfacet
facet normal 0.094107 0.000000 -0.995562
outer loop
vertex 0.250665 0.114624 -1.984230
vertex 0.125579 -0.385376 -1.996054
vertex 0.125579 0.114624 -1.996054
endloop
endfacet
facet normal 0.031411 0.000000 -0.999507
outer loop
vertex 0.125579 0.114624 -1.996054
vertex 0.125579 -0.385376 -1.996054
vertex -0.000002 -0.385376 -2.000000
endloop
endfacet
facet normal 0.031409 0.000000 -0.999507
outer loop
vertex 0.125579 0.114624 -1.996054
vertex -0.000002 -0.385376 -2.000000
vertex -0.000002 0.114624 -2.000000
endloop
endfacet
facet normal -0.031413 0.000000 -0.999507
outer loop
vertex -0.000002 0.114624 -2.000000
vertex -0.000002 -0.385376 -2.000000
vertex -0.125583 -0.385376 -1.996053
endloop
endfacet
facet normal -0.031411 0.000000 -0.999507
outer loop
vertex -0.000002 0.114624 -2.000000
vertex -0.125583 -0.385376 -1.996053
vertex -0.125583 0.114624 -1.996053
endloop
endfacet
facet normal -0.094111 0.000000 -0.995562
outer loop
vertex -0.125583 0.114624 -1.996053
vertex -0.125583 -0.385376 -1.996053
vertex -0.250669 -0.385376 -1.984229
endloop
endfacet
facet normal -0.094109 0.000000 -0.995562
outer loop
vertex -0.125583 0.114624 -1.996053
vertex -0.250669 -0.385376 -1.984229
vertex -0.250669 0.114624 -1.984229
endloop
endfacet
facet normal -0.156435 0.000000 -0.987688
outer loop
vertex -0.250669 0.114624 -1.984229
vertex -0.250669 -0.385376 -1.984229
vertex -0.374765 -0.385376 -1.964574
endloop
endfacet
facet normal -0.156435 0.000000 -0.987688
outer loop
vertex -0.250669 0.114624 -1.984229
vertex -0.374765 -0.385376 -1.964574
vertex -0.374765 0.114624 -1.964574
endloop
endfacet
facet normal -0.218145 0.000000 -0.975917
outer loop
vertex -0.374765 0.114624 -1.964574
vertex -0.374765 -0.385376 -1.964574
vertex -0.497382 -0.385376 -1.937166
endloop
endfacet
facet normal -0.218145 0.000000 -0.975916
outer loop
vertex -0.374765 0.114624 -1.964574
vertex -0.497382 -0.385376 -1.937166
vertex -0.497382 0.114624 -1.937166
endloop
endfacet
facet normal -0.278991 0.000000 -0.960294
outer loop
vertex -0.497382 0.114624 -1.937166
vertex -0.497382 -0.385376 -1.937166
vertex -0.618036 -0.385376 -1.902112
endloop
endfacet
facet normal -0.278993 0.000000 -0.960293
outer loop
vertex -0.497382 0.114624 -1.937166
vertex -0.618036 -0.385376 -1.902112
vertex -0.618036 0.114624 -1.902112
endloop
endfacet
facet normal -0.338740 0.000000 -0.940880
outer loop
vertex -0.618036 0.114624 -1.902112
vertex -0.618036 -0.385376 -1.902112
vertex -0.736251 -0.385376 -1.859552
endloop
endfacet
facet normal -0.338738 0.000000 -0.940881
outer loop
vertex -0.618036 0.114624 -1.902112
vertex -0.736251 -0.385376 -1.859552
vertex -0.736251 0.114624 -1.859552
endloop
endfacet
facet normal -0.397150 0.000000 -0.917754
outer loop
vertex -0.736251 0.114624 -1.859552
vertex -0.736251 -0.385376 -1.859552
vertex -0.851561 -0.385376 -1.809653
endloop
endfacet
facet normal -0.397150 0.000000 -0.917754
outer loop
vertex -0.736251 0.114624 -1.859552
vertex -0.851561 -0.385376 -1.809653
vertex -0.851561 0.114624 -1.809653
endloop
endfacet
facet normal -0.453992 0.000000 -0.891006
outer loop
vertex -0.851561 0.114624 -1.809653
vertex -0.851561 -0.385376 -1.809653
vertex -0.963510 -0.385376 -1.752612
endloop
endfacet
facet normal -0.453992 0.000000 -0.891006
outer loop
vertex -0.851561 0.114624 -1.809653
vertex -0.963510 -0.385376 -1.752612
vertex -0.963510 0.114624 -1.752612
endloop
endfacet
facet normal -0.509043 0.000000 -0.860741
outer loop
vertex -0.963510 0.114624 -1.752612
vertex -0.963510 -0.385376 -1.752612
vertex -1.071656 -0.385376 -1.688655
endloop
endfacet
facet normal -0.509041 0.000000 -0.860742
outer loop
vertex -0.963510 0.114624 -1.752612
vertex -1.071656 -0.385376 -1.688655
vertex -1.071656 0.114624 -1.688655
endloop
endfacet
facet normal -0.562085 0.000000 -0.827079
outer loop
vertex -1.071656 0.114624 -1.688655
vertex -1.071656 -0.385376 -1.688655
vertex -1.175573 -0.385376 -1.618032
endloop
endfacet
facet normal -0.562084 0.000000 -0.827080
outer loop
vertex -1.071656 0.114624 -1.688655
vertex -1.175573 -0.385376 -1.618032
vertex -1.175573 0.114624 -1.618032
endloop
endfacet
facet normal -0.612909 0.000000 -0.790154
outer loop
vertex -1.175573 0.114624 -1.618032
vertex -1.175573 -0.385376 -1.618032
vertex -1.274850 -0.385376 -1.541025
endloop
endfacet
facet normal -0.612908 0.000000 -0.790155
outer loop
vertex -1.175573 0.114624 -1.618032
vertex -1.274850 -0.385376 -1.541025
vertex -1.274850 0.114624 -1.541025
endloop
endfacet
facet normal -0.661312 0.000000 -0.750111
outer loop
vertex -1.274850 0.114624 -1.541025
vertex -1.274850 -0.385376 -1.541025
vertex -1.369096 -0.385376 -1.457935
endloop
endfacet
facet normal -0.661313 0.000000 -0.750110
outer loop
vertex -1.274850 0.114624 -1.541025
vertex -1.369096 -0.385376 -1.457935
vertex -1.369096 0.114624 -1.457935
endloop
endfacet
facet normal -0.707107 0.000000 -0.707106
outer loop
vertex -1.369096 0.114624 -1.457935
vertex -1.369096 -0.385376 -1.457935
vertex -1.457939 -0.385376 -1.369092
endloop
endfacet
facet normal -0.707108 0.000000 -0.707105
outer loop
vertex -1.369096 0.114624 -1.457935
vertex -1.457939 -0.385376 -1.369092
vertex -1.457939 0.114624 -1.369092
endloop
endfacet
facet normal -0.750111 0.000000 -0.661312
outer loop
vertex -1.457939 0.114624 -1.369092
vertex -1.457939 -0.385376 -1.369092
vertex -1.541028 -0.385376 -1.274846
endloop
endfacet
facet normal -0.750112 0.000000 -0.661311
outer loop
vertex -1.457939 0.114624 -1.369092
vertex -1.541028 -0.385376 -1.274846
vertex -1.541028 0.114624 -1.274846
endloop
endfacet
facet normal -0.790157 0.000000 -0.612905
outer loop
vertex -1.541028 0.114624 -1.274846
vertex -1.541028 -0.385376 -1.274846
vertex -1.618035 -0.385376 -1.175569
endloop
endfacet
facet normal -0.790155 0.000000 -0.612907
outer loop
vertex -1.541028 0.114624 -1.274846
vertex -1.618035 -0.385376 -1.175569
vertex -1.618035 0.114624 -1.175569
endloop
endfacet
facet normal -0.827082 0.000000 -0.562082
outer loop
vertex -1.618035 0.114624 -1.175569
vertex -1.618035 -0.385376 -1.175569
vertex -1.688657 -0.385376 -1.071652
endloop
endfacet
facet normal -0.827081 0.000000 -0.562083
outer loop
vertex -1.618035 0.114624 -1.175569
vertex -1.688657 -0.385376 -1.071652
vertex -1.688657 0.114624 -1.071652
endloop
endfacet
facet normal -0.860743 0.000000 -0.509040
outer loop
vertex -1.688657 0.114624 -1.071652
vertex -1.688657 -0.385376 -1.071652
vertex -1.752614 -0.385376 -0.963505
endloop
endfacet
facet normal -0.860742 0.000000 -0.509041
outer loop
vertex -1.688657 0.114624 -1.071652
vertex -1.752614 -0.385376 -0.963505
vertex -1.752614 0.114624 -0.963505
endloop
endfacet
facet normal -0.891007 0.000000 -0.453990
outer loop
vertex -1.752614 0.114624 -0.963505
vertex -1.752614 -0.385376 -0.963505
vertex -1.809655 -0.385376 -0.851556
endloop
endfacet
facet normal -0.891007 0.000000 -0.453990
outer loop
vertex -1.752614 0.114624 -0.963505
vertex -1.809655 -0.385376 -0.851556
vertex -1.809655 0.114624 -0.851556
endloop
endfacet
facet normal -0.917755 0.000000 -0.397147
outer loop
vertex -1.809655 0.114624 -0.851556
vertex -1.809655 -0.385376 -0.851556
vertex -1.859554 -0.385376 -0.736247
endloop
endfacet
facet normal -0.917755 0.000000 -0.397147
outer loop
vertex -1.809655 0.114624 -0.851556
vertex -1.859554 -0.385376 -0.736247
vertex -1.859554 0.114624 -0.736247
endloop
endfacet
facet normal -0.940881 0.000000 -0.338736
outer loop
vertex -1.859554 0.114624 -0.736247
vertex -1.859554 -0.385376 -0.736247
vertex -1.902114 -0.385376 -0.618032
endloop
endfacet
facet normal -0.940881 0.000000 -0.338736
outer loop
vertex -1.859554 0.114624 -0.736247
vertex -1.902114 -0.385376 -0.618032
vertex -1.902114 0.114624 -0.618032
endloop
endfacet
facet normal -0.960294 0.000000 -0.278990
outer loop
vertex -1.902114 0.114624 -0.618032
vertex -1.902114 -0.385376 -0.618032
vertex -1.937167 -0.385376 -0.497377
endloop
endfacet
facet normal -0.960294 0.000000 -0.278990
outer loop
vertex -1.902114 0.114624 -0.618032
vertex -1.937167 -0.385376 -0.497377
vertex -1.937167 0.114624 -0.497377
endloop
endfacet
facet normal -0.975917 0.000000 -0.218143
outer loop
vertex -1.937167 0.114624 -0.497377
vertex -1.937167 -0.385376 -0.497377
vertex -1.964575 -0.385376 -0.374760
endloop
endfacet
facet normal -0.975917 0.000000 -0.218143
outer loop
vertex -1.937167 0.114624 -0.497377
vertex -1.964575 -0.385376 -0.374760
vertex -1.964575 0.114624 -0.374760
endloop
endfacet
facet normal -0.987689 0.000000 -0.156433
outer loop
vertex -1.964575 0.114624 -0.374760
vertex -1.964575 -0.385376 -0.374760
vertex -1.984230 -0.385376 -0.250664
endloop
endfacet
facet normal -0.987689 0.000000 -0.156433
outer loop
vertex -1.964575 0.114624 -0.374760
vertex -1.984230 -0.385376 -0.250664
vertex -1.984230 0.114624 -0.250664
endloop
endfacet
facet normal -0.995562 0.000000 -0.094106
outer loop
vertex -1.984230 0.114624 -0.250664
vertex -1.984230 -0.385376 -0.250664
vertex -1.996054 -0.385376 -0.125578
endloop
endfacet
facet normal -0.995562 -0.000000 -0.094106
outer loop
vertex -1.984230 0.114624 -0.250664
vertex -1.996054 -0.385376 -0.125578
vertex -1.996054 0.114624 -0.125578
endloop
endfacet
facet normal -0.999507 0.000000 -0.031410
outer loop
vertex -1.996054 0.114624 -0.125578
vertex -1.996054 -0.385376 -0.125578
vertex -2.000000 -0.385376 0.000003
endloop
endfacet
facet normal -0.999507 0.000000 -0.031410
outer loop
vertex -1.996054 0.114624 -0.125578
vertex -2.000000 -0.385376 0.000003
vertex -2.000000 0.114624 0.000003
endloop
endfacet
facet normal -0.999507 0.000000 0.031413
outer loop
vertex -2.000000 0.114624 0.000003
vertex -2.000000 -0.385376 0.000003
vertex -1.996053 -0.385376 0.125584
endloop
endfacet
facet normal -0.999507 -0.000000 0.031413
outer loop
vertex -2.000000 0.114624 0.000003
vertex -1.996053 -0.385376 0.125584
vertex -1.996053 0.114624 0.125584
endloop
endfacet
facet normal -0.995562 0.000000 0.094109
outer loop
vertex -1.996053 0.114624 0.125584
vertex -1.996053 -0.385376 0.125584
vertex -1.984229 -0.385376 0.250669
endloop
endfacet
facet normal -0.995562 0.000000 0.094109
outer loop
vertex -1.996053 0.114624 0.125584
vertex -1.984229 -0.385376 0.250669
vertex -1.984229 0.114624 0.250669
endloop
endfacet
facet normal -0.987688 0.000000 0.156436
outer loop
vertex -1.984229 0.114624 0.250669
vertex -1.984229 -0.385376 0.250669
vertex -1.964574 -0.385376 0.374766
endloop
endfacet
facet normal -0.987688 0.000000 0.156436
outer loop
vertex -1.984229 0.114624 0.250669
vertex -1.964574 -0.385376 0.374766
vertex -1.964574 0.114624 0.374766
endloop
endfacet
facet normal -0.975916 0.000000 0.218145
outer loop
vertex -1.964574 0.114624 0.374766
vertex -1.964574 -0.385376 0.374766
vertex -1.937165 -0.385376 0.497383
endloop
endfacet
facet normal -0.975916 0.000000 0.218146
outer loop
vertex -1.964574 0.114624 0.374766
vertex -1.937165 -0.385376 0.497383
vertex -1.937165 0.114624 0.497383
endloop
endfacet
facet normal -0.960293 0.000000 0.278993
outer loop
vertex -1.937165 0.114624 0.497383
vertex -1.937165 -0.385376 0.497383
vertex -1.902112 -0.385376 0.618037
endloop
endfacet
facet normal -0.960293 0.000000 0.278993
outer loop
vertex -1.937165 0.114624 0.497383
vertex -1.902112 -0.385376 0.618037
vertex -1.902112 0.114624 0.618037
endloop
endfacet
facet normal -0.940880 0.000000 0.338739
outer loop
vertex -1.902112 0.114624 0.618037
vertex -1.902112 -0.385376 0.618037
vertex -1.859552 -0.385376 0.736252
endloop
endfacet
facet normal -0.940880 0.000000 0.338739
outer loop
vertex -1.902112 0.114624 0.618037
vertex -1.859552 -0.385376 0.736252
vertex -1.859552 0.114624 0.736252
endloop
endfacet
facet normal -0.917754 0.000000 0.397149
outer loop
vertex -1.859552 0.114624 0.736252
vertex -1.859552 -0.385376 0.736252
vertex -1.809653 -0.385376 0.851562
endloop
endfacet
facet normal -0.917754 0.000000 0.397150
outer loop
vertex -1.859552 0.114624 0.736252
vertex -1.809653 -0.385376 0.851562
vertex -1.809653 0.114624 0.851562
endloop
endfacet
facet normal -0.891006 0.000000 0.453992
outer loop
vertex -1.809653 0.114624 0.851562
vertex -1.809653 -0.385376 0.851562
vertex -1.752612 -0.385376 0.963510
endloop
endfacet
facet normal -0.891006 0.000000 0.453992
outer loop
vertex -1.809653 0.114624 0.851562
vertex -1.752612 -0.385376 0.963510
vertex -1.752612 0.114624 0.963510
endloop
endfacet
facet normal -0.860741 0.000000 0.509043
outer loop
vertex -1.752612 0.114624 0.963510
vertex -1.752612 -0.385376 0.963510
vertex -1.688654 -0.385376 1.071656
endloop
endfacet
facet normal -0.860741 0.000000 0.509043
outer loop
vertex -1.752612 0.114624 0.963510
vertex -1.688654 -0.385376 1.071656
vertex -1.688654 0.114624 1.071656
endloop
endfacet
facet normal -0.827079 0.000000 0.562086
outer loop
vertex -1.688654 0.114624 1.071656
vertex -1.688654 -0.385376 1.071656
vertex -1.618032 -0.385376 1.175573
endloop
endfacet
facet normal -0.827080 0.000000 0.562085
outer loop
vertex -1.688654 0.114624 1.071656
vertex -1.618032 -0.385376 1.175573
vertex -1.618032 0.114624 1.175573
endloop
endfacet
facet normal -0.790154 0.000000 0.612909
outer loop
vertex -1.618032 0.114624 1.175573
vertex -1.618032 -0.385376 1.175573
vertex -1.541024 -0.385376 1.274851
endloop
endfacet
facet normal -0.790155 0.000000 0.612908
outer loop
vertex -1.618032 0.114624 1.175573
vertex -1.541024 -0.385376 1.274851
vertex -1.541024 0.114624 1.274851
endloop
endfacet
facet normal -0.750110 0.000000 0.661313
outer loop
vertex -1.541024 0.114624 1.274851
vertex -1.541024 -0.385376 1.274851
vertex -1.457935 -0.385376 1.369097
endloop
endfacet
facet normal -0.750110 0.000000 0.661313
outer loop
vertex -1.541024 0.114624 1.274851
vertex -1.457935 -0.385376 1.369097
vertex -1.457935 0.114624 1.369097
endloop
endfacet
facet normal -0.707105 0.000000 0.707108
outer loop
vertex -1.457935 0.114624 1.369097
vertex -1.457935 -0.385376 1.369097
vertex -1.369092 -0.385376 1.457940
endloop
endfacet
facet normal -0.707106 0.000000 0.707107
outer loop
vertex -1.457935 0.114624 1.369097
vertex -1.369092 -0.385376 1.457940
vertex -1.369092 0.114624 1.457940
endloop
endfacet
facet normal -0.661311 0.000000 0.750112
outer loop
vertex -1.369092 0.114624 1.457940
vertex -1.369092 -0.385376 1.457940
vertex -1.274845 -0.385376 1.541029
endloop
endfacet
facet normal -0.661310 0.000000 0.750113
outer loop
vertex -1.369092 0.114624 1.457940
vertex -1.274845 -0.385376 1.541029
vertex -1.274845 0.114624 1.541029
endloop
endfacet
facet normal -0.612905 0.000000 0.790157
outer loop
vertex -1.274845 0.114624 1.541029
vertex -1.274845 -0.385376 1.541029
vertex -1.175568 -0.385376 1.618036
endloop
endfacet
facet normal -0.612906 0.000000 0.790156
outer loop
vertex -1.274845 0.114624 1.541029
vertex -1.175568 -0.385376 1.618036
vertex -1.175568 0.114624 1.618036
endloop
endfacet
facet normal -0.562082 0.000000 0.827081
outer loop
vertex -1.175568 0.114624 1.618036
vertex -1.175568 -0.385376 1.618036
vertex -1.071651 -0.385376 1.688658
endloop
endfacet
facet normal -0.562082 0.000000 0.827081
outer loop
vertex -1.175568 0.114624 1.618036
vertex -1.071651 -0.385376 1.688658
vertex -1.071651 0.114624 1.688658
endloop
endfacet
facet normal -0.509039 0.000000 0.860743
outer loop
vertex -1.071651 0.114624 1.688658
vertex -1.071651 -0.385376 1.688658
vertex -0.963504 -0.385376 1.752615
endloop
endfacet
facet normal -0.509039 0.000000 0.860744
outer loop
vertex -1.071651 0.114624 1.688658
vertex -0.963504 -0.385376 1.752615
vertex -0.963504 0.114624 1.752615
endloop
endfacet
facet normal -0.453988 0.000000 0.891008
outer loop
vertex -0.963504 0.114624 1.752615
vertex -0.963504 -0.385376 1.752615
vertex -0.851555 -0.385376 1.809656
endloop
endfacet
facet normal -0.453988 0.000000 0.891008
outer loop
vertex -0.963504 0.114624 1.752615
vertex -0.851555 -0.385376 1.809656
vertex -0.851555 0.114624 1.809656
endloop
endfacet
facet normal -0.397146 0.000000 0.917756
outer loop
vertex -0.851555 0.114624 1.809656
vertex -0.851555 -0.385376 1.809656
vertex -0.736246 -0.385376 1.859554
endloop
endfacet
facet normal -0.397147 0.000000 0.917755
outer loop
vertex -0.851555 0.114624 1.809656
vertex -0.736246 -0.385376 1.859554
vertex -0.736246 0.114624 1.859554
endloop
endfacet
facet normal -0.338736 0.000000 0.940881
outer loop
vertex -0.736246 0.114624 1.859554
vertex -0.736246 -0.385376 1.859554
vertex -0.618030 -0.385376 1.902114
endloop
endfacet
facet normal -0.338736 0.000000 0.940881
outer loop
vertex -0.736246 0.114624 1.859554
vertex -0.618030 -0.385376 1.902114
vertex -0.618030 0.114624 1.902114
endloop
endfacet
facet normal -0.278989 0.000000 0.960294
outer loop
vertex -0.618030 0.114624 1.902114
vertex -0.618030 -0.385376 1.902114
vertex -0.497376 -0.385376 1.937167
endloop
endfacet
facet normal -0.278989 0.000000 0.960294
outer loop
vertex -0.618030 0.114624 1.902114
vertex -0.497376 -0.385376 1.937167
vertex -0.497376 0.114624 1.937167
endloop
endfacet
facet normal -0.218141 0.000000 0.975917
outer loop
vertex -0.497376 0.114624 1.937167
vertex -0.497376 -0.385376 1.937167
vertex -0.374759 -0.385376 1.964575
endloop
endfacet
facet normal -0.218143 0.000000 0.975917
outer loop
vertex -0.497376 0.114624 1.937167
vertex -0.374759 -0.385376 1.964575
vertex -0.374759 0.114624 1.964575
endloop
endfacet
facet normal -0.156433 0.000000 0.987689
outer loop
vertex -0.374759 0.114624 1.964575
vertex -0.374759 -0.385376 1.964575
vertex -0.250662 -0.385376 1.984230
endloop
endfacet
facet normal -0.156431 0.000000 0.987689
outer loop
vertex -0.374759 0.114624 1.964575
vertex -0.250662 -0.385376 1.984230
vertex -0.250662 0.114624 1.984230
endloop
endfacet
facet normal 0.000000 -1.000000 0.000008
outer loop
vertex 0.250666 -0.385376 1.984229
vertex 0.125581 -0.385376 1.996053
vertex 0.000000 -0.385376 2.000000
endloop
endfacet
facet normal 0.000000 -1.000000 0.000008
outer loop
vertex 0.000000 -0.385376 2.000000
vertex -0.125577 -0.385376 1.996054
vertex -0.250662 -0.385376 1.984230
endloop
endfacet
facet normal 0.000000 -1.000000 0.000008
outer loop
vertex -0.250662 -0.385376 1.984230
vertex -0.374759 -0.385376 1.964575
vertex -0.497376 -0.385376 1.937167
endloop
endfacet
facet normal 0.000000 -1.000000 0.000000
outer loop
vertex -0.497376 -0.385376 1.937167
vertex -0.618030 -0.385376 1.902114
vertex -0.736246 -0.385376 1.859554
endloop
endfacet
facet normal 0.000000 -1.000000 0.000000
outer loop
vertex -0.736246 -0.385376 1.859554
vertex -0.851555 -0.385376 1.809656
vertex -0.963504 -0.385376 1.752615
endloop
endfacet
facet normal -0.000002 -1.000000 0.000008
outer loop
vertex -0.963504 -0.385376 1.752615
vertex -1.071651 -0.385376 1.688658
vertex -1.175568 -0.385376 1.618036
endloop
endfacet
facet normal 0.000000 -1.000000 0.000000
outer loop
vertex -1.175568 -0.385376 1.618036
vertex -1.274845 -0.385376 1.541029
vertex -1.369092 -0.385376 1.457940
endloop
endfacet
facet normal 0.000000 -1.000000 0.000008
outer loop
vertex -1.369092 -0.385376 1.457940
vertex -1.457935 -0.385376 1.369097
vertex -1.541024 -0.385376 1.274851
endloop
endfacet
facet normal 0.000000 -1.000000 0.000000
outer loop
vertex -1.541024 -0.385376 1.274851
vertex -1.618032 -0.385376 1.175573
vertex -1.688654 -0.385376 1.071656
endloop
endfacet
facet normal -0.000003 -1.000000 -0.000004
outer loop
vertex -1.688654 -0.385376 1.071656
vertex -1.752612 -0.385376 0.963510
vertex -1.809653 -0.385376 0.851562
endloop
endfacet
facet normal 0.000000 -1.000000 -0.000004
outer loop
vertex -1.809653 -0.385376 0.851562
vertex -1.859552 -0.385376 0.736252
vertex -1.902112 -0.385376 0.618037
endloop
endfacet
facet normal 0.000000 -1.000000 0.000000
outer loop
vertex -1.902112 -0.385376 0.618037
vertex -1.937165 -0.385376 0.497383
vertex -1.964574 -0.385376 0.374766
endloop
endfacet
facet normal -0.000004 -1.000000 0.000001
outer loop
vertex -1.964574 -0.385376 0.374766
vertex -1.984229 -0.385376 0.250669
vertex -1.996053 -0.385376 0.125584
endloop
endfacet
facet normal 0.000000 -1.000000 0.000000
outer loop
vertex -1.996053 -0.385376 0.125584
vertex -2.000000 -0.385376 0.000003
vertex -1.996054 -0.385376 -0.125578
endloop
endfacet
facet normal -0.000004 -1.000000 0.000000
outer loop
vertex -1.996054 -0.385376 -0.125578
vertex -1.984230 -0.385376 -0.250664
vertex -1.964575 -0.385376 -0.374760
endloop
endfacet
facet normal 0.000000 -1.000000 0.000000
outer loop
vertex -1.964575 -0.385376 -0.374760
vertex -1.937167 -0.385376 -0.497377
vertex -1.902114 -0.385376 -0.618032
endloop
endfacet
facet normal 0.000000 -1.000000 -0.000004
outer loop
vertex -1.902114 -0.385376 -0.618032
vertex -1.859554 -0.385376 -0.736247
vertex -1.809655 -0.385376 -0.851556
endloop
endfacet
facet normal 0.000000 -1.000000 -0.000004
outer loop
vertex -1.809655 -0.385376 -0.851556
vertex -1.752614 -0.385376 -0.963505
vertex -1.688657 -0.385376 -1.071652
endloop
endfacet
facet normal 0.000003 -1.000000 -0.000004
outer loop
vertex -1.688657 -0.385376 -1.071652
vertex -1.618035 -0.385376 -1.175569
vertex -1.541028 -0.385376 -1.274846
endloop
endfacet
facet normal 0.000000 -1.000000 -0.000008
outer loop
vertex -1.541028 -0.385376 -1.274846
vertex -1.457939 -0.385376 -1.369092
vertex -1.369096 -0.385376 -1.457935
endloop
endfacet
facet normal -0.000002 -1.000000 0.000008
outer loop
vertex -1.369096 -0.385376 -1.457935
vertex -1.274850 -0.385376 -1.541025
vertex -1.175573 -0.385376 -1.618032
endloop
endfacet
facet normal 0.000000 -1.000000 0.000008
outer loop
vertex -1.175573 -0.385376 -1.618032
vertex -1.071656 -0.385376 -1.688655
vertex -0.963510 -0.385376 -1.752612
endloop
endfacet
facet normal 0.000000 -1.000000 0.000000
outer loop
vertex -0.963510 -0.385376 -1.752612
vertex -0.851561 -0.385376 -1.809653
vertex -0.736251 -0.385376 -1.859552
endloop
endfacet
facet normal 0.000000 -1.000000 -0.000008
outer loop
vertex -0.736251 -0.385376 -1.859552
vertex -0.618036 -0.385376 -1.902112
vertex -0.497382 -0.385376 -1.937166
endloop
endfacet
facet normal 0.000000 -1.000000 0.000000
outer loop
vertex -0.497382 -0.385376 -1.937166
vertex -0.374765 -0.385376 -1.964574
vertex -0.250669 -0.385376 -1.984229
endloop
endfacet
facet normal 0.000000 -1.000000 0.000000
outer loop
vertex -0.250669 -0.385376 -1.984229
vertex -0.125583 -0.385376 -1.996053
vertex -0.000002 -0.385376 -2.000000
endloop
endfacet
facet normal 0.000000 -1.000000 0.000000
outer loop
vertex -0.000002 -0.385376 -2.000000
vertex 0.125579 -0.385376 -1.996054
vertex 0.250665 -0.385376 -1.984230
endloop
endfacet
facet normal 0.000000 -1.000000 0.000008
outer loop
vertex 0.250665 -0.385376 -1.984230
vertex 0.374761 -0.385376 -1.964575
vertex 0.497378 -0.385376 -1.937167
endloop
endfacet
facet normal 0.000000 -1.000000 0.000000
outer loop
vertex 0.497378 -0.385376 -1.937167
vertex 0.618032 -0.385376 -1.902114
vertex 0.736247 -0.385376 -1.859554
endloop
endfacet
facet normal 0.000000 -1.000000 0.000000
outer loop
vertex 0.736247 -0.385376 -1.859554
vertex 0.851557 -0.385376 -1.809655
vertex 0.963506 -0.385376 -1.752614
endloop
endfacet
facet normal 0.000000 -1.000000 -0.000008
outer loop
vertex 0.963506 -0.385376 -1.752614
vertex 1.071652 -0.385376 -1.688657
vertex 1.175569 -0.385376 -1.618035
endloop
endfacet
facet normal 0.000002 -1.000000 0.000000
outer loop
vertex 1.175569 -0.385376 -1.618035
vertex 1.274847 -0.385376 -1.541027
vertex 1.369093 -0.385376 -1.457938
endloop
endfacet
facet normal 0.000000 -1.000000 0.000008
outer loop
vertex 1.369093 -0.385376 -1.457938
vertex 1.457936 -0.385376 -1.369095
vertex 1.541026 -0.385376 -1.274849
endloop
endfacet
facet normal -0.000003 -1.000000 0.000000
outer loop
vertex 1.541026 -0.385376 -1.274849
vertex 1.618033 -0.385376 -1.175572
vertex 1.688655 -0.385376 -1.071655
endloop
endfacet
facet normal 0.000000 -1.000000 0.000000
outer loop
vertex 1.688655 -0.385376 -1.071655
vertex 1.752613 -0.385376 -0.963508
vertex 1.809654 -0.385376 -0.851560
endloop
endfacet
facet normal 0.000000 -1.000000 0.000000
outer loop
vertex 1.809654 -0.385376 -0.851560
vertex 1.859553 -0.385376 -0.736250
vertex 1.902113 -0.385376 -0.618035
endloop
endfacet
facet normal 0.000000 -1.000000 0.000002
outer loop
vertex 1.902113 -0.385376 -0.618035
vertex 1.937166 -0.385376 -0.497381
vertex 1.964574 -0.385376 -0.374764
endloop
endfacet
facet normal 0.000004 -1.000000 0.000000
outer loop
vertex 1.964574 -0.385376 -0.374764
vertex 1.984229 -0.385376 -0.250667
vertex 1.996053 -0.385376 -0.125582
endloop
endfacet
facet normal 0.000000 -1.000000 0.000000
outer loop
vertex 1.996053 -0.385376 -0.125582
vertex 2.000000 -0.385376 -0.000001
vertex 1.996053 -0.385376 0.125580
endloop
endfacet
facet normal 0.000004 -1.000000 0.000001
outer loop
vertex 1.996053 -0.385376 0.125580
vertex 1.984229 -0.385376 0.250666
vertex 1.964575 -0.385376 0.374762
endloop
endfacet
facet normal 0.000000 -1.000000 0.000000
outer loop
vertex 1.964575 -0.385376 0.374762
vertex 1.937166 -0.385376 0.497379
vertex 1.902113 -0.385376 0.618033
endloop
endfacet
facet normal 0.000000 -1.000000 0.000000
outer loop
vertex 1.902113 -0.385376 0.618033
vertex 1.859553 -0.385376 0.736249
vertex 1.809654 -0.385376 0.851558
endloop
endfacet
facet normal 0.000003 -1.000000 0.000000
outer loop
vertex 1.809654 -0.385376 0.851558
vertex 1.752614 -0.385376 0.963507
vertex 1.688656 -0.385376 1.071653
endloop
endfacet
facet normal 0.000000 -1.000000 0.000004
outer loop
vertex 1.688656 -0.385376 1.071653
vertex 1.618034 -0.385376 1.175570
vertex 1.541027 -0.385376 1.274848
endloop
endfacet
facet normal 0.000000 -1.000000 0.000000
outer loop
vertex 1.541027 -0.385376 1.274848
vertex 1.457937 -0.385376 1.369094
vertex 1.369094 -0.385376 1.457937
endloop
endfacet
facet normal 0.000000 -1.000000 0.000008
outer loop
vertex 1.369094 -0.385376 1.457937
vertex 1.274848 -0.385376 1.541026
vertex 1.175571 -0.385376 1.618034
endloop
endfacet
facet normal 0.000002 -1.000000 0.000008
outer loop
vertex 1.175571 -0.385376 1.618034
vertex 1.071654 -0.385376 1.688656
vertex 0.963507 -0.385376 1.752613
endloop
endfacet
facet normal 0.000000 -1.000000 0.000000
outer loop
vertex 0.963507 -0.385376 1.752613
vertex 0.851559 -0.385376 1.809654
vertex 0.736249 -0.385376 1.859553
endloop
endfacet
facet normal 0.000000 -1.000000 0.000008
outer loop
vertex 0.736249 -0.385376 1.859553
vertex 0.618034 -0.385376 1.902113
vertex 0.497380 -0.385376 1.937166
endloop
endfacet
facet normal 0.000000 -1.000000 0.000000
outer loop
vertex 0.497380 -0.385376 1.937166
vertex 0.374763 -0.385376 1.964574
vertex 0.250666 -0.385376 1.984229
endloop
endfacet
facet normal 0.000000 -1.000000 0.000000
outer loop
vertex 0.250666 -0.385376 1.984229
vertex 0.000000 -0.385376 2.000000
vertex -0.250662 -0.385376 1.984230
endloop
endfacet
facet normal 0.000000 -1.000000 -0.000002
outer loop
vertex -0.250662 -0.385376 1.984230
vertex -0.497376 -0.385376 1.937167
vertex -0.736246 -0.385376 1.859554
endloop
endfacet
facet normal 0.000000 -1.000000 -0.000002
outer loop
vertex -0.736246 -0.385376 1.859554
vertex -0.963504 -0.385376 1.752615
vertex -1.175568 -0.385376 1.618036
endloop
endfacet
facet normal 0.000000 -1.000000 0.000000
outer loop
vertex -1.175568 -0.385376 1.618036
vertex -1.369092 -0.385376 1.457940
vertex -1.541024 -0.385376 1.274851
endloop
endfacet
facet normal 0.000001 -1.000000 -0.000001
outer loop
vertex -1.541024 -0.385376 1.274851
vertex -1.688654 -0.385376 1.071656
vertex -1.809653 -0.385376 0.851562
endloop
endfacet
facet normal 0.000000 -1.000000 0.000000
outer loop
vertex -1.809653 -0.385376 0.851562
vertex -1.902112 -0.385376 0.618037
vertex -1.964574 -0.385376 0.374766
endloop
endfacet
facet normal -0.000001 -1.000000 0.000000
outer loop
vertex -1.964574 -0.385376 0.374766
vertex -1.996053 -0.385376 0.125584
vertex -1.996054 -0.385376 -0.125578
endloop
endfacet
facet normal -0.000001 -1.000000 0.000000
outer loop
vertex -1.996054 -0.385376 -0.125578
vertex -1.964575 -0.385376 -0.374760
vertex -1.902114 -0.385376 -0.618032
endloop
endfacet
facet normal 0.000000 -1.000000 0.000000
outer loop
vertex -1.902114 -0.385376 -0.618032
vertex -1.809655 -0.385376 -0.851556
vertex -1.688657 -0.385376 -1.071652
endloop
endfacet
facet normal -0.000001 -1.000000 0.000000
outer loop
vertex -1.688657 -0.385376 -1.071652
vertex -1.541028 -0.385376 -1.274846
vertex -1.369096 -0.385376 -1.457935
endloop
endfacet
facet normal -0.000001 -1.000000 0.000000
outer loop
vertex -1.369096 -0.385376 -1.457935
vertex -1.175573 -0.385376 -1.618032
vertex -0.963510 -0.385376 -1.752612
endloop
endfacet
facet normal 0.000000 -1.000000 0.000002
outer loop
vertex -0.963510 -0.385376 -1.752612
vertex -0.736251 -0.385376 -1.859552
vertex -0.497382 -0.385376 -1.937166
endloop
endfacet
facet normal 0.000000 -1.000000 -0.000002
outer loop
vertex -0.497382 -0.385376 -1.937166
vertex -0.250669 -0.385376 -1.984229
vertex -0.000002 -0.385376 -2.000000
endloop
endfacet
facet normal 0.000000 -1.000000 0.000002
outer loop
vertex -0.000002 -0.385376 -2.000000
vertex 0.250665 -0.385376 -1.984230
vertex 0.497378 -0.385376 -1.937167
endloop
endfacet
facet normal 0.000000 -1.000000 -0.000002
outer loop
vertex 0.497378 -0.385376 -1.937167
vertex 0.736247 -0.385376 -1.859554
vertex 0.963506 -0.385376 -1.752614
endloop
endfacet
facet normal 0.000001 -1.000000 0.000000
outer loop
vertex 0.963506 -0.385376 -1.752614
vertex 1.175569 -0.385376 -1.618035
vertex 1.369093 -0.385376 -1.457938
endloop
endfacet
facet normal 0.000001 -1.000000 -0.000002
outer loop
vertex 1.369093 -0.385376 -1.457938
vertex 1.541026 -0.385376 -1.274849
vertex 1.688655 -0.385376 -1.071655
endloop
endfacet
facet normal 0.000000 -1.000000 0.000000
outer loop
vertex 1.688655 -0.385376 -1.071655
vertex 1.809654 -0.385376 -0.851560
vertex 1.902113 -0.385376 -0.618035
endloop
endfacet
facet normal 0.000001 -1.000000 -0.000000
outer loop
vertex 1.902113 -0.385376 -0.618035
vertex 1.964574 -0.385376 -0.374764
vertex 1.996053 -0.385376 -0.125582
endloop
endfacet
facet normal 0.000001 -1.000000 0.000000
outer loop
vertex 1.996053 -0.385376 -0.125582
vertex 1.996053 -0.385376 0.125580
vertex 1.964575 -0.385376 0.374762
endloop
endfacet
facet normal 0.000000 -1.000000 0.000000
outer loop
vertex 1.964575 -0.385376 0.374762
vertex 1.902113 -0.385376 0.618033
vertex 1.809654 -0.385376 0.851558
endloop
endfacet
facet normal -0.000001 -1.000000 -0.000001
outer loop
vertex 1.809654 -0.385376 0.851558
vertex 1.688656 -0.385376 1.071653
vertex 1.541027 -0.385376 1.274848
endloop
endfacet
facet normal 0.000000 -1.000000 -0.000002
outer loop
vertex 1.541027 -0.385376 1.274848
vertex 1.369094 -0.385376 1.457937
vertex 1.175571 -0.385376 1.618034
endloop
endfacet
facet normal -0.000000 -1.000000 -0.000002
outer loop
vertex 1.175571 -0.385376 1.618034
vertex 0.963507 -0.385376 1.752613
vertex 0.736249 -0.385376 1.859553
endloop
endfacet
facet normal 0.000000 -1.000000 0.000000
outer loop
vertex 0.736249 -0.385376 1.859553
vertex 0.497380 -0.385376 1.937166
vertex 0.250666 -0.385376 1.984229
endloop
endfacet
facet normal 0.000000 -1.000000 0.000000
outer loop
vertex 0.250666 -0.385376 1.984229
vertex -0.250662 -0.385376 1.984230
vertex -0.736246 -0.385376 1.859554
endloop
endfacet
facet normal -0.000000 -1.000000 0.000000
outer loop
vertex -0.736246 -0.385376 1.859554
vertex -1.175568 -0.385376 1.618036
vertex -1.541024 -0.385376 1.274851
endloop
endfacet
facet normal -0.000000 -1.000000 -0.000000
outer loop
vertex -1.541024 -0.385376 1.274851
vertex -1.809653 -0.385376 0.851562
vertex -1.964574 -0.385376 0.374766
endloop
endfacet
facet normal 0.000000 -1.000000 -0.000000
outer loop
vertex -1.964574 -0.385376 0.374766
vertex -1.996054 -0.385376 -0.125578
vertex -1.902114 -0.385376 -0.618032
endloop
endfacet
facet normal 0.000000 -1.000000 0.000000
outer loop
vertex -1.902114 -0.385376 -0.618032
vertex -1.688657 -0.385376 -1.071652
vertex -1.369096 -0.385376 -1.457935
endloop
endfacet
facet normal -0.000000 -1.000000 0.000000
outer loop
vertex -1.369096 -0.385376 -1.457935
vertex -0.963510 -0.385376 -1.752612
vertex -0.497382 -0.385376 -1.937166
endloop
endfacet
facet normal 0.000000 -1.000000 0.000000
outer loop
vertex -0.497382 -0.385376 -1.937166
vertex -0.000002 -0.385376 -2.000000
vertex 0.497378 -0.385376 -1.937167
endloop
endfacet
facet normal 0.000000 -1.000000 0.000001
outer loop
vertex 0.497378 -0.385376 -1.937167
vertex 0.963506 -0.385376 -1.752614
vertex 1.369093 -0.385376 -1.457938
endloop
endfacet
facet normal -0.000000 -1.000000 -0.000000
outer loop
vertex 1.369093 -0.385376 -1.457938
vertex 1.688655 -0.385376 -1.071655
vertex 1.902113 -0.385376 -0.618035
endloop
endfacet
facet normal -0.000000 -1.000000 -0.000000
outer loop
vertex 1.902113 -0.385376 -0.618035
vertex 1.996053 -0.385376 -0.125582
vertex 1.964575 -0.385376 0.374762
endloop
endfacet
facet normal 0.000000 -1.000000 -0.000000
outer loop
vertex 1.964575 -0.385376 0.374762
vertex 1.809654 -0.385376 0.851558
vertex 1.541027 -0.385376 1.274848
endloop
endfacet
facet normal 0.000000 -1.000000 0.000001
outer loop
vertex 1.541027 -0.385376 1.274848
vertex 1.175571 -0.385376 1.618034
vertex 0.736249 -0.385376 1.859553
endloop
endfacet
facet normal 0.000000 -1.000000 -0.000000
outer loop
vertex 0.736249 -0.385376 1.859553
vertex 0.250666 -0.385376 1.984229
vertex -0.736246 -0.385376 1.859554
endloop
endfacet
facet normal -0.000000 -1.000000 -0.000000
outer loop
vertex -0.736246 -0.385376 1.859554
vertex -1.541024 -0.385376 1.274851
vertex -1.964574 -0.385376 0.374766
endloop
endfacet
facet normal -0.000000 -1.000000 0.000000
outer loop
vertex -1.964574 -0.385376 0.374766
vertex -1.902114 -0.385376 -0.618032
vertex -1.369096 -0.385376 -1.457935
endloop
endfacet
facet normal -0.000000 -1.000000 -0.000000
outer loop
vertex -1.369096 -0.385376 -1.457935
vertex -0.497382 -0.385376 -1.937166
vertex 0.497378 -0.385376 -1.937167
endloop
endfacet
facet normal -0.000000 -1.000000 0.000000
outer loop
vertex 0.497378 -0.385376 -1.937167
vertex 1.369093 -0.385376 -1.457938
vertex 1.902113 -0.385376 -0.618035
endloop
endfacet
facet normal -0.000000 -1.000000 0.000000
outer loop
vertex 1.902113 -0.385376 -0.618035
vertex 1.964575 -0.385376 0.374762
vertex 1.541027 -0.385376 1.274848
endloop
endfacet
facet normal -0.000000 -1.000000 0.000000
outer loop
vertex 1.541027 -0.385376 1.274848
vertex 0.736249 -0.385376 1.859553
vertex -0.736246 -0.385376 1.859554
endloop
endfacet
facet normal 0.000000 -1.000000 -0.000000
outer loop
vertex -0.736246 -0.385376 1.859554
vertex -1.964574 -0.385376 0.374766
vertex -1.369096 -0.385376 -1.457935
endloop
endfacet
facet normal 0.000000 -1.000000 -0.000000
outer loop
vertex -1.369096 -0.385376 -1.457935
vertex 0.497378 -0.385376 -1.937167
vertex 1.902113 -0.385376 -0.618035
endloop
endfacet
facet normal 0.000000 -1.000000 -0.000000
outer loop
vertex 1.902113 -0.385376 -0.618035
vertex 1.541027 -0.385376 1.274848
vertex -0.736246 -0.385376 1.859554
endloop
endfacet
facet normal 0.000000 -1.000000 -0.000000
outer loop
vertex -0.736246 -0.385376 1.859554
vertex -1.369096 -0.385376 -1.457935
vertex 1.902113 -0.385376 -0.618035
endloop
endfacet
facet normal -0.094107 0.000000 0.995562
outer loop
vertex -0.250662 0.114624 1.984230
vertex -0.250662 -0.385376 1.984230
vertex -0.125577 -0.385376 1.996054
endloop
endfacet
facet normal -0.094105 0.000000 0.995562
outer loop
vertex -0.250662 0.114624 1.984230
vertex -0.125577 -0.385376 1.996054
vertex -0.125577 0.114624 1.996054
endloop
endfacet
facet normal -0.031410 0.000000 0.999507
outer loop
vertex -0.125577 0.114624 1.996054
vertex -0.125577 -0.385376 1.996054
vertex 0.000000 -0.385376 2.000000
endloop
endfacet
facet normal -0.031410 0.000000 0.999507
outer loop
vertex -0.125577 0.114624 1.996054
vertex 0.000000 -0.385376 2.000000
vertex 0.000000 0.114624 2.000000
endloop
endfacet
facet normal 0.000000 1.000000 0.000002
outer loop
vertex -0.125577 0.114624 1.996054
vertex 0.000000 0.114624 2.000000
vertex 0.125581 0.114624 1.996053
endloop
endfacet
facet normal 0.000000 1.000000 0.000002
outer loop
vertex 0.125581 0.114624 1.996053
vertex 0.250666 0.114624 1.984229
vertex 0.374763 0.114624 1.964574
endloop
endfacet
facet normal 0.000000 1.000000 0.000002
outer loop
vertex 0.374763 0.114624 1.964574
vertex 0.497380 0.114624 1.937166
vertex 0.618034 0.114624 1.902113
endloop
endfacet
facet normal -0.000001 1.000000 0.000000
outer loop
vertex 0.618034 0.114624 1.902113
vertex 0.736249 0.114624 1.859553
vertex 0.851559 0.114624 1.809654
endloop
endfacet
facet normal 0.000000 1.000000 0.000002
outer loop
vertex 0.851559 0.114624 1.809654
vertex 0.963507 0.114624 1.752613
vertex 1.071654 0.114624 1.688656
endloop
endfacet
facet normal 0.000000 1.000000 0.000002
outer loop
vertex 1.071654 0.114624 1.688656
vertex 1.175571 0.114624 1.618034
vertex 1.274848 0.114624 1.541026
endloop
endfacet
facet normal -0.000001 1.000000 -0.000002
outer loop
vertex 1.274848 0.114624 1.541026
vertex 1.369094 0.114624 1.457937
vertex 1.457937 0.114624 1.369094
endloop
endfacet
facet normal 0.000001 1.000000 0.000000
outer loop
vertex 1.457937 0.114624 1.369094
vertex 1.541027 0.114624 1.274848
vertex 1.618034 0.114624 1.175570
endloop
endfacet
facet normal 0.000000 1.000000 0.000001
outer loop
vertex 1.618034 0.114624 1.175570
vertex 1.688656 0.114624 1.071653
vertex 1.752614 0.114624 0.963507
endloop
endfacet
facet normal -0.000002 1.000000 -0.000001
outer loop
vertex 1.752614 0.114624 0.963507
vertex 1.809654 0.114624 0.851558
vertex 1.859553 0.114624 0.736249
endloop
endfacet
facet normal 0.000002 1.000000 0.000001
outer loop
vertex 1.859553 0.114624 0.736249
vertex 1.902113 0.114624 0.618033
vertex 1.937166 0.114624 0.497379
endloop
endfacet
facet normal 0.000000 1.000000 0.000000
outer loop
vertex 1.937166 0.114624 0.497379
vertex 1.964575 0.114624 0.374762
vertex 1.984229 0.114624 0.250666
endloop
endfacet
facet normal -0.000002 1.000000 -0.000000
outer loop
vertex 1.984229 0.114624 0.250666
vertex 1.996053 0.114624 0.125580
vertex 2.000000 0.114624 -0.000001
endloop
endfacet
facet normal 0.000000 1.000000 0.000000
outer loop
vertex 2.000000 0.114624 -0.000001
vertex 1.996053 0.114624 -0.125582
vertex 1.984229 0.114624 -0.250667
endloop
endfacet
facet normal -0.000004 1.000000 0.000001
outer loop
vertex 1.984229 0.114624 -0.250667
vertex 1.964574 0.114624 -0.374764
vertex 1.937166 0.114624 -0.497381
endloop
endfacet
facet normal 0.000000 1.000000 0.000000
outer loop
vertex 1.937166 0.114624 -0.497381
vertex 1.902113 0.114624 -0.618035
vertex 1.859553 0.114624 -0.736250
endloop
endfacet
facet normal 0.000000 1.000000 0.000000
outer loop
vertex 1.859553 0.114624 -0.736250
vertex 1.809654 0.114624 -0.851560
vertex 1.752613 0.114624 -0.963508
endloop
endfacet
facet normal -0.000003 1.000000 0.000002
outer loop
vertex 1.752613 0.114624 -0.963508
vertex 1.688655 0.114624 -1.071655
vertex 1.618033 0.114624 -1.175572
endloop
endfacet
facet normal 0.000000 1.000000 0.000000
outer loop
vertex 1.618033 0.114624 -1.175572
vertex 1.541026 0.114624 -1.274849
vertex 1.457936 0.114624 -1.369095
endloop
endfacet
facet normal 0.000000 1.000000 0.000002
outer loop
vertex 1.457936 0.114624 -1.369095
vertex 1.369093 0.114624 -1.457938
vertex 1.274847 0.114624 -1.541027
endloop
endfacet
facet normal 0.000000 1.000000 0.000000
outer loop
vertex 1.274847 0.114624 -1.541027
vertex 1.175569 0.114624 -1.618035
vertex 1.071652 0.114624 -1.688657
endloop
endfacet
facet normal -0.000002 1.000000 0.000004
outer loop
vertex 1.071652 0.114624 -1.688657
vertex 0.963506 0.114624 -1.752614
vertex 0.851557 0.114624 -1.809655
endloop
endfacet
facet normal 0.000000 1.000000 0.000002
outer loop
vertex 0.851557 0.114624 -1.809655
vertex 0.736247 0.114624 -1.859554
vertex 0.618032 0.114624 -1.902114
endloop
endfacet
facet normal 0.000000 1.000000 0.000000
outer loop
vertex 0.618032 0.114624 -1.902114
vertex 0.497378 0.114624 -1.937167
vertex 0.374761 0.114624 -1.964575
endloop
endfacet
facet normal 0.000000 1.000000 0.000002
outer loop
vertex 0.374761 0.114624 -1.964575
vertex 0.250665 0.114624 -1.984230
vertex 0.125579 0.114624 -1.996054
endloop
endfacet
facet normal 0.000000 1.000000 0.000004
outer loop
vertex 0.125579 0.114624 -1.996054
vertex -0.000002 0.114624 -2.000000
vertex -0.125583 0.114624 -1.996053
endloop
endfacet
facet normal 0.000000 1.000000 0.000002
outer loop
vertex -0.125583 0.114624 -1.996053
vertex -0.250669 0.114624 -1.984229
vertex -0.374765 0.114624 -1.964574
endloop
endfacet
facet normal 0.000000 1.000000 0.000000
outer loop
vertex -0.374765 0.114624 -1.964574
vertex -0.497382 0.114624 -1.937166
vertex -0.618036 0.114624 -1.902112
endloop
endfacet
facet normal 0.000000 1.000000 0.000000
outer loop
vertex -0.618036 0.114624 -1.902112
vertex -0.736251 0.114624 -1.859552
vertex -0.851561 0.114624 -1.809653
endloop
endfacet
facet normal 0.000002 1.000000 0.000004
outer loop
vertex -0.851561 0.114624 -1.809653
vertex -0.963510 0.114624 -1.752612
vertex -1.071656 0.114624 -1.688655
endloop
endfacet
facet normal 0.000000 1.000000 0.000000
outer loop
vertex -1.071656 0.114624 -1.688655
vertex -1.175573 0.114624 -1.618032
vertex -1.274850 0.114624 -1.541025
endloop
endfacet
facet normal 0.000000 1.000000 0.000002
outer loop
vertex -1.274850 0.114624 -1.541025
vertex -1.369096 0.114624 -1.457935
vertex -1.457939 0.114624 -1.369092
endloop
endfacet
facet normal 0.000000 1.000000 0.000000
outer loop
vertex -1.457939 0.114624 -1.369092
vertex -1.541028 0.114624 -1.274846
vertex -1.618035 0.114624 -1.175569
endloop
endfacet
facet normal 0.000003 1.000000 0.000002
outer loop
vertex -1.618035 0.114624 -1.175569
vertex -1.688657 0.114624 -1.071652
vertex -1.752614 0.114624 -0.963505
endloop
endfacet
facet normal 0.000000 1.000000 0.000000
outer loop
vertex -1.752614 0.114624 -0.963505
vertex -1.809655 0.114624 -0.851556
vertex -1.859554 0.114624 -0.736247
endloop
endfacet
facet normal 0.000000 1.000000 0.000000
outer loop
vertex -1.859554 0.114624 -0.736247
vertex -1.902114 0.114624 -0.618032
vertex -1.937167 0.114624 -0.497377
endloop
endfacet
facet normal 0.000004 1.000000 0.000001
outer loop
vertex -1.937167 0.114624 -0.497377
vertex -1.964575 0.114624 -0.374760
vertex -1.984230 0.114624 -0.250664
endloop
endfacet
facet normal 0.000000 1.000000 0.000000
outer loop
vertex -1.984230 0.114624 -0.250664
vertex -1.996054 0.114624 -0.125578
vertex -2.000000 0.114624 0.000003
endloop
endfacet
facet normal 0.000002 1.000000 0.000000
outer loop
vertex -2.000000 0.114624 0.000003
vertex -1.996053 0.114624 0.125584
vertex -1.984229 0.114624 0.250669
endloop
endfacet
facet normal 0.000000 1.000000 -0.000000
outer loop
vertex -1.984229 0.114624 0.250669
vertex -1.964574 0.114624 0.374766
vertex -1.937165 0.114624 0.497383
endloop
endfacet
facet normal -0.000002 1.000000 0.000001
outer loop
vertex -1.937165 0.114624 0.497383
vertex -1.902112 0.114624 0.618037
vertex -1.859552 0.114624 0.736252
endloop
endfacet
facet normal 0.000002 1.000000 -0.000001
outer loop
vertex -1.859552 0.114624 0.736252
vertex -1.809653 0.114624 0.851562
vertex -1.752612 0.114624 0.963510
endloop
endfacet
facet normal 0.000000 1.000000 0.000000
outer loop
vertex -1.752612 0.114624 0.963510
vertex -1.688654 0.114624 1.071656
vertex -1.618032 0.114624 1.175573
endloop
endfacet
facet normal -0.000001 1.000000 0.000002
outer loop
vertex -1.618032 0.114624 1.175573
vertex -1.541024 0.114624 1.274851
vertex -1.457935 0.114624 1.369097
endloop
endfacet
facet normal 0.000001 1.000000 -0.000002
outer loop
vertex -1.457935 0.114624 1.369097
vertex -1.369092 0.114624 1.457940
vertex -1.274845 0.114624 1.541029
endloop
endfacet
facet normal 0.000000 1.000000 0.000002
outer loop
vertex -1.274845 0.114624 1.541029
vertex -1.175568 0.114624 1.618036
vertex -1.071651 0.114624 1.688658
endloop
endfacet
facet normal 0.000000 1.000000 0.000002
outer loop
vertex -1.071651 0.114624 1.688658
vertex -0.963504 0.114624 1.752615
vertex -0.851555 0.114624 1.809656
endloop
endfacet
facet normal 0.000001 1.000000 0.000000
outer loop
vertex -0.851555 0.114624 1.809656
vertex -0.736246 0.114624 1.859554
vertex -0.618030 0.114624 1.902114
endloop
endfacet
facet normal 0.000000 1.000000 0.000002
outer loop
vertex -0.618030 0.114624 1.902114
vertex -0.497376 0.114624 1.937167
vertex -0.374759 0.114624 1.964575
endloop
endfacet
facet normal 0.000000 1.000000 0.000000
outer loop
vertex -0.374759 0.114624 1.964575
vertex -0.250662 0.114624 1.984230
vertex -0.125577 0.114624 1.996054
endloop
endfacet
facet normal 0.000000 1.000000 -0.000001
outer loop
vertex -0.125577 0.114624 1.996054
vertex 0.125581 0.114624 1.996053
vertex 0.374763 0.114624 1.964574
endloop
endfacet
facet normal 0.000000 1.000000 0.000000
outer loop
vertex 0.374763 0.114624 1.964574
vertex 0.618034 0.114624 1.902113
vertex 0.851559 0.114624 1.809654
endloop
endfacet
facet normal 0.000000 1.000000 -0.000000
outer loop
vertex 0.851559 0.114624 1.809654
vertex 1.071654 0.114624 1.688656
vertex 1.274848 0.114624 1.541026
endloop
endfacet
facet normal -0.000000 1.000000 0.000000
outer loop
vertex 1.274848 0.114624 1.541026
vertex 1.457937 0.114624 1.369094
vertex 1.618034 0.114624 1.175570
endloop
endfacet
facet normal 0.000000 1.000000 0.000000
outer loop
vertex 1.618034 0.114624 1.175570
vertex 1.752614 0.114624 0.963507
vertex 1.859553 0.114624 0.736249
endloop
endfacet
facet normal -0.000000 1.000000 -0.000000
outer loop
vertex 1.859553 0.114624 0.736249
vertex 1.937166 0.114624 0.497379
vertex 1.984229 0.114624 0.250666
endloop
endfacet
facet normal -0.000000 1.000000 0.000000
outer loop
vertex 1.984229 0.114624 0.250666
vertex 2.000000 0.114624 -0.000001
vertex 1.984229 0.114624 -0.250667
endloop
endfacet
facet normal -0.000001 1.000000 0.000000
outer loop
vertex 1.984229 0.114624 -0.250667
vertex 1.937166 0.114624 -0.497381
vertex 1.859553 0.114624 -0.736250
endloop
endfacet
facet normal 0.000001 1.000000 -0.000000
outer loop
vertex 1.859553 0.114624 -0.736250
vertex 1.752613 0.114624 -0.963508
vertex 1.618033 0.114624 -1.175572
endloop
endfacet
facet normal 0.000000 1.000000 0.000000
outer loop
vertex 1.618033 0.114624 -1.175572
vertex 1.457936 0.114624 -1.369095
vertex 1.274847 0.114624 -1.541027
endloop
endfacet
facet normal 0.000001 1.000000 -0.000000
outer loop
vertex 1.274847 0.114624 -1.541027
vertex 1.071652 0.114624 -1.688657
vertex 0.851557 0.114624 -1.809655
endloop
endfacet
facet normal 0.000000 1.000000 -0.000000
outer loop
vertex 0.851557 0.114624 -1.809655
vertex 0.618032 0.114624 -1.902114
vertex 0.374761 0.114624 -1.964575
endloop
endfacet
facet normal 0.000000 1.000000 -0.000000
outer loop
vertex 0.374761 0.114624 -1.964575
vertex 0.125579 0.114624 -1.996054
vertex -0.125583 0.114624 -1.996053
endloop
endfacet
facet normal 0.000000 1.000000 -0.000000
outer loop
vertex -0.125583 0.114624 -1.996053
vertex -0.374765 0.114624 -1.964574
vertex -0.618036 0.114624 -1.902112
endloop
endfacet
facet normal 0.000000 1.000000 0.000001
outer loop
vertex -0.618036 0.114624 -1.902112
vertex -0.851561 0.114624 -1.809653
vertex -1.071656 0.114624 -1.688655
endloop
endfacet
facet normal 0.000000 1.000000 -0.000000
outer loop
vertex -1.071656 0.114624 -1.688655
vertex -1.274850 0.114624 -1.541025
vertex -1.457939 0.114624 -1.369092
endloop
endfacet
facet normal 0.000001 1.000000 0.000001
outer loop
vertex -1.457939 0.114624 -1.369092
vertex -1.618035 0.114624 -1.175569
vertex -1.752614 0.114624 -0.963505
endloop
endfacet
facet normal 0.000000 1.000000 0.000000
outer loop
vertex -1.752614 0.114624 -0.963505
vertex -1.859554 0.114624 -0.736247
vertex -1.937167 0.114624 -0.497377
endloop
endfacet
facet normal -0.000001 1.000000 -0.000000
outer loop
vertex -1.937167 0.114624 -0.497377
vertex -1.984230 0.114624 -0.250664
vertex -2.000000 0.114624 0.000003
endloop
endfacet
facet normal -0.000000 1.000000 0.000000
outer loop
vertex -2.000000 0.114624 0.000003
vertex -1.984229 0.114624 0.250669
vertex -1.937165 0.114624 0.497383
endloop
endfacet
facet normal 0.000000 1.000000 0.000000
outer loop
vertex -1.937165 0.114624 0.497383
vertex -1.859552 0.114624 0.736252
vertex -1.752612 0.114624 0.963510
endloop
endfacet
facet normal 0.000000 1.000000 -0.000001
outer loop
vertex -1.752612 0.114624 0.963510
vertex -1.618032 0.114624 1.175573
vertex -1.457935 0.114624 1.369097
endloop
endfacet
facet normal -0.000000 1.000000 0.000000
outer loop
vertex -1.457935 0.114624 1.369097
vertex -1.274845 0.114624 1.541029
vertex -1.071651 0.114624 1.688658
endloop
endfacet
facet normal 0.000000 1.000000 -0.000001
outer loop
vertex -1.071651 0.114624 1.688658
vertex -0.851555 0.114624 1.809656
vertex -0.618030 0.114624 1.902114
endloop
endfacet
facet normal 0.000000 1.000000 0.000000
outer loop
vertex -0.618030 0.114624 1.902114
vertex -0.374759 0.114624 1.964575
vertex -0.125577 0.114624 1.996054
endloop
endfacet
facet normal 0.000000 1.000000 0.000000
outer loop
vertex -0.125577 0.114624 1.996054
vertex 0.374763 0.114624 1.964574
vertex 0.851559 0.114624 1.809654
endloop
endfacet
facet normal 0.000000 1.000000 0.000000
outer loop
vertex 0.851559 0.114624 1.809654
vertex 1.274848 0.114624 1.541026
vertex 1.618034 0.114624 1.175570
endloop
endfacet
facet normal -0.000000 1.000000 -0.000000
outer loop
vertex 1.618034 0.114624 1.175570
vertex 1.859553 0.114624 0.736249
vertex 1.984229 0.114624 0.250666
endloop
endfacet
facet normal 0.000000 1.000000 0.000000
outer loop
vertex 1.984229 0.114624 0.250666
vertex 1.984229 0.114624 -0.250667
vertex 1.859553 0.114624 -0.736250
endloop
endfacet
facet normal -0.000000 1.000000 0.000000
outer loop
vertex 1.859553 0.114624 -0.736250
vertex 1.618033 0.114624 -1.175572
vertex 1.274847 0.114624 -1.541027
endloop
endfacet
facet normal -0.000000 1.000000 0.000000
outer loop
vertex 1.274847 0.114624 -1.541027
vertex 0.851557 0.114624 -1.809655
vertex 0.374761 0.114624 -1.964575
endloop
endfacet
facet normal 0.000000 1.000000 0.000000
outer loop
vertex 0.374761 0.114624 -1.964575
vertex -0.125583 0.114624 -1.996053
vertex -0.618036 0.114624 -1.902112
endloop
endfacet
facet normal -0.000000 1.000000 -0.000000
outer loop
vertex -0.618036 0.114624 -1.902112
vertex -1.071656 0.114624 -1.688655
vertex -1.457939 0.114624 -1.369092
endloop
endfacet
facet normal -0.000000 1.000000 -0.000000
outer loop
vertex -1.457939 0.114624 -1.369092
vertex -1.752614 0.114624 -0.963505
vertex -1.937167 0.114624 -0.497377
endloop
endfacet
facet normal -0.000000 1.000000 0.000000
outer loop
vertex -1.937167 0.114624 -0.497377
vertex -2.000000 0.114624 0.000003
vertex -1.937165 0.114624 0.497383
endloop
endfacet
facet normal -0.000000 1.000000 0.000000
outer loop
vertex -1.937165 0.114624 0.497383
vertex -1.752612 0.114624 0.963510
vertex -1.457935 0.114624 1.369097
endloop
endfacet
facet normal 0.000000 1.000000 0.000000
outer loop
vertex -1.457935 0.114624 1.369097
vertex -1.071651 0.114624 1.688658
vertex -0.618030 0.114624 1.902114
endloop
endfacet
facet normal -0.000000 1.000000 -0.000000
outer loop
vertex -0.618030 0.114624 1.902114
vertex -0.125577 0.114624 1.996054
vertex 0.851559 0.114624 1.809654
endloop
endfacet
facet normal -0.000000 1.000000 0.000000
outer loop
vertex 0.851559 0.114624 1.809654
vertex 1.618034 0.114624 1.175570
vertex 1.984229 0.114624 0.250666
endloop
endfacet
facet normal -0.000000 1.000000 0.000000
outer loop
vertex 1.984229 0.114624 0.250666
vertex 1.859553 0.114624 -0.736250
vertex 1.274847 0.114624 -1.541027
endloop
endfacet
facet normal 0.000000 1.000000 0.000000
outer loop
vertex 1.274847 0.114624 -1.541027
vertex 0.374761 0.114624 -1.964575
vertex -0.618036 0.114624 -1.902112
endloop
endfacet
facet normal -0.000000 1.000000 0.000000
outer loop
vertex -0.618036 0.114624 -1.902112
vertex -1.457939 0.114624 -1.369092
vertex -1.937167 0.114624 -0.497377
endloop
endfacet
facet normal 0.000000 1.000000 0.000000
outer loop
vertex -1.937167 0.114624 -0.497377
vertex -1.937165 0.114624 0.497383
vertex -1.457935 0.114624 1.369097
endloop
endfacet
facet normal -0.000000 1.000000 0.000000
outer loop
vertex -1.457935 0.114624 1.369097
vertex -0.618030 0.114624 1.902114
vertex 0.851559 0.114624 1.809654
endloop
endfacet
facet normal 0.000000 1.000000 0.000000
outer loop
vertex 0.851559 0.114624 1.809654
vertex 1.984229 0.114624 0.250666
vertex 1.274847 0.114624 -1.541027
endloop
endfacet
facet normal 0.000000 1.000000 0.000000
outer loop
vertex 1.274847 0.114624 -1.541027
vertex -0.618036 0.114624 -1.902112
vertex -1.937167 0.114624 -0.497377
endloop
endfacet
facet normal -0.000000 1.000000 0.000000
outer loop
vertex -1.937167 0.114624 -0.497377
vertex -1.457935 0.114624 1.369097
vertex 0.851559 0.114624 1.809654
endloop
endfacet
facet normal 0.000000 1.000000 0.000000
outer loop
vertex 0.851559 0.114624 1.809654
vertex 1.274847 0.114624 -1.541027
vertex -1.937167 0.114624 -0.497377
endloop
endfacet
endsolid Exported from Blender-2.83.3
