solid Exported from Blender-2.83.3
facet normal 0.425779 0.000000 0.904827
outer loop
vertex -0.922402 1.311029 -2.329726
vertex -1.207120 1.311029 -2.195747
vertex -1.207120 -3.721386 -2.195747
endloop
endfacet
facet normal 0.425779 0.000000 0.904827
outer loop
vertex -0.922402 1.311029 -2.329726
vertex -1.207120 -3.721386 -2.195747
vertex -0.922402 -3.721386 -2.329726
endloop
endfacet
facet normal -0.187379 0.000000 -0.982288
outer loop
vertex 0.314040 1.311029 2.485925
vertex 0.623133 1.311029 2.426963
vertex 0.623133 -3.721386 2.426963
endloop
endfacet
facet normal -0.187379 0.000000 -0.982288
outer loop
vertex 0.314040 1.311029 2.485925
vertex 0.623133 -3.721386 2.426963
vertex 0.314040 -3.721386 2.485925
endloop
endfacet
facet normal 0.309017 0.000000 0.951057
outer loop
vertex -0.623136 1.311029 -2.426963
vertex -0.922402 1.311029 -2.329726
vertex -0.922402 -3.721386 -2.329726
endloop
endfacet
facet normal 0.309017 0.000000 0.951057
outer loop
vertex -0.623136 1.311029 -2.426963
vertex -0.922402 -3.721386 -2.329726
vertex -0.623136 -3.721386 -2.426963
endloop
endfacet
facet normal -0.062789 0.000000 -0.998027
outer loop
vertex 0.000000 1.311029 2.505683
vertex 0.314040 1.311029 2.485925
vertex 0.314040 -3.721386 2.485925
endloop
endfacet
facet normal -0.062790 0.000000 -0.998027
outer loop
vertex 0.000000 1.311029 2.505683
vertex 0.314040 -3.721386 2.485925
vertex 0.000000 -3.721386 2.505683
endloop
endfacet
facet normal 0.187380 0.000000 0.982288
outer loop
vertex -0.314043 1.311029 -2.485925
vertex -0.623136 1.311029 -2.426963
vertex -0.623136 -3.721386 -2.426963
endloop
endfacet
facet normal 0.187379 0.000000 0.982288
outer loop
vertex -0.314043 1.311029 -2.485925
vertex -0.623136 -3.721386 -2.426963
vertex -0.314043 -3.721386 -2.485925
endloop
endfacet
facet normal 0.062791 0.000000 0.998027
outer loop
vertex 0.000002 1.311029 -2.505683
vertex -0.314043 1.311029 -2.485925
vertex -0.314043 -3.721386 -2.485925
endloop
endfacet
facet normal 0.062790 0.000000 0.998027
outer loop
vertex 0.000002 1.311029 -2.505683
vertex -0.314043 -3.721386 -2.485925
vertex 0.000002 -3.721386 -2.505683
endloop
endfacet
facet normal -0.062791 0.000000 0.998027
outer loop
vertex 0.314047 1.311029 -2.485924
vertex 0.000002 1.311029 -2.505683
vertex 0.000002 -3.721386 -2.505683
endloop
endfacet
facet normal -0.062791 0.000000 0.998027
outer loop
vertex 0.314047 1.311029 -2.485924
vertex 0.000002 -3.721386 -2.505683
vertex 0.314047 -3.721386 -2.485924
endloop
endfacet
facet normal -0.187384 0.000000 0.982287
outer loop
vertex 0.623140 1.311029 -2.426961
vertex 0.314047 1.311029 -2.485924
vertex 0.314047 -3.721386 -2.485924
endloop
endfacet
facet normal -0.187381 0.000000 0.982287
outer loop
vertex 0.623140 1.311029 -2.426961
vertex 0.314047 -3.721386 -2.485924
vertex 0.623140 -3.721386 -2.426961
endloop
endfacet
facet normal 0.062789 0.000000 -0.998027
outer loop
vertex -0.314045 1.311029 2.485925
vertex 0.000000 1.311029 2.505683
vertex 0.000000 -3.721386 2.505683
endloop
endfacet
facet normal 0.062791 0.000000 -0.998027
outer loop
vertex -0.314045 1.311029 2.485925
vertex 0.000000 -3.721386 2.505683
vertex -0.314045 -3.721386 2.485925
endloop
endfacet
facet normal -0.309018 0.000000 0.951056
outer loop
vertex 0.922406 1.311029 -2.329724
vertex 0.623140 1.311029 -2.426961
vertex 0.623140 -3.721386 -2.426961
endloop
endfacet
facet normal -0.309018 0.000000 0.951056
outer loop
vertex 0.922406 1.311029 -2.329724
vertex 0.623140 -3.721386 -2.426961
vertex 0.922406 -3.721386 -2.329724
endloop
endfacet
facet normal 0.187381 0.000000 -0.982287
outer loop
vertex -0.623138 1.311029 2.426962
vertex -0.314045 1.311029 2.485925
vertex -0.314045 -3.721386 2.485925
endloop
endfacet
facet normal 0.187381 0.000000 -0.982287
outer loop
vertex -0.623138 1.311029 2.426962
vertex -0.314045 -3.721386 2.485925
vertex -0.623138 -3.721386 2.426962
endloop
endfacet
facet normal -0.425781 0.000000 0.904826
outer loop
vertex 1.207124 1.311029 -2.195745
vertex 0.922406 1.311029 -2.329724
vertex 0.922406 -3.721386 -2.329724
endloop
endfacet
facet normal -0.425779 0.000000 0.904827
outer loop
vertex 1.207124 1.311029 -2.195745
vertex 0.922406 -3.721386 -2.329724
vertex 1.207124 -3.721386 -2.195745
endloop
endfacet
facet normal 0.309016 0.000000 -0.951057
outer loop
vertex -0.922403 1.311029 2.329725
vertex -0.623138 1.311029 2.426962
vertex -0.623138 -3.721386 2.426962
endloop
endfacet
facet normal 0.309017 0.000000 -0.951056
outer loop
vertex -0.922403 1.311029 2.329725
vertex -0.623138 -3.721386 2.426962
vertex -0.922403 -3.721386 2.329725
endloop
endfacet
facet normal -0.535828 0.000000 0.844327
outer loop
vertex 1.472806 1.311029 -2.027138
vertex 1.207124 1.311029 -2.195745
vertex 1.207124 -3.721386 -2.195745
endloop
endfacet
facet normal -0.535827 0.000000 0.844328
outer loop
vertex 1.472806 1.311029 -2.027138
vertex 1.207124 -3.721386 -2.195745
vertex 1.472806 -3.721386 -2.027138
endloop
endfacet
facet normal 0.425779 0.000000 -0.904827
outer loop
vertex -1.207122 1.311029 2.195746
vertex -0.922403 1.311029 2.329725
vertex -0.922403 -3.721386 2.329725
endloop
endfacet
facet normal 0.425781 0.000000 -0.904826
outer loop
vertex -1.207122 1.311029 2.195746
vertex -0.922403 -3.721386 2.329725
vertex -1.207122 -3.721386 2.195746
endloop
endfacet
facet normal -0.637426 0.000000 0.770512
outer loop
vertex 1.715260 1.311029 -1.826562
vertex 1.472806 1.311029 -2.027138
vertex 1.472806 -3.721386 -2.027138
endloop
endfacet
facet normal -0.637424 0.000000 0.770513
outer loop
vertex 1.715260 1.311029 -1.826562
vertex 1.472806 -3.721386 -2.027138
vertex 1.715260 -3.721386 -1.826562
endloop
endfacet
facet normal 0.535828 0.000000 -0.844327
outer loop
vertex -1.472803 1.311029 2.027140
vertex -1.207122 1.311029 2.195746
vertex -1.207122 -3.721386 2.195746
endloop
endfacet
facet normal 0.535826 0.000000 -0.844328
outer loop
vertex -1.472803 1.311029 2.027140
vertex -1.207122 -3.721386 2.195746
vertex -1.472803 -3.721386 2.027140
endloop
endfacet
facet normal -0.728969 0.000000 0.684546
outer loop
vertex 1.930664 1.311029 -1.597180
vertex 1.715260 1.311029 -1.826562
vertex 1.715260 -3.721386 -1.826562
endloop
endfacet
facet normal -0.728969 0.000000 0.684546
outer loop
vertex 1.930664 1.311029 -1.597180
vertex 1.715260 -3.721386 -1.826562
vertex 1.930664 -3.721386 -1.597180
endloop
endfacet
facet normal 0.637424 0.000000 -0.770514
outer loop
vertex -1.715258 1.311029 1.826564
vertex -1.472803 1.311029 2.027140
vertex -1.472803 -3.721386 2.027140
endloop
endfacet
facet normal 0.637424 0.000000 -0.770513
outer loop
vertex -1.715258 1.311029 1.826564
vertex -1.472803 -3.721386 2.027140
vertex -1.715258 -3.721386 1.826564
endloop
endfacet
facet normal -0.809017 0.000000 0.587785
outer loop
vertex 2.115620 1.311029 -1.342609
vertex 1.930664 1.311029 -1.597180
vertex 1.930664 -3.721386 -1.597180
endloop
endfacet
facet normal -0.809017 0.000000 0.587785
outer loop
vertex 2.115620 1.311029 -1.342609
vertex 1.930664 -3.721386 -1.597180
vertex 2.115620 -3.721386 -1.342609
endloop
endfacet
facet normal 0.728969 0.000000 -0.684547
outer loop
vertex -1.930662 1.311029 1.597182
vertex -1.715258 1.311029 1.826564
vertex -1.715258 -3.721386 1.826564
endloop
endfacet
facet normal 0.728968 0.000000 -0.684548
outer loop
vertex -1.930662 1.311029 1.597182
vertex -1.715258 -3.721386 1.826564
vertex -1.930662 -3.721386 1.597182
endloop
endfacet
facet normal -0.876308 0.000000 0.481752
outer loop
vertex 2.267211 1.311029 -1.066865
vertex 2.115620 1.311029 -1.342609
vertex 2.115620 -3.721386 -1.342609
endloop
endfacet
facet normal -0.876308 0.000000 0.481752
outer loop
vertex 2.267211 1.311029 -1.066865
vertex 2.115620 -3.721386 -1.342609
vertex 2.267211 -3.721386 -1.066865
endloop
endfacet
facet normal 0.809017 0.000000 -0.587785
outer loop
vertex -2.115618 1.311029 1.342612
vertex -1.930662 1.311029 1.597182
vertex -1.930662 -3.721386 1.597182
endloop
endfacet
facet normal 0.809017 0.000000 -0.587785
outer loop
vertex -2.115618 1.311029 1.342612
vertex -1.930662 -3.721386 1.597182
vertex -2.115618 -3.721386 1.342612
endloop
endfacet
facet normal -0.929777 0.000000 0.368123
outer loop
vertex 2.383047 1.311029 -0.774295
vertex 2.267211 1.311029 -1.066865
vertex 2.267211 -3.721386 -1.066865
endloop
endfacet
facet normal -0.929777 0.000000 0.368124
outer loop
vertex 2.383047 1.311029 -0.774295
vertex 2.267211 -3.721386 -1.066865
vertex 2.383047 -3.721386 -0.774295
endloop
endfacet
facet normal 0.876307 0.000000 -0.481753
outer loop
vertex -2.267210 1.311029 1.066868
vertex -2.115618 1.311029 1.342612
vertex -2.115618 -3.721386 1.342612
endloop
endfacet
facet normal 0.876307 0.000000 -0.481753
outer loop
vertex -2.267210 1.311029 1.066868
vertex -2.115618 -3.721386 1.342612
vertex -2.267210 -3.721386 1.066868
endloop
endfacet
facet normal -0.968583 0.000000 0.248689
outer loop
vertex 2.461301 1.311029 -0.469515
vertex 2.383047 1.311029 -0.774295
vertex 2.383047 -3.721386 -0.774295
endloop
endfacet
facet normal -0.968583 0.000000 0.248689
outer loop
vertex 2.461301 1.311029 -0.469515
vertex 2.383047 -3.721386 -0.774295
vertex 2.461301 -3.721386 -0.469515
endloop
endfacet
facet normal 0.929776 0.000000 -0.368125
outer loop
vertex -2.383046 1.311029 0.774298
vertex -2.267210 1.311029 1.066868
vertex -2.267210 -3.721386 1.066868
endloop
endfacet
facet normal 0.929777 0.000000 -0.368124
outer loop
vertex -2.383046 1.311029 0.774298
vertex -2.267210 -3.721386 1.066868
vertex -2.383046 -3.721386 0.774298
endloop
endfacet
facet normal -0.992115 0.000000 0.125331
outer loop
vertex 2.500738 1.311029 -0.157330
vertex 2.461301 1.311029 -0.469515
vertex 2.461301 -3.721386 -0.469515
endloop
endfacet
facet normal -0.992115 0.000000 0.125331
outer loop
vertex 2.500738 1.311029 -0.157330
vertex 2.461301 -3.721386 -0.469515
vertex 2.500738 -3.721386 -0.157330
endloop
endfacet
facet normal 0.968583 0.000000 -0.248690
outer loop
vertex -2.461300 1.311029 0.469518
vertex -2.383046 1.311029 0.774298
vertex -2.383046 -3.721386 0.774298
endloop
endfacet
facet normal 0.968583 0.000000 -0.248689
outer loop
vertex -2.461300 1.311029 0.469518
vertex -2.383046 -3.721386 0.774298
vertex -2.461300 -3.721386 0.469518
endloop
endfacet
facet normal -1.000000 0.000000 -0.000001
outer loop
vertex 2.500738 1.311029 0.157337
vertex 2.500738 1.311029 -0.157330
vertex 2.500738 -3.721386 -0.157330
endloop
endfacet
facet normal -1.000000 0.000000 -0.000001
outer loop
vertex 2.500738 1.311029 0.157337
vertex 2.500738 -3.721386 -0.157330
vertex 2.500738 -3.721386 0.157337
endloop
endfacet
facet normal 0.992115 0.000000 -0.125334
outer loop
vertex -2.500738 1.311029 0.157332
vertex -2.461300 1.311029 0.469518
vertex -2.461300 -3.721386 0.469518
endloop
endfacet
facet normal 0.992115 0.000000 -0.125334
outer loop
vertex -2.500738 1.311029 0.157332
vertex -2.461300 -3.721386 0.469518
vertex -2.500738 -3.721386 0.157332
endloop
endfacet
facet normal -0.992115 0.000000 -0.125334
outer loop
vertex 2.461300 1.311029 0.469522
vertex 2.500738 1.311029 0.157337
vertex 2.500738 -3.721386 0.157337
endloop
endfacet
facet normal -0.992115 0.000000 -0.125334
outer loop
vertex 2.461300 1.311029 0.469522
vertex 2.500738 -3.721386 0.157337
vertex 2.461300 -3.721386 0.469522
endloop
endfacet
facet normal 1.000000 0.000000 0.000000
outer loop
vertex -2.500738 1.311029 -0.157334
vertex -2.500738 1.311029 0.157332
vertex -2.500738 -3.721386 0.157332
endloop
endfacet
facet normal 1.000000 0.000000 0.000000
outer loop
vertex -2.500738 1.311029 -0.157334
vertex -2.500738 -3.721386 0.157332
vertex -2.500738 -3.721386 -0.157334
endloop
endfacet
facet normal -0.968583 0.000000 -0.248692
outer loop
vertex 2.383045 1.311029 0.774302
vertex 2.461300 1.311029 0.469522
vertex 2.461300 -3.721386 0.469522
endloop
endfacet
facet normal -0.968583 0.000000 -0.248692
outer loop
vertex 2.383045 1.311029 0.774302
vertex 2.461300 -3.721386 0.469522
vertex 2.383045 -3.721386 0.774302
endloop
endfacet
facet normal 0.992115 0.000000 0.125334
outer loop
vertex -2.461300 1.311029 -0.469519
vertex -2.500738 1.311029 -0.157334
vertex -2.500738 -3.721386 -0.157334
endloop
endfacet
facet normal 0.992115 0.000000 0.125334
outer loop
vertex -2.461300 1.311029 -0.469519
vertex -2.500738 -3.721386 -0.157334
vertex -2.461300 -3.721386 -0.469519
endloop
endfacet
facet normal -0.929776 0.000000 -0.368127
outer loop
vertex 2.267208 1.311029 1.066872
vertex 2.383045 1.311029 0.774302
vertex 2.383045 -3.721386 0.774302
endloop
endfacet
facet normal -0.929776 0.000000 -0.368127
outer loop
vertex 2.267208 1.311029 1.066872
vertex 2.383045 -3.721386 0.774302
vertex 2.267208 -3.721386 1.066872
endloop
endfacet
facet normal 0.968583 0.000000 0.248690
outer loop
vertex -2.383045 1.311029 -0.774300
vertex -2.461300 1.311029 -0.469519
vertex -2.461300 -3.721386 -0.469519
endloop
endfacet
facet normal 0.968583 0.000000 0.248690
outer loop
vertex -2.383045 1.311029 -0.774300
vertex -2.461300 -3.721386 -0.469519
vertex -2.383045 -3.721386 -0.774300
endloop
endfacet
facet normal -0.876306 0.000000 -0.481755
outer loop
vertex 2.115616 1.311029 1.342616
vertex 2.267208 1.311029 1.066872
vertex 2.267208 -3.721386 1.066872
endloop
endfacet
facet normal -0.876306 0.000000 -0.481755
outer loop
vertex 2.115616 1.311029 1.342616
vertex 2.267208 -3.721386 1.066872
vertex 2.115616 -3.721386 1.342616
endloop
endfacet
facet normal 0.929776 0.000000 0.368125
outer loop
vertex -2.267209 1.311029 -1.066869
vertex -2.383045 1.311029 -0.774300
vertex -2.383045 -3.721386 -0.774300
endloop
endfacet
facet normal 0.929776 0.000000 0.368125
outer loop
vertex -2.267209 1.311029 -1.066869
vertex -2.383045 -3.721386 -0.774300
vertex -2.267209 -3.721386 -1.066869
endloop
endfacet
facet normal -0.809016 0.000000 -0.587787
outer loop
vertex 1.930659 1.311029 1.597185
vertex 2.115616 1.311029 1.342616
vertex 2.115616 -3.721386 1.342616
endloop
endfacet
facet normal -0.809016 0.000000 -0.587787
outer loop
vertex 1.930659 1.311029 1.597185
vertex 2.115616 -3.721386 1.342616
vertex 1.930659 -3.721386 1.597185
endloop
endfacet
facet normal 0.876307 0.000000 0.481754
outer loop
vertex -2.115617 1.311029 -1.342613
vertex -2.267209 1.311029 -1.066869
vertex -2.267209 -3.721386 -1.066869
endloop
endfacet
facet normal 0.876306 0.000000 0.481755
outer loop
vertex -2.115617 1.311029 -1.342613
vertex -2.267209 -3.721386 -1.066869
vertex -2.115617 -3.721386 -1.342613
endloop
endfacet
facet normal -0.728967 0.000000 -0.684548
outer loop
vertex 1.715255 1.311029 1.826567
vertex 1.930659 1.311029 1.597185
vertex 1.930659 -3.721386 1.597185
endloop
endfacet
facet normal -0.728968 0.000000 -0.684548
outer loop
vertex 1.715255 1.311029 1.826567
vertex 1.930659 -3.721386 1.597185
vertex 1.715255 -3.721386 1.826567
endloop
endfacet
facet normal 0.809017 0.000000 0.587785
outer loop
vertex -1.930661 1.311029 -1.597183
vertex -2.115617 1.311029 -1.342613
vertex -2.115617 -3.721386 -1.342613
endloop
endfacet
facet normal 0.809017 0.000000 0.587786
outer loop
vertex -1.930661 1.311029 -1.597183
vertex -2.115617 -3.721386 -1.342613
vertex -1.930661 -3.721386 -1.597183
endloop
endfacet
facet normal -0.637422 0.000000 -0.770515
outer loop
vertex 1.472800 1.311029 2.027143
vertex 1.715255 1.311029 1.826567
vertex 1.715255 -3.721386 1.826567
endloop
endfacet
facet normal -0.637422 0.000000 -0.770515
outer loop
vertex 1.472800 1.311029 2.027143
vertex 1.715255 -3.721386 1.826567
vertex 1.472800 -3.721386 2.027143
endloop
endfacet
facet normal 0.728968 0.000000 0.684547
outer loop
vertex -1.715257 1.311029 -1.826565
vertex -1.930661 1.311029 -1.597183
vertex -1.930661 -3.721386 -1.597183
endloop
endfacet
facet normal 0.728968 0.000000 0.684547
outer loop
vertex -1.715257 1.311029 -1.826565
vertex -1.930661 -3.721386 -1.597183
vertex -1.715257 -3.721386 -1.826565
endloop
endfacet
facet normal -0.535825 0.000000 -0.844329
outer loop
vertex 1.207118 1.311029 2.195749
vertex 1.472800 1.311029 2.027143
vertex 1.472800 -3.721386 2.027143
endloop
endfacet
facet normal -0.535826 0.000000 -0.844329
outer loop
vertex 1.207118 1.311029 2.195749
vertex 1.472800 -3.721386 2.027143
vertex 1.207118 -3.721386 2.195749
endloop
endfacet
facet normal 0.637423 0.000000 0.770514
outer loop
vertex -1.472802 1.311029 -2.027141
vertex -1.715257 1.311029 -1.826565
vertex -1.715257 -3.721386 -1.826565
endloop
endfacet
facet normal 0.637424 0.000000 0.770514
outer loop
vertex -1.472802 1.311029 -2.027141
vertex -1.715257 -3.721386 -1.826565
vertex -1.472802 -3.721386 -2.027141
endloop
endfacet
facet normal -0.425778 0.000000 -0.904828
outer loop
vertex 0.922399 1.311029 2.329726
vertex 1.207118 1.311029 2.195749
vertex 1.207118 -3.721386 2.195749
endloop
endfacet
facet normal -0.425776 0.000000 -0.904829
outer loop
vertex 0.922399 1.311029 2.329726
vertex 1.207118 -3.721386 2.195749
vertex 0.922399 -3.721386 2.329726
endloop
endfacet
facet normal 0.535827 0.000000 0.844328
outer loop
vertex -1.207120 1.311029 -2.195747
vertex -1.472802 1.311029 -2.027141
vertex -1.472802 -3.721386 -2.027141
endloop
endfacet
facet normal 0.535826 0.000000 0.844329
outer loop
vertex -1.207120 1.311029 -2.195747
vertex -1.472802 -3.721386 -2.027141
vertex -1.207120 -3.721386 -2.195747
endloop
endfacet
facet normal -0.309017 0.000000 -0.951057
outer loop
vertex 0.623133 1.311029 2.426963
vertex 0.922399 1.311029 2.329726
vertex 0.922399 -3.721386 2.329726
endloop
endfacet
facet normal -0.309016 0.000000 -0.951057
outer loop
vertex 0.623133 1.311029 2.426963
vertex 0.922399 -3.721386 2.329726
vertex 0.623133 -3.721386 2.426963
endloop
endfacet
endsolid Exported from Blender-2.83.3
