solid Exported from Blender-2.83.3
facet normal -0.000000 -1.000000 0.000001
outer loop
vertex 2.314508 1.321624 -0.979081
vertex -1.016972 1.321624 -2.298111
vertex -0.964595 1.321624 -2.322758
endloop
endfacet
facet normal -0.000004 -1.000000 0.000000
outer loop
vertex -0.964595 1.321624 -2.322758
vertex -0.926703 1.321624 -2.340589
vertex -0.665870 1.321624 -2.425338
endloop
endfacet
facet normal -0.000016 -1.000000 -0.000083
outer loop
vertex -0.665870 1.321624 -2.425338
vertex -0.626042 1.321624 -2.438279
vertex -0.356643 1.321624 -2.489669
endloop
endfacet
facet normal -0.000006 -1.000000 -0.000124
outer loop
vertex -0.356643 1.321624 -2.489669
vertex -0.315508 1.321624 -2.497516
vertex -0.041793 1.321624 -2.514737
endloop
endfacet
facet normal 0.000004 -1.000000 -0.000083
outer loop
vertex -0.041793 1.321624 -2.514737
vertex 0.000002 1.321624 -2.517366
vertex 0.273717 1.321624 -2.500145
endloop
endfacet
facet normal 0.000018 -1.000000 -0.000083
outer loop
vertex 0.273717 1.321624 -2.500145
vertex 0.315512 1.321624 -2.497516
vertex 0.584910 1.321624 -2.446125
endloop
endfacet
facet normal 0.000031 -1.000000 -0.000124
outer loop
vertex 0.584910 1.321624 -2.446125
vertex 0.626046 1.321624 -2.438278
vertex 0.886879 1.321624 -2.353528
endloop
endfacet
facet normal 0.000032 -1.000000 -0.000041
outer loop
vertex 0.886879 1.321624 -2.353528
vertex 0.926707 1.321624 -2.340587
vertex 1.174861 1.321625 -2.223814
endloop
endfacet
facet normal -0.000109 -1.000000 0.000166
outer loop
vertex 1.174861 1.321625 -2.223814
vertex 1.212753 1.321624 -2.205984
vertex 1.444315 1.321625 -2.059030
endloop
endfacet
facet normal -0.000131 -1.000000 0.000207
outer loop
vertex 1.444315 1.321625 -2.059030
vertex 1.479673 1.321624 -2.036591
vertex 1.690991 1.321625 -1.861773
endloop
endfacet
facet normal -0.000150 -1.000000 0.000124
outer loop
vertex 1.690991 1.321625 -1.861773
vertex 1.723258 1.321624 -1.835079
vertex 1.910999 1.321625 -1.635155
endloop
endfacet
facet normal -0.000167 -1.000000 0.000124
outer loop
vertex 1.910999 1.321625 -1.635155
vertex 1.939666 1.321624 -1.604627
vertex 2.100869 1.321625 -1.382749
endloop
endfacet
facet normal -0.000182 -1.000000 0.000104
outer loop
vertex 2.100869 1.321625 -1.382749
vertex 2.125484 1.321624 -1.348870
vertex 2.257608 1.321625 -1.108537
endloop
endfacet
facet normal -0.000169 -1.000000 0.000057
outer loop
vertex 2.257608 1.321625 -1.108537
vertex 2.277782 1.321624 -1.071840
vertex 2.314508 1.321624 -0.979081
endloop
endfacet
facet normal -0.000001 -1.000000 0.000000
outer loop
vertex 2.314508 1.321624 -0.979081
vertex -0.964595 1.321624 -2.322758
vertex -0.665870 1.321624 -2.425338
endloop
endfacet
facet normal 0.000000 -1.000000 0.000005
outer loop
vertex -0.665870 1.321624 -2.425338
vertex -0.356643 1.321624 -2.489669
vertex -0.041793 1.321624 -2.514737
endloop
endfacet
facet normal 0.000000 -1.000000 -0.000005
outer loop
vertex -0.041793 1.321624 -2.514737
vertex 0.273717 1.321624 -2.500145
vertex 0.584910 1.321624 -2.446125
endloop
endfacet
facet normal -0.000009 -1.000000 0.000033
outer loop
vertex 0.584910 1.321624 -2.446125
vertex 0.886879 1.321624 -2.353528
vertex 1.174861 1.321625 -2.223814
endloop
endfacet
facet normal 0.000000 -1.000000 0.000000
outer loop
vertex 1.174861 1.321625 -2.223814
vertex 1.444315 1.321625 -2.059030
vertex 1.690991 1.321625 -1.861773
endloop
endfacet
facet normal 0.000000 -1.000000 0.000005
outer loop
vertex 1.690991 1.321625 -1.861773
vertex 1.910999 1.321625 -1.635155
vertex 2.100869 1.321625 -1.382749
endloop
endfacet
facet normal 0.000056 -1.000000 -0.000032
outer loop
vertex 2.100869 1.321625 -1.382749
vertex 2.257608 1.321625 -1.108537
vertex 2.314508 1.321624 -0.979081
endloop
endfacet
facet normal 0.000000 -1.000000 0.000000
outer loop
vertex 2.314508 1.321624 -0.979081
vertex -0.665870 1.321624 -2.425338
vertex -0.041793 1.321624 -2.514737
endloop
endfacet
facet normal -0.000001 -1.000000 0.000007
outer loop
vertex -0.041793 1.321624 -2.514737
vertex 0.584910 1.321624 -2.446125
vertex 1.174861 1.321625 -2.223814
endloop
endfacet
facet normal 0.000000 -1.000000 0.000000
outer loop
vertex 1.174861 1.321625 -2.223814
vertex 1.690991 1.321625 -1.861773
vertex 2.100869 1.321625 -1.382749
endloop
endfacet
facet normal 0.000003 -1.000000 -0.000004
outer loop
vertex 2.100869 1.321625 -1.382749
vertex 2.314508 1.321624 -0.979081
vertex -0.041793 1.321624 -2.514737
endloop
endfacet
facet normal 0.000001 -1.000000 -0.000001
outer loop
vertex -0.041793 1.321624 -2.514737
vertex 1.174861 1.321625 -2.223814
vertex 2.100869 1.321625 -1.382749
endloop
endfacet
facet normal 0.000008 -1.000000 0.000015
outer loop
vertex 2.512399 1.321624 -0.094364
vertex -0.866122 1.321624 2.360272
vertex -0.886877 1.321624 2.353529
endloop
endfacet
facet normal -0.000019 -1.000000 0.000041
outer loop
vertex -0.886877 1.321624 2.353529
vertex -0.926704 1.321624 2.340588
vertex -1.174859 1.321624 2.223815
endloop
endfacet
facet normal 0.000000 -1.000000 0.000000
outer loop
vertex -1.174859 1.321624 2.223815
vertex -1.212751 1.321624 2.205985
vertex -1.444312 1.321624 2.059031
endloop
endfacet
facet normal 0.000000 -1.000000 0.000000
outer loop
vertex -1.444312 1.321624 2.059031
vertex -1.479671 1.321624 2.036592
vertex -1.646387 1.321624 1.898673
endloop
endfacet
facet normal -0.000000 -1.000000 -0.000000
outer loop
vertex -1.646387 1.321624 1.898673
vertex -1.871370 1.321624 -1.677356
vertex -1.751922 1.321624 -1.804555
endloop
endfacet
facet normal 0.000000 -1.000000 -0.000041
outer loop
vertex -1.751922 1.321624 -1.804555
vertex -1.723255 1.321624 -1.835082
vertex -1.511937 1.321624 -2.009899
endloop
endfacet
facet normal 0.000000 -1.000000 0.000000
outer loop
vertex -1.511937 1.321624 -2.009899
vertex -1.479670 1.321624 -2.036593
vertex -1.248107 1.321624 -2.183547
endloop
endfacet
facet normal 0.000000 -1.000000 -0.000052
outer loop
vertex -1.248107 1.321624 -2.183547
vertex -1.212749 1.321624 -2.205986
vertex -1.016972 1.321624 -2.298111
endloop
endfacet
facet normal -0.000000 -1.000000 0.000000
outer loop
vertex -1.016972 1.321624 -2.298111
vertex 2.314508 1.321624 -0.979081
vertex 2.378742 1.321624 -0.816842
endloop
endfacet
facet normal 0.000000 -1.000000 0.000000
outer loop
vertex 2.378742 1.321624 -0.816842
vertex 2.394159 1.321624 -0.777906
vertex 2.462363 1.321624 -0.512266
endloop
endfacet
facet normal 0.000000 -1.000000 0.000000
outer loop
vertex 2.462363 1.321624 -0.512266
vertex 2.472778 1.321624 -0.471704
vertex 2.507151 1.321624 -0.199610
endloop
endfacet
facet normal 0.000000 -1.000000 0.000001
outer loop
vertex 2.507151 1.321624 -0.199610
vertex 2.512399 1.321624 -0.158063
vertex 2.512399 1.321624 -0.094364
endloop
endfacet
facet normal -0.000000 -1.000000 -0.000001
outer loop
vertex 2.512399 1.321624 -0.094364
vertex -0.886877 1.321624 2.353529
vertex -1.174859 1.321624 2.223815
endloop
endfacet
facet normal 0.000000 -1.000000 0.000006
outer loop
vertex -1.174859 1.321624 2.223815
vertex -1.444312 1.321624 2.059031
vertex -1.646387 1.321624 1.898673
endloop
endfacet
facet normal -0.000000 -1.000000 -0.000000
outer loop
vertex -1.646387 1.321624 1.898673
vertex -1.751922 1.321624 -1.804555
vertex -1.511937 1.321624 -2.009899
endloop
endfacet
facet normal 0.000000 -1.000000 0.000000
outer loop
vertex -1.511937 1.321624 -2.009899
vertex -1.248107 1.321624 -2.183547
vertex -1.016972 1.321624 -2.298111
endloop
endfacet
facet normal -0.000000 -1.000000 0.000001
outer loop
vertex -1.016972 1.321624 -2.298111
vertex 2.378742 1.321624 -0.816842
vertex 2.462363 1.321624 -0.512266
endloop
endfacet
facet normal 0.000000 -1.000000 -0.000002
outer loop
vertex 2.462363 1.321624 -0.512266
vertex 2.507151 1.321624 -0.199610
vertex 2.512399 1.321624 -0.094364
endloop
endfacet
facet normal 0.000000 -1.000000 0.000000
outer loop
vertex 2.512399 1.321624 -0.094364
vertex -1.174859 1.321624 2.223815
vertex -1.646387 1.321624 1.898673
endloop
endfacet
facet normal -0.000000 -1.000000 -0.000000
outer loop
vertex -1.646387 1.321624 1.898673
vertex -1.511937 1.321624 -2.009899
vertex -1.016972 1.321624 -2.298111
endloop
endfacet
facet normal -0.000000 -1.000000 0.000000
outer loop
vertex -1.016972 1.321624 -2.298111
vertex 2.462363 1.321624 -0.512266
vertex 2.512399 1.321624 -0.094364
endloop
endfacet
facet normal -0.000000 -1.000000 -0.000000
outer loop
vertex -1.646387 1.321624 1.898673
vertex -1.016972 1.321624 -2.298111
vertex 2.512399 1.321624 -0.094364
endloop
endfacet
facet normal 0.000001 -1.000000 0.000000
outer loop
vertex -0.866122 1.321624 2.360272
vertex 2.512399 1.321624 -0.094364
vertex 2.512399 1.321624 0.116193
endloop
endfacet
facet normal -0.000052 -1.000000 -0.000010
outer loop
vertex 2.512399 1.321624 0.116193
vertex 2.512399 1.321624 0.158070
vertex 2.478025 1.321624 0.430164
endloop
endfacet
facet normal -0.000051 -1.000000 0.000000
outer loop
vertex 2.478025 1.321624 0.430164
vertex 2.472776 1.321624 0.471711
vertex 2.404571 1.321624 0.737351
endloop
endfacet
facet normal -0.000046 -1.000000 -0.000041
outer loop
vertex 2.404571 1.321624 0.737351
vertex 2.394156 1.321624 0.777913
vertex 2.293195 1.321624 1.032910
endloop
endfacet
facet normal -0.000023 -1.000000 -0.000041
outer loop
vertex 2.293195 1.321624 1.032910
vertex 2.277779 1.321624 1.071846
vertex 2.145655 1.321624 1.312178
endloop
endfacet
facet normal -0.000021 -1.000000 -0.000021
outer loop
vertex 2.145655 1.321624 1.312178
vertex 2.125480 1.321624 1.348876
vertex 1.964276 1.321624 1.570753
endloop
endfacet
facet normal -0.000019 -1.000000 -0.000021
outer loop
vertex 1.964276 1.321624 1.570753
vertex 1.939661 1.321624 1.604633
vertex 1.751920 1.321624 1.804557
endloop
endfacet
facet normal -0.000025 -1.000000 0.000000
outer loop
vertex 1.751920 1.321624 1.804557
vertex 1.723253 1.321624 1.835084
vertex 1.511934 1.321625 2.009901
endloop
endfacet
facet normal -0.000058 -1.000000 -0.000083
outer loop
vertex 1.511934 1.321625 2.009901
vertex 1.479667 1.321624 2.036595
vertex 1.248105 1.321625 2.183548
endloop
endfacet
facet normal -0.000044 -1.000000 -0.000083
outer loop
vertex 1.248105 1.321625 2.183548
vertex 1.212746 1.321624 2.205987
vertex 0.964592 1.321624 2.322759
endloop
endfacet
facet normal -0.000018 -1.000000 -0.000041
outer loop
vertex 0.964592 1.321624 2.322759
vertex 0.926700 1.321624 2.340590
vertex 0.665867 1.321624 2.425339
endloop
endfacet
facet normal 0.000000 -1.000000 0.000000
outer loop
vertex 0.665867 1.321624 2.425339
vertex 0.626039 1.321624 2.438280
vertex 0.356640 1.321624 2.489670
endloop
endfacet
facet normal -0.000003 -1.000000 0.000000
outer loop
vertex 0.356640 1.321624 2.489670
vertex 0.315505 1.321624 2.497517
vertex 0.041794 1.321624 2.514737
endloop
endfacet
facet normal 0.000006 -1.000000 -0.000166
outer loop
vertex 0.041794 1.321624 2.514737
vertex 0.000000 1.321624 2.517366
vertex -0.273715 1.321624 2.500146
endloop
endfacet
facet normal 0.000022 -1.000000 -0.000166
outer loop
vertex -0.273715 1.321624 2.500146
vertex -0.315510 1.321624 2.497516
vertex -0.584908 1.321624 2.446126
endloop
endfacet
facet normal 0.000037 -1.000000 -0.000135
outer loop
vertex -0.584908 1.321624 2.446126
vertex -0.626044 1.321624 2.438278
vertex -0.866122 1.321624 2.360272
endloop
endfacet
facet normal 0.000000 -1.000000 0.000001
outer loop
vertex -0.866122 1.321624 2.360272
vertex 2.512399 1.321624 0.116193
vertex 2.478025 1.321624 0.430164
endloop
endfacet
facet normal 0.000003 -1.000000 0.000000
outer loop
vertex 2.478025 1.321624 0.430164
vertex 2.404571 1.321624 0.737351
vertex 2.293195 1.321624 1.032910
endloop
endfacet
facet normal 0.000000 -1.000000 -0.000002
outer loop
vertex 2.293195 1.321624 1.032910
vertex 2.145655 1.321624 1.312178
vertex 1.964276 1.321624 1.570753
endloop
endfacet
facet normal -0.000007 -1.000000 -0.000005
outer loop
vertex 1.964276 1.321624 1.570753
vertex 1.751920 1.321624 1.804557
vertex 1.511934 1.321625 2.009901
endloop
endfacet
facet normal 0.000002 -1.000000 -0.000005
outer loop
vertex 1.511934 1.321625 2.009901
vertex 1.248105 1.321625 2.183548
vertex 0.964592 1.321624 2.322759
endloop
endfacet
facet normal -0.000003 -1.000000 -0.000014
outer loop
vertex 0.964592 1.321624 2.322759
vertex 0.665867 1.321624 2.425339
vertex 0.356640 1.321624 2.489670
endloop
endfacet
facet normal -0.000001 -1.000000 0.000029
outer loop
vertex 0.356640 1.321624 2.489670
vertex 0.041794 1.321624 2.514737
vertex -0.273715 1.321624 2.500146
endloop
endfacet
facet normal -0.000002 -1.000000 0.000000
outer loop
vertex -0.273715 1.321624 2.500146
vertex -0.584908 1.321624 2.446126
vertex -0.866122 1.321624 2.360272
endloop
endfacet
facet normal -0.000000 -1.000000 -0.000001
outer loop
vertex -0.866122 1.321624 2.360272
vertex 2.478025 1.321624 0.430164
vertex 2.293195 1.321624 1.032910
endloop
endfacet
facet normal -0.000002 -1.000000 -0.000001
outer loop
vertex 2.293195 1.321624 1.032910
vertex 1.964276 1.321624 1.570753
vertex 1.511934 1.321625 2.009901
endloop
endfacet
facet normal 0.000002 -1.000000 0.000002
outer loop
vertex 1.511934 1.321625 2.009901
vertex 0.964592 1.321624 2.322759
vertex 0.356640 1.321624 2.489670
endloop
endfacet
facet normal -0.000001 -1.000000 0.000005
outer loop
vertex 0.356640 1.321624 2.489670
vertex -0.273715 1.321624 2.500146
vertex -0.866122 1.321624 2.360272
endloop
endfacet
facet normal 0.000000 -1.000000 0.000000
outer loop
vertex -0.866122 1.321624 2.360272
vertex 2.293195 1.321624 1.032910
vertex 1.511934 1.321625 2.009901
endloop
endfacet
facet normal -0.000000 -1.000000 -0.000001
outer loop
vertex 1.511934 1.321625 2.009901
vertex 0.356640 1.321624 2.489670
vertex -0.866122 1.321624 2.360272
endloop
endfacet
facet normal 0.000011 -1.000000 -0.000001
outer loop
vertex -1.871370 1.321624 -1.677356
vertex -1.646387 1.321624 1.898673
vertex -1.690989 1.321624 1.861775
endloop
endfacet
facet normal -0.000075 -1.000000 0.000083
outer loop
vertex -1.690989 1.321624 1.861775
vertex -1.723256 1.321624 1.835081
vertex -1.910997 1.321624 1.635157
endloop
endfacet
facet normal -0.000084 -1.000000 0.000083
outer loop
vertex -1.910997 1.321624 1.635157
vertex -1.939664 1.321624 1.604630
vertex -2.100868 1.321624 1.382752
endloop
endfacet
facet normal -0.000080 -1.000000 0.000062
outer loop
vertex -2.100868 1.321624 1.382752
vertex -2.125483 1.321624 1.348872
vertex -2.257607 1.321624 1.108540
endloop
endfacet
facet normal -0.000009 -1.000000 0.000000
outer loop
vertex -2.257607 1.321624 1.108540
vertex -2.277781 1.321624 1.071842
vertex -2.378742 1.321624 0.816845
endloop
endfacet
facet normal -0.000076 -1.000000 0.000010
outer loop
vertex -2.378742 1.321624 0.816845
vertex -2.394158 1.321624 0.777909
vertex -2.462362 1.321624 0.512269
endloop
endfacet
facet normal -0.000078 -1.000000 0.000010
outer loop
vertex -2.462362 1.321624 0.512269
vertex -2.472777 1.321624 0.471707
vertex -2.507150 1.321624 0.199613
endloop
endfacet
facet normal -0.000078 -1.000000 0.000001
outer loop
vertex -2.507150 1.321624 0.199613
vertex -2.512399 1.321624 0.158066
vertex -2.512399 1.321624 -0.116190
endloop
endfacet
facet normal -0.000078 -1.000000 -0.000010
outer loop
vertex -2.512399 1.321624 -0.116190
vertex -2.512399 1.321624 -0.158068
vertex -2.478025 1.321624 -0.430161
endloop
endfacet
facet normal -0.000076 -1.000000 -0.000010
outer loop
vertex -2.478025 1.321624 -0.430161
vertex -2.472777 1.321624 -0.471708
vertex -2.404572 1.321624 -0.737348
endloop
endfacet
facet normal -0.000070 -1.000000 -0.000021
outer loop
vertex -2.404572 1.321624 -0.737348
vertex -2.394157 1.321624 -0.777910
vertex -2.293197 1.321624 -1.032907
endloop
endfacet
facet normal -0.000046 -1.000000 -0.000021
outer loop
vertex -2.293197 1.321624 -1.032907
vertex -2.277781 1.321624 -1.071843
vertex -2.145657 1.321624 -1.312176
endloop
endfacet
facet normal -0.000043 -1.000000 -0.000041
outer loop
vertex -2.145657 1.321624 -1.312176
vertex -2.125482 1.321624 -1.348873
vertex -1.964278 1.321624 -1.570751
endloop
endfacet
facet normal -0.000050 -1.000000 -0.000057
outer loop
vertex -1.964278 1.321624 -1.570751
vertex -1.939664 1.321624 -1.604631
vertex -1.871370 1.321624 -1.677356
endloop
endfacet
facet normal 0.000000 -1.000000 -0.000000
outer loop
vertex -1.871370 1.321624 -1.677356
vertex -1.690989 1.321624 1.861775
vertex -1.910997 1.321624 1.635157
endloop
endfacet
facet normal 0.000010 -1.000000 -0.000007
outer loop
vertex -1.910997 1.321624 1.635157
vertex -2.100868 1.321624 1.382752
vertex -2.257607 1.321624 1.108540
endloop
endfacet
facet normal 0.000009 -1.000000 -0.000002
outer loop
vertex -2.257607 1.321624 1.108540
vertex -2.378742 1.321624 0.816845
vertex -2.462362 1.321624 0.512269
endloop
endfacet
facet normal 0.000000 -1.000000 -0.000000
outer loop
vertex -2.462362 1.321624 0.512269
vertex -2.507150 1.321624 0.199613
vertex -2.512399 1.321624 -0.116190
endloop
endfacet
facet normal 0.000000 -1.000000 0.000000
outer loop
vertex -2.512399 1.321624 -0.116190
vertex -2.478025 1.321624 -0.430161
vertex -2.404572 1.321624 -0.737348
endloop
endfacet
facet normal -0.000003 -1.000000 -0.000002
outer loop
vertex -2.404572 1.321624 -0.737348
vertex -2.293197 1.321624 -1.032907
vertex -2.145657 1.321624 -1.312176
endloop
endfacet
facet normal 0.000020 -1.000000 0.000016
outer loop
vertex -2.145657 1.321624 -1.312176
vertex -1.964278 1.321624 -1.570751
vertex -1.871370 1.321624 -1.677356
endloop
endfacet
facet normal -0.000001 -1.000000 -0.000000
outer loop
vertex -1.871370 1.321624 -1.677356
vertex -1.910997 1.321624 1.635157
vertex -2.257607 1.321624 1.108540
endloop
endfacet
facet normal 0.000002 -1.000000 -0.000000
outer loop
vertex -2.257607 1.321624 1.108540
vertex -2.462362 1.321624 0.512269
vertex -2.512399 1.321624 -0.116190
endloop
endfacet
facet normal 0.000001 -1.000000 0.000000
outer loop
vertex -2.512399 1.321624 -0.116190
vertex -2.404572 1.321624 -0.737348
vertex -2.145657 1.321624 -1.312176
endloop
endfacet
facet normal 0.000002 -1.000000 0.000000
outer loop
vertex -2.145657 1.321624 -1.312176
vertex -1.871370 1.321624 -1.677356
vertex -2.257607 1.321624 1.108540
endloop
endfacet
facet normal 0.000001 -1.000000 0.000000
outer loop
vertex -2.257607 1.321624 1.108540
vertex -2.512399 1.321624 -0.116190
vertex -2.145657 1.321624 -1.312176
endloop
endfacet
endsolid Exported from Blender-2.83.3
