solid Exported from Blender-2.83.3
facet normal 0.000000 -1.000000 -0.000000
outer loop
vertex 2.300606 -3.704704 -0.973200
vertex -1.010864 -3.704704 -2.284307
vertex -0.958801 -3.704704 -2.308806
endloop
endfacet
facet normal -0.000003 -1.000000 0.000000
outer loop
vertex -0.958801 -3.704704 -2.308806
vertex -0.921136 -3.704704 -2.326530
vertex -0.661870 -3.704705 -2.410770
endloop
endfacet
facet normal -0.000011 -1.000000 -0.000084
outer loop
vertex -0.661870 -3.704705 -2.410770
vertex -0.622281 -3.704704 -2.423633
vertex -0.354501 -3.704705 -2.474715
endloop
endfacet
facet normal -0.000004 -1.000000 0.000000
outer loop
vertex -0.354501 -3.704705 -2.474715
vertex -0.313613 -3.704704 -2.482515
vertex -0.041542 -3.704705 -2.499632
endloop
endfacet
facet normal 0.000002 -1.000000 0.000000
outer loop
vertex -0.041542 -3.704705 -2.499632
vertex 0.000002 -3.704704 -2.502246
vertex 0.272073 -3.704705 -2.485128
endloop
endfacet
facet normal 0.000018 -1.000000 -0.000084
outer loop
vertex 0.272073 -3.704705 -2.485128
vertex 0.313617 -3.704704 -2.482514
vertex 0.581397 -3.704705 -2.431432
endloop
endfacet
facet normal 0.000015 -1.000000 -0.000168
outer loop
vertex 0.581397 -3.704705 -2.431432
vertex 0.622285 -3.704704 -2.423632
vertex 0.881552 -3.704705 -2.339391
endloop
endfacet
facet normal 0.000011 -1.000000 0.000084
outer loop
vertex 0.881552 -3.704705 -2.339391
vertex 0.921140 -3.704704 -2.326528
vertex 1.167804 -3.704703 -2.210457
endloop
endfacet
facet normal -0.000137 -1.000000 0.000251
outer loop
vertex 1.167804 -3.704703 -2.210457
vertex 1.205468 -3.704705 -2.192733
vertex 1.435640 -3.704703 -2.046662
endloop
endfacet
facet normal -0.000164 -1.000000 0.000168
outer loop
vertex 1.435640 -3.704703 -2.046662
vertex 1.470785 -3.704705 -2.024358
vertex 1.680834 -3.704703 -1.850590
endloop
endfacet
facet normal -0.000189 -1.000000 0.000168
outer loop
vertex 1.680834 -3.704703 -1.850590
vertex 1.712907 -3.704705 -1.824057
vertex 1.899521 -3.704703 -1.625333
endloop
endfacet
facet normal -0.000210 -1.000000 0.000168
outer loop
vertex 1.899521 -3.704703 -1.625333
vertex 1.928015 -3.704705 -1.594989
vertex 2.088250 -3.704703 -1.374444
endloop
endfacet
facet normal -0.000228 -1.000000 0.000042
outer loop
vertex 2.088250 -3.704703 -1.374444
vertex 2.112718 -3.704705 -1.340768
vertex 2.244048 -3.704703 -1.101879
endloop
endfacet
facet normal -0.000229 -1.000000 0.000058
outer loop
vertex 2.244048 -3.704703 -1.101879
vertex 2.264101 -3.704705 -1.065402
vertex 2.300606 -3.704704 -0.973200
endloop
endfacet
facet normal -0.000000 -1.000000 0.000002
outer loop
vertex 2.300606 -3.704704 -0.973200
vertex -0.958801 -3.704704 -2.308806
vertex -0.661870 -3.704705 -2.410770
endloop
endfacet
facet normal 0.000000 -1.000000 -0.000019
outer loop
vertex -0.661870 -3.704705 -2.410770
vertex -0.354501 -3.704705 -2.474715
vertex -0.041542 -3.704705 -2.499632
endloop
endfacet
facet normal 0.000000 -1.000000 0.000000
outer loop
vertex -0.041542 -3.704705 -2.499632
vertex 0.272073 -3.704705 -2.485128
vertex 0.581397 -3.704705 -2.431432
endloop
endfacet
facet normal -0.000009 -1.000000 0.000039
outer loop
vertex 0.581397 -3.704705 -2.431432
vertex 0.881552 -3.704705 -2.339391
vertex 1.167804 -3.704703 -2.210457
endloop
endfacet
facet normal 0.000000 -1.000000 0.000010
outer loop
vertex 1.167804 -3.704703 -2.210457
vertex 1.435640 -3.704703 -2.046662
vertex 1.680834 -3.704703 -1.850590
endloop
endfacet
facet normal 0.000000 -1.000000 0.000000
outer loop
vertex 1.680834 -3.704703 -1.850590
vertex 1.899521 -3.704703 -1.625333
vertex 2.088250 -3.704703 -1.374444
endloop
endfacet
facet normal 0.000056 -1.000000 -0.000032
outer loop
vertex 2.088250 -3.704703 -1.374444
vertex 2.244048 -3.704703 -1.101879
vertex 2.300606 -3.704704 -0.973200
endloop
endfacet
facet normal 0.000000 -1.000000 -0.000001
outer loop
vertex 2.300606 -3.704704 -0.973200
vertex -0.661870 -3.704705 -2.410770
vertex -0.041542 -3.704705 -2.499632
endloop
endfacet
facet normal -0.000001 -1.000000 0.000005
outer loop
vertex -0.041542 -3.704705 -2.499632
vertex 0.581397 -3.704705 -2.431432
vertex 1.167804 -3.704703 -2.210457
endloop
endfacet
facet normal 0.000000 -1.000000 0.000000
outer loop
vertex 1.167804 -3.704703 -2.210457
vertex 1.680834 -3.704703 -1.850590
vertex 2.088250 -3.704703 -1.374444
endloop
endfacet
facet normal 0.000003 -1.000000 -0.000003
outer loop
vertex 2.088250 -3.704703 -1.374444
vertex 2.300606 -3.704704 -0.973200
vertex -0.041542 -3.704705 -2.499632
endloop
endfacet
facet normal 0.000001 -1.000000 -0.000001
outer loop
vertex -0.041542 -3.704705 -2.499632
vertex 1.167804 -3.704703 -2.210457
vertex 2.088250 -3.704703 -1.374444
endloop
endfacet
facet normal 0.000008 -1.000000 0.000032
outer loop
vertex 2.497308 -3.704704 -0.093797
vertex -0.860920 -3.704705 2.346095
vertex -0.881550 -3.704705 2.339392
endloop
endfacet
facet normal -0.000019 -1.000000 0.000084
outer loop
vertex -0.881550 -3.704705 2.339392
vertex -0.921138 -3.704705 2.326529
vertex -1.167802 -3.704705 2.210458
endloop
endfacet
facet normal 0.000000 -1.000000 0.000000
outer loop
vertex -1.167802 -3.704705 2.210458
vertex -1.205466 -3.704705 2.192734
vertex -1.435637 -3.704705 2.046664
endloop
endfacet
facet normal 0.000000 -1.000000 0.000000
outer loop
vertex -1.435637 -3.704705 2.046664
vertex -1.470783 -3.704705 2.024359
vertex -1.636498 -3.704705 1.887268
endloop
endfacet
facet normal -0.000000 -1.000000 0.000000
outer loop
vertex -1.636498 -3.704705 1.887268
vertex -1.860130 -3.704704 -1.667281
vertex -1.741399 -3.704704 -1.793715
endloop
endfacet
facet normal 0.000000 -1.000000 0.000000
outer loop
vertex -1.741399 -3.704704 -1.793715
vertex -1.712904 -3.704704 -1.824059
vertex -1.502855 -3.704704 -1.997827
endloop
endfacet
facet normal 0.000000 -1.000000 -0.000084
outer loop
vertex -1.502855 -3.704704 -1.997827
vertex -1.470782 -3.704704 -2.024360
vertex -1.240611 -3.704704 -2.170431
endloop
endfacet
facet normal 0.000000 -1.000000 -0.000106
outer loop
vertex -1.240611 -3.704704 -2.170431
vertex -1.205465 -3.704704 -2.192735
vertex -1.010864 -3.704704 -2.284307
endloop
endfacet
facet normal 0.000001 -1.000000 -0.000000
outer loop
vertex -1.010864 -3.704704 -2.284307
vertex 2.300606 -3.704704 -0.973200
vertex 2.364455 -3.704705 -0.811936
endloop
endfacet
facet normal 0.000000 -1.000000 0.000042
outer loop
vertex 2.364455 -3.704705 -0.811936
vertex 2.379778 -3.704705 -0.773233
vertex 2.447573 -3.704705 -0.509189
endloop
endfacet
facet normal 0.000000 -1.000000 0.000000
outer loop
vertex 2.447573 -3.704705 -0.509189
vertex 2.457925 -3.704705 -0.468871
vertex 2.492091 -3.704705 -0.198411
endloop
endfacet
facet normal -0.000030 -1.000000 0.000011
outer loop
vertex 2.492091 -3.704705 -0.198411
vertex 2.497308 -3.704705 -0.157114
vertex 2.497308 -3.704704 -0.093797
endloop
endfacet
facet normal -0.000000 -1.000000 -0.000002
outer loop
vertex 2.497308 -3.704704 -0.093797
vertex -0.881550 -3.704705 2.339392
vertex -1.167802 -3.704705 2.210458
endloop
endfacet
facet normal 0.000000 -1.000000 -0.000012
outer loop
vertex -1.167802 -3.704705 2.210458
vertex -1.435637 -3.704705 2.046664
vertex -1.636498 -3.704705 1.887268
endloop
endfacet
facet normal -0.000000 -1.000000 0.000000
outer loop
vertex -1.636498 -3.704705 1.887268
vertex -1.741399 -3.704704 -1.793715
vertex -1.502855 -3.704704 -1.997827
endloop
endfacet
facet normal 0.000000 -1.000000 0.000000
outer loop
vertex -1.502855 -3.704704 -1.997827
vertex -1.240611 -3.704704 -2.170431
vertex -1.010864 -3.704704 -2.284307
endloop
endfacet
facet normal -0.000000 -1.000000 0.000000
outer loop
vertex -1.010864 -3.704704 -2.284307
vertex 2.364455 -3.704705 -0.811936
vertex 2.447573 -3.704705 -0.509189
endloop
endfacet
facet normal -0.000024 -1.000000 0.000013
outer loop
vertex 2.447573 -3.704705 -0.509189
vertex 2.492091 -3.704705 -0.198411
vertex 2.497308 -3.704704 -0.093797
endloop
endfacet
facet normal 0.000000 -1.000000 -0.000001
outer loop
vertex 2.497308 -3.704704 -0.093797
vertex -1.167802 -3.704705 2.210458
vertex -1.636498 -3.704705 1.887268
endloop
endfacet
facet normal -0.000000 -1.000000 0.000000
outer loop
vertex -1.636498 -3.704705 1.887268
vertex -1.502855 -3.704704 -1.997827
vertex -1.010864 -3.704704 -2.284307
endloop
endfacet
facet normal -0.000000 -1.000000 -0.000001
outer loop
vertex -1.010864 -3.704704 -2.284307
vertex 2.447573 -3.704705 -0.509189
vertex 2.497308 -3.704704 -0.093797
endloop
endfacet
facet normal 0.000000 -1.000000 0.000000
outer loop
vertex -1.636498 -3.704705 1.887268
vertex -1.010864 -3.704704 -2.284307
vertex 2.497308 -3.704704 -0.093797
endloop
endfacet
facet normal 0.000001 -1.000000 -0.000003
outer loop
vertex -0.860920 -3.704705 2.346095
vertex 2.497308 -3.704704 -0.093797
vertex 2.497308 -3.704704 0.115495
endloop
endfacet
facet normal -0.000105 -1.000000 0.000000
outer loop
vertex 2.497308 -3.704704 0.115495
vertex 2.497308 -3.704705 0.157121
vertex 2.463140 -3.704704 0.427580
endloop
endfacet
facet normal -0.000102 -1.000000 0.000000
outer loop
vertex 2.463140 -3.704704 0.427580
vertex 2.457923 -3.704705 0.468878
vertex 2.390128 -3.704704 0.732922
endloop
endfacet
facet normal -0.000092 -1.000000 0.000000
outer loop
vertex 2.390128 -3.704704 0.732922
vertex 2.379776 -3.704705 0.773240
vertex 2.279421 -3.704704 1.026705
endloop
endfacet
facet normal -0.000047 -1.000000 0.000000
outer loop
vertex 2.279421 -3.704704 1.026705
vertex 2.264098 -3.704705 1.065408
vertex 2.132767 -3.704704 1.304297
endloop
endfacet
facet normal -0.000043 -1.000000 0.000000
outer loop
vertex 2.132767 -3.704704 1.304297
vertex 2.112713 -3.704705 1.340774
vertex 1.952478 -3.704704 1.561319
endloop
endfacet
facet normal -0.000039 -1.000000 0.000000
outer loop
vertex 1.952478 -3.704704 1.561319
vertex 1.928011 -3.704705 1.594995
vertex 1.741397 -3.704704 1.793718
endloop
endfacet
facet normal -0.000044 -1.000000 -0.000084
outer loop
vertex 1.741397 -3.704704 1.793718
vertex 1.712902 -3.704705 1.824062
vertex 1.502853 -3.704704 1.997829
endloop
endfacet
facet normal -0.000087 -1.000000 -0.000084
outer loop
vertex 1.502853 -3.704704 1.997829
vertex 1.470779 -3.704705 2.024362
vertex 1.240608 -3.704704 2.170433
endloop
endfacet
facet normal -0.000066 -1.000000 -0.000084
outer loop
vertex 1.240608 -3.704704 2.170433
vertex 1.205462 -3.704705 2.192737
vertex 0.958798 -3.704704 2.308807
endloop
endfacet
facet normal -0.000025 -1.000000 -0.000168
outer loop
vertex 0.958798 -3.704704 2.308807
vertex 0.921134 -3.704705 2.326530
vertex 0.661867 -3.704705 2.410771
endloop
endfacet
facet normal -0.000002 -1.000000 -0.000084
outer loop
vertex 0.661867 -3.704705 2.410771
vertex 0.622278 -3.704705 2.423634
vertex 0.354498 -3.704705 2.474715
endloop
endfacet
facet normal -0.000003 -1.000000 0.000000
outer loop
vertex 0.354498 -3.704705 2.474715
vertex 0.313609 -3.704705 2.482515
vertex 0.041543 -3.704704 2.499632
endloop
endfacet
facet normal 0.000005 -1.000000 -0.000168
outer loop
vertex 0.041543 -3.704704 2.499632
vertex 0.000000 -3.704705 2.502245
vertex -0.272071 -3.704704 2.485128
endloop
endfacet
facet normal 0.000018 -1.000000 -0.000084
outer loop
vertex -0.272071 -3.704704 2.485128
vertex -0.313615 -3.704705 2.482515
vertex -0.581395 -3.704704 2.431433
endloop
endfacet
facet normal 0.000028 -1.000000 -0.000091
outer loop
vertex -0.581395 -3.704704 2.431433
vertex -0.622283 -3.704705 2.423633
vertex -0.860920 -3.704705 2.346095
endloop
endfacet
facet normal 0.000000 -1.000000 0.000001
outer loop
vertex -0.860920 -3.704705 2.346095
vertex 2.497308 -3.704704 0.115495
vertex 2.463140 -3.704704 0.427580
endloop
endfacet
facet normal 0.000006 -1.000000 0.000000
outer loop
vertex 2.463140 -3.704704 0.427580
vertex 2.390128 -3.704704 0.732922
vertex 2.279421 -3.704704 1.026705
endloop
endfacet
facet normal 0.000000 -1.000000 0.000000
outer loop
vertex 2.279421 -3.704704 1.026705
vertex 2.132767 -3.704704 1.304297
vertex 1.952478 -3.704704 1.561319
endloop
endfacet
facet normal -0.000009 -1.000000 0.000000
outer loop
vertex 1.952478 -3.704704 1.561319
vertex 1.741397 -3.704704 1.793718
vertex 1.502853 -3.704704 1.997829
endloop
endfacet
facet normal 0.000003 -1.000000 -0.000019
outer loop
vertex 1.502853 -3.704704 1.997829
vertex 1.240608 -3.704704 2.170433
vertex 0.958798 -3.704704 2.308807
endloop
endfacet
facet normal -0.000006 -1.000000 0.000000
outer loop
vertex 0.958798 -3.704704 2.308807
vertex 0.661867 -3.704705 2.410771
vertex 0.354498 -3.704705 2.474715
endloop
endfacet
facet normal -0.000001 -1.000000 0.000019
outer loop
vertex 0.354498 -3.704705 2.474715
vertex 0.041543 -3.704704 2.499632
vertex -0.272071 -3.704704 2.485128
endloop
endfacet
facet normal -0.000002 -1.000000 0.000021
outer loop
vertex -0.272071 -3.704704 2.485128
vertex -0.581395 -3.704704 2.431433
vertex -0.860920 -3.704705 2.346095
endloop
endfacet
facet normal -0.000000 -1.000000 -0.000001
outer loop
vertex -0.860920 -3.704705 2.346095
vertex 2.463140 -3.704704 0.427580
vertex 2.279421 -3.704704 1.026705
endloop
endfacet
facet normal -0.000003 -1.000000 0.000000
outer loop
vertex 2.279421 -3.704704 1.026705
vertex 1.952478 -3.704704 1.561319
vertex 1.502853 -3.704704 1.997829
endloop
endfacet
facet normal 0.000001 -1.000000 0.000000
outer loop
vertex 1.502853 -3.704704 1.997829
vertex 0.958798 -3.704704 2.308807
vertex 0.354498 -3.704705 2.474715
endloop
endfacet
facet normal -0.000001 -1.000000 -0.000005
outer loop
vertex 0.354498 -3.704705 2.474715
vertex -0.272071 -3.704704 2.485128
vertex -0.860920 -3.704705 2.346095
endloop
endfacet
facet normal 0.000000 -1.000000 0.000001
outer loop
vertex -0.860920 -3.704705 2.346095
vertex 2.279421 -3.704704 1.026705
vertex 1.502853 -3.704704 1.997829
endloop
endfacet
facet normal 0.000000 -1.000000 0.000001
outer loop
vertex 1.502853 -3.704704 1.997829
vertex 0.354498 -3.704705 2.474715
vertex -0.860920 -3.704705 2.346095
endloop
endfacet
facet normal 0.000006 -1.000000 -0.000001
outer loop
vertex -1.860130 -3.704704 -1.667281
vertex -1.636498 -3.704705 1.887268
vertex -1.680832 -3.704705 1.850592
endloop
endfacet
facet normal -0.000038 -1.000000 0.000000
outer loop
vertex -1.680832 -3.704705 1.850592
vertex -1.712905 -3.704705 1.824059
vertex -1.899518 -3.704705 1.625335
endloop
endfacet
facet normal -0.000042 -1.000000 0.000000
outer loop
vertex -1.899518 -3.704705 1.625335
vertex -1.928013 -3.704705 1.594991
vertex -2.088249 -3.704705 1.374446
endloop
endfacet
facet normal -0.000040 -1.000000 0.000042
outer loop
vertex -2.088249 -3.704705 1.374446
vertex -2.112716 -3.704705 1.340770
vertex -2.244046 -3.704705 1.101881
endloop
endfacet
facet normal -0.000006 -1.000000 0.000000
outer loop
vertex -2.244046 -3.704705 1.101881
vertex -2.264099 -3.704705 1.065404
vertex -2.364454 -3.704705 0.811939
endloop
endfacet
facet normal -0.000102 -1.000000 0.000042
outer loop
vertex -2.364454 -3.704705 0.811939
vertex -2.379777 -3.704704 0.773236
vertex -2.447572 -3.704705 0.509192
endloop
endfacet
facet normal -0.000104 -1.000000 0.000000
outer loop
vertex -2.447572 -3.704705 0.509192
vertex -2.457924 -3.704704 0.468874
vertex -2.492091 -3.704705 0.198414
endloop
endfacet
facet normal -0.000105 -1.000000 0.000003
outer loop
vertex -2.492091 -3.704705 0.198414
vertex -2.497308 -3.704704 0.157117
vertex -2.497308 -3.704705 -0.115492
endloop
endfacet
facet normal -0.000105 -1.000000 -0.000021
outer loop
vertex -2.497308 -3.704705 -0.115492
vertex -2.497308 -3.704704 -0.157118
vertex -2.463141 -3.704705 -0.427577
endloop
endfacet
facet normal -0.000102 -1.000000 0.000000
outer loop
vertex -2.463141 -3.704705 -0.427577
vertex -2.457924 -3.704704 -0.468875
vertex -2.390129 -3.704705 -0.732919
endloop
endfacet
facet normal -0.000099 -1.000000 -0.000042
outer loop
vertex -2.390129 -3.704705 -0.732919
vertex -2.379776 -3.704704 -0.773237
vertex -2.279423 -3.704705 -1.026703
endloop
endfacet
facet normal -0.000047 -1.000000 0.000000
outer loop
vertex -2.279423 -3.704705 -1.026703
vertex -2.264099 -3.704705 -1.065405
vertex -2.132769 -3.704705 -1.304294
endloop
endfacet
facet normal -0.000043 -1.000000 0.000000
outer loop
vertex -2.132769 -3.704705 -1.304294
vertex -2.112715 -3.704705 -1.340771
vertex -1.952480 -3.704705 -1.561316
endloop
endfacet
facet normal -0.000067 -1.000000 -0.000115
outer loop
vertex -1.952480 -3.704705 -1.561316
vertex -1.928013 -3.704704 -1.594992
vertex -1.860130 -3.704704 -1.667281
endloop
endfacet
facet normal 0.000000 -1.000000 -0.000000
outer loop
vertex -1.860130 -3.704704 -1.667281
vertex -1.680832 -3.704705 1.850592
vertex -1.899518 -3.704705 1.625335
endloop
endfacet
facet normal 0.000005 -1.000000 0.000010
outer loop
vertex -1.899518 -3.704705 1.625335
vertex -2.088249 -3.704705 1.374446
vertex -2.244046 -3.704705 1.101881
endloop
endfacet
facet normal 0.000006 -1.000000 0.000000
outer loop
vertex -2.244046 -3.704705 1.101881
vertex -2.364454 -3.704705 0.811939
vertex -2.447572 -3.704705 0.509192
endloop
endfacet
facet normal 0.000000 -1.000000 0.000001
outer loop
vertex -2.447572 -3.704705 0.509192
vertex -2.492091 -3.704705 0.198414
vertex -2.497308 -3.704705 -0.115492
endloop
endfacet
facet normal 0.000000 -1.000000 0.000000
outer loop
vertex -2.497308 -3.704705 -0.115492
vertex -2.463141 -3.704705 -0.427577
vertex -2.390129 -3.704705 -0.732919
endloop
endfacet
facet normal 0.000000 -1.000000 0.000010
outer loop
vertex -2.390129 -3.704705 -0.732919
vertex -2.279423 -3.704705 -1.026703
vertex -2.132769 -3.704705 -1.304294
endloop
endfacet
facet normal 0.000026 -1.000000 0.000000
outer loop
vertex -2.132769 -3.704705 -1.304294
vertex -1.952480 -3.704705 -1.561316
vertex -1.860130 -3.704704 -1.667281
endloop
endfacet
facet normal -0.000000 -1.000000 -0.000000
outer loop
vertex -1.860130 -3.704704 -1.667281
vertex -1.899518 -3.704705 1.625335
vertex -2.244046 -3.704705 1.101881
endloop
endfacet
facet normal 0.000002 -1.000000 0.000000
outer loop
vertex -2.244046 -3.704705 1.101881
vertex -2.447572 -3.704705 0.509192
vertex -2.497308 -3.704705 -0.115492
endloop
endfacet
facet normal 0.000000 -1.000000 0.000000
outer loop
vertex -2.497308 -3.704705 -0.115492
vertex -2.390129 -3.704705 -0.732919
vertex -2.132769 -3.704705 -1.304294
endloop
endfacet
facet normal 0.000002 -1.000000 0.000000
outer loop
vertex -2.132769 -3.704705 -1.304294
vertex -1.860130 -3.704704 -1.667281
vertex -2.244046 -3.704705 1.101881
endloop
endfacet
facet normal 0.000000 -1.000000 0.000000
outer loop
vertex -2.244046 -3.704705 1.101881
vertex -2.497308 -3.704705 -0.115492
vertex -2.132769 -3.704705 -1.304294
endloop
endfacet
endsolid Exported from Blender-2.83.3
