solid Exported from Blender-2.83.3
facet normal 0.000000 1.000000 -0.000037
outer loop
vertex -0.010046 -0.380631 0.079369
vertex 0.000000 -0.380631 0.080000
vertex 0.010046 -0.380631 0.079369
endloop
endfacet
facet normal 0.000000 1.000000 0.000037
outer loop
vertex 0.010046 -0.380631 0.079369
vertex 0.019935 -0.380631 0.077487
vertex 0.029508 -0.380631 0.074382
endloop
endfacet
facet normal 0.000000 1.000000 0.000037
outer loop
vertex 0.029508 -0.380631 0.074382
vertex 0.038616 -0.380631 0.070105
vertex 0.047116 -0.380631 0.064721
endloop
endfacet
facet normal 0.000000 1.000000 -0.000037
outer loop
vertex 0.047116 -0.380631 0.064721
vertex 0.054872 -0.380631 0.058317
vertex 0.061763 -0.380631 0.050994
endloop
endfacet
facet normal 0.000000 1.000000 -0.000037
outer loop
vertex 0.061763 -0.380631 0.050994
vertex 0.067680 -0.380631 0.042866
vertex 0.072529 -0.380631 0.034062
endloop
endfacet
facet normal 0.000000 1.000000 0.000000
outer loop
vertex 0.072529 -0.380631 0.034062
vertex 0.076235 -0.380631 0.024721
vertex 0.078738 -0.380631 0.014990
endloop
endfacet
facet normal 0.000000 1.000000 0.000000
outer loop
vertex 0.078738 -0.380631 0.014990
vertex 0.080000 -0.380631 0.005023
vertex 0.080000 -0.380631 -0.005023
endloop
endfacet
facet normal 0.000000 1.000000 0.000018
outer loop
vertex 0.080000 -0.380631 -0.005023
vertex 0.078738 -0.380631 -0.014991
vertex 0.076235 -0.380631 -0.024721
endloop
endfacet
facet normal 0.000000 1.000000 0.000000
outer loop
vertex 0.076235 -0.380631 -0.024721
vertex 0.072529 -0.380631 -0.034062
vertex 0.067680 -0.380631 -0.042866
endloop
endfacet
facet normal 0.000000 1.000000 0.000000
outer loop
vertex 0.067680 -0.380631 -0.042866
vertex 0.061763 -0.380631 -0.050994
vertex 0.054872 -0.380631 -0.058318
endloop
endfacet
facet normal 0.000000 1.000000 0.000000
outer loop
vertex 0.054872 -0.380631 -0.058318
vertex 0.047116 -0.380631 -0.064721
vertex 0.038616 -0.380631 -0.070105
endloop
endfacet
facet normal 0.000000 1.000000 0.000000
outer loop
vertex 0.038616 -0.380631 -0.070105
vertex 0.029508 -0.380631 -0.074382
vertex 0.019934 -0.380631 -0.077487
endloop
endfacet
facet normal 0.000000 1.000000 0.000073
outer loop
vertex 0.019934 -0.380631 -0.077487
vertex 0.010046 -0.380631 -0.079369
vertex -0.000000 -0.380631 -0.080000
endloop
endfacet
facet normal 0.000000 1.000000 -0.000037
outer loop
vertex -0.000000 -0.380631 -0.080000
vertex -0.010047 -0.380631 -0.079369
vertex -0.019935 -0.380631 -0.077487
endloop
endfacet
facet normal 0.000000 1.000000 -0.000037
outer loop
vertex -0.019935 -0.380631 -0.077487
vertex -0.029508 -0.380631 -0.074382
vertex -0.038617 -0.380631 -0.070104
endloop
endfacet
facet normal 0.000000 1.000000 0.000000
outer loop
vertex -0.038617 -0.380631 -0.070104
vertex -0.047116 -0.380631 -0.064721
vertex -0.054872 -0.380631 -0.058317
endloop
endfacet
facet normal 0.000000 1.000000 0.000000
outer loop
vertex -0.054872 -0.380631 -0.058317
vertex -0.061763 -0.380631 -0.050994
vertex -0.067680 -0.380631 -0.042866
endloop
endfacet
facet normal 0.000000 1.000000 0.000000
outer loop
vertex -0.067680 -0.380631 -0.042866
vertex -0.072529 -0.380631 -0.034062
vertex -0.076235 -0.380631 -0.024721
endloop
endfacet
facet normal 0.000000 1.000000 -0.000005
outer loop
vertex -0.076235 -0.380631 -0.024721
vertex -0.078738 -0.380631 -0.014990
vertex -0.080000 -0.380631 -0.005023
endloop
endfacet
facet normal 0.000000 1.000000 0.000000
outer loop
vertex -0.080000 -0.380631 -0.005023
vertex -0.080000 -0.380631 0.005023
vertex -0.078738 -0.380631 0.014991
endloop
endfacet
facet normal 0.000000 1.000000 0.000000
outer loop
vertex -0.078738 -0.380631 0.014991
vertex -0.076235 -0.380631 0.024721
vertex -0.072529 -0.380631 0.034062
endloop
endfacet
facet normal 0.000000 1.000000 -0.000037
outer loop
vertex -0.072529 -0.380631 0.034062
vertex -0.067680 -0.380631 0.042866
vertex -0.061763 -0.380631 0.050994
endloop
endfacet
facet normal 0.000000 1.000000 0.000000
outer loop
vertex -0.061763 -0.380631 0.050994
vertex -0.054872 -0.380631 0.058318
vertex -0.047116 -0.380631 0.064721
endloop
endfacet
facet normal 0.000000 1.000000 -0.000037
outer loop
vertex -0.047116 -0.380631 0.064721
vertex -0.038616 -0.380631 0.070105
vertex -0.029508 -0.380631 0.074382
endloop
endfacet
facet normal 0.000000 1.000000 0.000000
outer loop
vertex -0.029508 -0.380631 0.074382
vertex -0.019934 -0.380631 0.077487
vertex -0.010046 -0.380631 0.079369
endloop
endfacet
facet normal 0.000000 1.000000 0.000009
outer loop
vertex -0.010046 -0.380631 0.079369
vertex 0.010046 -0.380631 0.079369
vertex 0.029508 -0.380631 0.074382
endloop
endfacet
facet normal 0.000000 1.000000 -0.000019
outer loop
vertex 0.029508 -0.380631 0.074382
vertex 0.047116 -0.380631 0.064721
vertex 0.061763 -0.380631 0.050994
endloop
endfacet
facet normal 0.000000 1.000000 0.000000
outer loop
vertex 0.061763 -0.380631 0.050994
vertex 0.072529 -0.380631 0.034062
vertex 0.078738 -0.380631 0.014990
endloop
endfacet
facet normal 0.000000 1.000000 -0.000002
outer loop
vertex 0.078738 -0.380631 0.014990
vertex 0.080000 -0.380631 -0.005023
vertex 0.076235 -0.380631 -0.024721
endloop
endfacet
facet normal 0.000000 1.000000 0.000009
outer loop
vertex 0.076235 -0.380631 -0.024721
vertex 0.067680 -0.380631 -0.042866
vertex 0.054872 -0.380631 -0.058318
endloop
endfacet
facet normal 0.000000 1.000000 -0.000019
outer loop
vertex 0.054872 -0.380631 -0.058318
vertex 0.038616 -0.380631 -0.070105
vertex 0.019934 -0.380631 -0.077487
endloop
endfacet
facet normal 0.000000 1.000000 -0.000009
outer loop
vertex 0.019934 -0.380631 -0.077487
vertex -0.000000 -0.380631 -0.080000
vertex -0.019935 -0.380631 -0.077487
endloop
endfacet
facet normal 0.000000 1.000000 -0.000009
outer loop
vertex -0.019935 -0.380631 -0.077487
vertex -0.038617 -0.380631 -0.070104
vertex -0.054872 -0.380631 -0.058317
endloop
endfacet
facet normal 0.000000 1.000000 0.000009
outer loop
vertex -0.054872 -0.380631 -0.058317
vertex -0.067680 -0.380631 -0.042866
vertex -0.076235 -0.380631 -0.024721
endloop
endfacet
facet normal 0.000000 1.000000 0.000000
outer loop
vertex -0.076235 -0.380631 -0.024721
vertex -0.080000 -0.380631 -0.005023
vertex -0.078738 -0.380631 0.014991
endloop
endfacet
facet normal 0.000000 1.000000 0.000009
outer loop
vertex -0.078738 -0.380631 0.014991
vertex -0.072529 -0.380631 0.034062
vertex -0.061763 -0.380631 0.050994
endloop
endfacet
facet normal 0.000000 1.000000 -0.000009
outer loop
vertex -0.061763 -0.380631 0.050994
vertex -0.047116 -0.380631 0.064721
vertex -0.029508 -0.380631 0.074382
endloop
endfacet
facet normal 0.000000 1.000000 0.000006
outer loop
vertex -0.029508 -0.380631 0.074382
vertex -0.010046 -0.380631 0.079369
vertex 0.029508 -0.380631 0.074382
endloop
endfacet
facet normal 0.000000 1.000000 0.000004
outer loop
vertex 0.029508 -0.380631 0.074382
vertex 0.061763 -0.380631 0.050994
vertex 0.078738 -0.380631 0.014990
endloop
endfacet
facet normal 0.000000 1.000000 0.000000
outer loop
vertex 0.078738 -0.380631 0.014990
vertex 0.076235 -0.380631 -0.024721
vertex 0.054872 -0.380631 -0.058318
endloop
endfacet
facet normal 0.000000 1.000000 -0.000002
outer loop
vertex 0.054872 -0.380631 -0.058318
vertex 0.019934 -0.380631 -0.077487
vertex -0.019935 -0.380631 -0.077487
endloop
endfacet
facet normal 0.000000 1.000000 0.000002
outer loop
vertex -0.019935 -0.380631 -0.077487
vertex -0.054872 -0.380631 -0.058317
vertex -0.076235 -0.380631 -0.024721
endloop
endfacet
facet normal 0.000000 1.000000 0.000000
outer loop
vertex -0.076235 -0.380631 -0.024721
vertex -0.078738 -0.380631 0.014991
vertex -0.061763 -0.380631 0.050994
endloop
endfacet
facet normal 0.000000 1.000000 -0.000003
outer loop
vertex -0.061763 -0.380631 0.050994
vertex -0.029508 -0.380631 0.074382
vertex 0.029508 -0.380631 0.074382
endloop
endfacet
facet normal 0.000000 1.000000 0.000000
outer loop
vertex 0.029508 -0.380631 0.074382
vertex 0.078738 -0.380631 0.014990
vertex 0.054872 -0.380631 -0.058318
endloop
endfacet
facet normal 0.000000 1.000000 0.000001
outer loop
vertex 0.054872 -0.380631 -0.058318
vertex -0.019935 -0.380631 -0.077487
vertex -0.076235 -0.380631 -0.024721
endloop
endfacet
facet normal 0.000000 1.000000 0.000000
outer loop
vertex -0.076235 -0.380631 -0.024721
vertex -0.061763 -0.380631 0.050994
vertex 0.029508 -0.380631 0.074382
endloop
endfacet
facet normal 0.000000 1.000000 0.000000
outer loop
vertex 0.029508 -0.380631 0.074382
vertex 0.054872 -0.380631 -0.058318
vertex -0.076235 -0.380631 -0.024721
endloop
endfacet
facet normal -0.062666 -0.000000 0.998035
outer loop
vertex -0.010046 -0.380631 0.079369
vertex -0.010046 -0.607135 0.079369
vertex 0.000000 -0.607135 0.080000
endloop
endfacet
facet normal -0.062666 -0.000000 0.998035
outer loop
vertex -0.010046 -0.380631 0.079369
vertex 0.000000 -0.607135 0.080000
vertex 0.000000 -0.380631 0.080000
endloop
endfacet
facet normal -0.187024 -0.000000 0.982355
outer loop
vertex -0.019934 -0.380631 0.077487
vertex -0.019934 -0.607135 0.077487
vertex -0.010046 -0.607135 0.079369
endloop
endfacet
facet normal -0.187022 -0.000000 0.982356
outer loop
vertex -0.019934 -0.380631 0.077487
vertex -0.010046 -0.607135 0.079369
vertex -0.010046 -0.380631 0.079369
endloop
endfacet
facet normal -0.308462 -0.000000 0.951237
outer loop
vertex -0.029508 -0.380631 0.074382
vertex -0.029508 -0.607135 0.074382
vertex -0.019934 -0.607135 0.077487
endloop
endfacet
facet normal -0.308464 -0.000000 0.951236
outer loop
vertex -0.029508 -0.380631 0.074382
vertex -0.019934 -0.607135 0.077487
vertex -0.019934 -0.380631 0.077487
endloop
endfacet
facet normal -0.425089 -0.000000 0.905152
outer loop
vertex -0.038616 -0.380631 0.070105
vertex -0.038616 -0.607135 0.070105
vertex -0.029508 -0.607135 0.074382
endloop
endfacet
facet normal -0.425089 -0.000000 0.905151
outer loop
vertex -0.038616 -0.380631 0.070105
vertex -0.029508 -0.607135 0.074382
vertex -0.029508 -0.380631 0.074382
endloop
endfacet
facet normal -0.535072 -0.000000 0.844807
outer loop
vertex -0.047116 -0.380631 0.064721
vertex -0.047116 -0.607135 0.064721
vertex -0.038616 -0.607135 0.070105
endloop
endfacet
facet normal -0.535071 -0.000000 0.844807
outer loop
vertex -0.047116 -0.380631 0.064721
vertex -0.038616 -0.607135 0.070105
vertex -0.038616 -0.380631 0.070105
endloop
endfacet
facet normal -0.636675 -0.000000 0.771132
outer loop
vertex -0.054872 -0.380631 0.058318
vertex -0.054872 -0.607135 0.058318
vertex -0.047116 -0.607135 0.064721
endloop
endfacet
facet normal -0.636674 -0.000000 0.771133
outer loop
vertex -0.054872 -0.380631 0.058318
vertex -0.047116 -0.607135 0.064721
vertex -0.047116 -0.380631 0.064721
endloop
endfacet
facet normal -0.728293 -0.000000 0.685266
outer loop
vertex -0.061763 -0.380631 0.050994
vertex -0.061763 -0.607135 0.050994
vertex -0.054872 -0.607135 0.058318
endloop
endfacet
facet normal -0.728292 -0.000000 0.685267
outer loop
vertex -0.061763 -0.380631 0.050994
vertex -0.054872 -0.607135 0.058318
vertex -0.054872 -0.380631 0.058318
endloop
endfacet
facet normal -0.808463 -0.000000 0.588546
outer loop
vertex -0.067680 -0.380631 0.042866
vertex -0.067680 -0.607135 0.042866
vertex -0.061763 -0.607135 0.050994
endloop
endfacet
facet normal -0.808463 -0.000000 0.588547
outer loop
vertex -0.067680 -0.380631 0.042866
vertex -0.061763 -0.607135 0.050994
vertex -0.061763 -0.380631 0.050994
endloop
endfacet
facet normal -0.875903 0.000000 0.482486
outer loop
vertex -0.072529 -0.380631 0.034062
vertex -0.072529 -0.607135 0.034062
vertex -0.067680 -0.607135 0.042866
endloop
endfacet
facet normal -0.875903 -0.000000 0.482486
outer loop
vertex -0.072529 -0.380631 0.034062
vertex -0.067680 -0.607135 0.042866
vertex -0.067680 -0.380631 0.042866
endloop
endfacet
facet normal -0.929527 0.000000 0.368755
outer loop
vertex -0.076235 -0.380631 0.024721
vertex -0.076235 -0.607135 0.024721
vertex -0.072529 -0.607135 0.034062
endloop
endfacet
facet normal -0.929527 -0.000000 0.368755
outer loop
vertex -0.076235 -0.380631 0.024721
vertex -0.072529 -0.607135 0.034062
vertex -0.072529 -0.380631 0.034062
endloop
endfacet
facet normal -0.968464 -0.000000 0.249153
outer loop
vertex -0.078738 -0.380631 0.014991
vertex -0.078738 -0.607135 0.014991
vertex -0.076235 -0.607135 0.024721
endloop
endfacet
facet normal -0.968464 0.000000 0.249153
outer loop
vertex -0.078738 -0.380631 0.014991
vertex -0.076235 -0.607135 0.024721
vertex -0.076235 -0.380631 0.024721
endloop
endfacet
facet normal -0.992084 0.000000 0.125578
outer loop
vertex -0.080000 -0.380631 0.005023
vertex -0.080000 -0.607135 0.005023
vertex -0.078738 -0.607135 0.014991
endloop
endfacet
facet normal -0.992084 -0.000000 0.125578
outer loop
vertex -0.080000 -0.380631 0.005023
vertex -0.078738 -0.607135 0.014991
vertex -0.078738 -0.380631 0.014991
endloop
endfacet
facet normal -1.000000 0.000000 0.000001
outer loop
vertex -0.080000 -0.380631 -0.005023
vertex -0.080000 -0.607135 -0.005023
vertex -0.080000 -0.607135 0.005023
endloop
endfacet
facet normal -1.000000 -0.000000 0.000001
outer loop
vertex -0.080000 -0.380631 -0.005023
vertex -0.080000 -0.607135 0.005023
vertex -0.080000 -0.380631 0.005023
endloop
endfacet
facet normal -0.992084 0.000000 -0.125575
outer loop
vertex -0.078738 -0.380631 -0.014990
vertex -0.078738 -0.607135 -0.014990
vertex -0.080000 -0.607135 -0.005023
endloop
endfacet
facet normal -0.992084 0.000000 -0.125575
outer loop
vertex -0.078738 -0.380631 -0.014990
vertex -0.080000 -0.607135 -0.005023
vertex -0.080000 -0.380631 -0.005023
endloop
endfacet
facet normal -0.968465 0.000000 -0.249151
outer loop
vertex -0.076235 -0.380631 -0.024721
vertex -0.076235 -0.607135 -0.024721
vertex -0.078738 -0.607135 -0.014990
endloop
endfacet
facet normal -0.968465 0.000000 -0.249151
outer loop
vertex -0.076235 -0.380631 -0.024721
vertex -0.078738 -0.607135 -0.014990
vertex -0.078738 -0.380631 -0.014990
endloop
endfacet
facet normal -0.929528 0.000000 -0.368751
outer loop
vertex -0.072529 -0.380631 -0.034062
vertex -0.072529 -0.607135 -0.034062
vertex -0.076235 -0.607135 -0.024721
endloop
endfacet
facet normal -0.929528 0.000000 -0.368752
outer loop
vertex -0.072529 -0.380631 -0.034062
vertex -0.076235 -0.607135 -0.024721
vertex -0.076235 -0.380631 -0.024721
endloop
endfacet
facet normal -0.875905 0.000000 -0.482484
outer loop
vertex -0.067680 -0.380631 -0.042866
vertex -0.067680 -0.607135 -0.042866
vertex -0.072529 -0.607135 -0.034062
endloop
endfacet
facet normal -0.875905 -0.000000 -0.482484
outer loop
vertex -0.067680 -0.380631 -0.042866
vertex -0.072529 -0.607135 -0.034062
vertex -0.072529 -0.380631 -0.034062
endloop
endfacet
facet normal -0.808465 0.000000 -0.588544
outer loop
vertex -0.061763 -0.380631 -0.050994
vertex -0.061763 -0.607135 -0.050994
vertex -0.067680 -0.607135 -0.042866
endloop
endfacet
facet normal -0.808465 0.000000 -0.588544
outer loop
vertex -0.061763 -0.380631 -0.050994
vertex -0.067680 -0.607135 -0.042866
vertex -0.067680 -0.380631 -0.042866
endloop
endfacet
facet normal -0.728294 0.000000 -0.685265
outer loop
vertex -0.054872 -0.380631 -0.058317
vertex -0.054872 -0.607135 -0.058317
vertex -0.061763 -0.607135 -0.050994
endloop
endfacet
facet normal -0.728294 0.000000 -0.685265
outer loop
vertex -0.054872 -0.380631 -0.058317
vertex -0.061763 -0.607135 -0.050994
vertex -0.061763 -0.380631 -0.050994
endloop
endfacet
facet normal -0.636678 0.000000 -0.771130
outer loop
vertex -0.047116 -0.380631 -0.064721
vertex -0.047116 -0.607135 -0.064721
vertex -0.054872 -0.607135 -0.058317
endloop
endfacet
facet normal -0.636677 0.000000 -0.771130
outer loop
vertex -0.047116 -0.380631 -0.064721
vertex -0.054872 -0.607135 -0.058317
vertex -0.054872 -0.380631 -0.058317
endloop
endfacet
facet normal -0.535073 0.000000 -0.844806
outer loop
vertex -0.038617 -0.380631 -0.070104
vertex -0.038617 -0.607135 -0.070105
vertex -0.047116 -0.607135 -0.064721
endloop
endfacet
facet normal -0.535073 0.000000 -0.844806
outer loop
vertex -0.038617 -0.380631 -0.070104
vertex -0.047116 -0.607135 -0.064721
vertex -0.047116 -0.380631 -0.064721
endloop
endfacet
facet normal -0.425092 0.000000 -0.905150
outer loop
vertex -0.029508 -0.380631 -0.074382
vertex -0.029508 -0.607135 -0.074382
vertex -0.038617 -0.607135 -0.070105
endloop
endfacet
facet normal -0.425092 0.000000 -0.905150
outer loop
vertex -0.029508 -0.380631 -0.074382
vertex -0.038617 -0.607135 -0.070105
vertex -0.038617 -0.380631 -0.070104
endloop
endfacet
facet normal -0.308466 0.000000 -0.951236
outer loop
vertex -0.019935 -0.380631 -0.077487
vertex -0.019935 -0.607135 -0.077487
vertex -0.029508 -0.607135 -0.074382
endloop
endfacet
facet normal -0.308467 0.000000 -0.951235
outer loop
vertex -0.019935 -0.380631 -0.077487
vertex -0.029508 -0.607135 -0.074382
vertex -0.029508 -0.380631 -0.074382
endloop
endfacet
facet normal -0.187027 0.000000 -0.982355
outer loop
vertex -0.010047 -0.380631 -0.079369
vertex -0.010047 -0.607135 -0.079369
vertex -0.019935 -0.607135 -0.077487
endloop
endfacet
facet normal -0.187024 0.000000 -0.982355
outer loop
vertex -0.010047 -0.380631 -0.079369
vertex -0.019935 -0.607135 -0.077487
vertex -0.019935 -0.380631 -0.077487
endloop
endfacet
facet normal -0.062667 0.000000 -0.998034
outer loop
vertex -0.000000 -0.380631 -0.080000
vertex -0.000000 -0.607135 -0.080000
vertex -0.010047 -0.607135 -0.079369
endloop
endfacet
facet normal -0.062668 0.000000 -0.998034
outer loop
vertex -0.000000 -0.380631 -0.080000
vertex -0.010047 -0.607135 -0.079369
vertex -0.010047 -0.380631 -0.079369
endloop
endfacet
facet normal 0.062667 0.000000 -0.998034
outer loop
vertex 0.010046 -0.380631 -0.079369
vertex 0.010046 -0.607135 -0.079369
vertex -0.000000 -0.607135 -0.080000
endloop
endfacet
facet normal 0.062667 0.000000 -0.998034
outer loop
vertex 0.010046 -0.380631 -0.079369
vertex -0.000000 -0.607135 -0.080000
vertex -0.000000 -0.380631 -0.080000
endloop
endfacet
facet normal 0.187025 0.000000 -0.982355
outer loop
vertex 0.019934 -0.380631 -0.077487
vertex 0.019934 -0.607135 -0.077487
vertex 0.010046 -0.607135 -0.079369
endloop
endfacet
facet normal 0.187022 0.000000 -0.982356
outer loop
vertex 0.019934 -0.380631 -0.077487
vertex 0.010046 -0.607135 -0.079369
vertex 0.010046 -0.380631 -0.079369
endloop
endfacet
facet normal 0.308464 0.000000 -0.951236
outer loop
vertex 0.029508 -0.380631 -0.074382
vertex 0.029508 -0.607135 -0.074382
vertex 0.019934 -0.607135 -0.077487
endloop
endfacet
facet normal 0.308466 0.000000 -0.951236
outer loop
vertex 0.029508 -0.380631 -0.074382
vertex 0.019934 -0.607135 -0.077487
vertex 0.019934 -0.380631 -0.077487
endloop
endfacet
facet normal 0.425091 0.000000 -0.905151
outer loop
vertex 0.038616 -0.380631 -0.070105
vertex 0.038616 -0.607135 -0.070105
vertex 0.029508 -0.607135 -0.074382
endloop
endfacet
facet normal 0.425089 0.000000 -0.905151
outer loop
vertex 0.038616 -0.380631 -0.070105
vertex 0.029508 -0.607135 -0.074382
vertex 0.029508 -0.380631 -0.074382
endloop
endfacet
facet normal 0.535072 0.000000 -0.844806
outer loop
vertex 0.047116 -0.380631 -0.064721
vertex 0.047116 -0.607135 -0.064721
vertex 0.038616 -0.607135 -0.070105
endloop
endfacet
facet normal 0.535072 0.000000 -0.844807
outer loop
vertex 0.047116 -0.380631 -0.064721
vertex 0.038616 -0.607135 -0.070105
vertex 0.038616 -0.380631 -0.070105
endloop
endfacet
facet normal 0.636676 0.000000 -0.771131
outer loop
vertex 0.054872 -0.380631 -0.058318
vertex 0.054872 -0.607135 -0.058318
vertex 0.047116 -0.607135 -0.064721
endloop
endfacet
facet normal 0.636676 0.000000 -0.771132
outer loop
vertex 0.054872 -0.380631 -0.058318
vertex 0.047116 -0.607135 -0.064721
vertex 0.047116 -0.380631 -0.064721
endloop
endfacet
facet normal 0.728294 0.000000 -0.685265
outer loop
vertex 0.061763 -0.380631 -0.050994
vertex 0.061763 -0.607135 -0.050994
vertex 0.054872 -0.607135 -0.058318
endloop
endfacet
facet normal 0.728293 0.000000 -0.685266
outer loop
vertex 0.061763 -0.380631 -0.050994
vertex 0.054872 -0.607135 -0.058318
vertex 0.054872 -0.380631 -0.058318
endloop
endfacet
facet normal 0.808464 0.000000 -0.588545
outer loop
vertex 0.067680 -0.380631 -0.042866
vertex 0.067680 -0.607135 -0.042866
vertex 0.061763 -0.607135 -0.050994
endloop
endfacet
facet normal 0.808465 0.000000 -0.588545
outer loop
vertex 0.067680 -0.380631 -0.042866
vertex 0.061763 -0.607135 -0.050994
vertex 0.061763 -0.380631 -0.050994
endloop
endfacet
facet normal 0.875904 0.000000 -0.482485
outer loop
vertex 0.072529 -0.380631 -0.034062
vertex 0.072529 -0.607135 -0.034062
vertex 0.067680 -0.607135 -0.042866
endloop
endfacet
facet normal 0.875904 0.000000 -0.482485
outer loop
vertex 0.072529 -0.380631 -0.034062
vertex 0.067680 -0.607135 -0.042866
vertex 0.067680 -0.380631 -0.042866
endloop
endfacet
facet normal 0.929527 0.000000 -0.368754
outer loop
vertex 0.076235 -0.380631 -0.024721
vertex 0.076235 -0.607135 -0.024721
vertex 0.072529 -0.607135 -0.034062
endloop
endfacet
facet normal 0.929527 0.000000 -0.368754
outer loop
vertex 0.076235 -0.380631 -0.024721
vertex 0.072529 -0.607135 -0.034062
vertex 0.072529 -0.380631 -0.034062
endloop
endfacet
facet normal 0.968465 0.000000 -0.249151
outer loop
vertex 0.078738 -0.380631 -0.014991
vertex 0.078738 -0.607135 -0.014991
vertex 0.076235 -0.607135 -0.024721
endloop
endfacet
facet normal 0.968465 -0.000000 -0.249151
outer loop
vertex 0.078738 -0.380631 -0.014991
vertex 0.076235 -0.607135 -0.024721
vertex 0.076235 -0.380631 -0.024721
endloop
endfacet
facet normal 0.992084 0.000000 -0.125577
outer loop
vertex 0.080000 -0.380631 -0.005023
vertex 0.080000 -0.607135 -0.005023
vertex 0.078738 -0.607135 -0.014991
endloop
endfacet
facet normal 0.992084 -0.000000 -0.125577
outer loop
vertex 0.080000 -0.380631 -0.005023
vertex 0.078738 -0.607135 -0.014991
vertex 0.078738 -0.380631 -0.014991
endloop
endfacet
facet normal 1.000000 0.000000 0.000000
outer loop
vertex 0.080000 -0.380631 0.005023
vertex 0.080000 -0.607135 0.005023
vertex 0.080000 -0.607135 -0.005023
endloop
endfacet
facet normal 1.000000 -0.000000 0.000000
outer loop
vertex 0.080000 -0.380631 0.005023
vertex 0.080000 -0.607135 -0.005023
vertex 0.080000 -0.380631 -0.005023
endloop
endfacet
facet normal 0.992084 0.000000 0.125577
outer loop
vertex 0.078738 -0.380631 0.014990
vertex 0.078738 -0.607135 0.014990
vertex 0.080000 -0.607135 0.005023
endloop
endfacet
facet normal 0.992084 -0.000000 0.125577
outer loop
vertex 0.078738 -0.380631 0.014990
vertex 0.080000 -0.607135 0.005023
vertex 0.080000 -0.380631 0.005023
endloop
endfacet
facet normal 0.968465 0.000000 0.249151
outer loop
vertex 0.076235 -0.380631 0.024721
vertex 0.076235 -0.607135 0.024721
vertex 0.078738 -0.607135 0.014990
endloop
endfacet
facet normal 0.968465 -0.000000 0.249151
outer loop
vertex 0.076235 -0.380631 0.024721
vertex 0.078738 -0.607135 0.014990
vertex 0.078738 -0.380631 0.014990
endloop
endfacet
facet normal 0.929527 0.000000 0.368753
outer loop
vertex 0.072529 -0.380631 0.034062
vertex 0.072529 -0.607135 0.034062
vertex 0.076235 -0.607135 0.024721
endloop
endfacet
facet normal 0.929527 -0.000000 0.368753
outer loop
vertex 0.072529 -0.380631 0.034062
vertex 0.076235 -0.607135 0.024721
vertex 0.076235 -0.380631 0.024721
endloop
endfacet
facet normal 0.875904 0.000000 0.482485
outer loop
vertex 0.067680 -0.380631 0.042866
vertex 0.067680 -0.607135 0.042866
vertex 0.072529 -0.607135 0.034062
endloop
endfacet
facet normal 0.875904 -0.000000 0.482485
outer loop
vertex 0.067680 -0.380631 0.042866
vertex 0.072529 -0.607135 0.034062
vertex 0.072529 -0.380631 0.034062
endloop
endfacet
facet normal 0.808464 0.000000 0.588545
outer loop
vertex 0.061763 -0.380631 0.050994
vertex 0.061763 -0.607135 0.050994
vertex 0.067680 -0.607135 0.042866
endloop
endfacet
facet normal 0.808465 -0.000000 0.588545
outer loop
vertex 0.061763 -0.380631 0.050994
vertex 0.067680 -0.607135 0.042866
vertex 0.067680 -0.380631 0.042866
endloop
endfacet
facet normal 0.728293 -0.000000 0.685266
outer loop
vertex 0.054872 -0.380631 0.058317
vertex 0.054872 -0.607135 0.058317
vertex 0.061763 -0.607135 0.050994
endloop
endfacet
facet normal 0.728294 -0.000000 0.685265
outer loop
vertex 0.054872 -0.380631 0.058317
vertex 0.061763 -0.607135 0.050994
vertex 0.061763 -0.380631 0.050994
endloop
endfacet
facet normal 0.636676 -0.000000 0.771132
outer loop
vertex 0.047116 -0.380631 0.064721
vertex 0.047116 -0.607135 0.064721
vertex 0.054872 -0.607135 0.058317
endloop
endfacet
facet normal 0.636677 -0.000000 0.771131
outer loop
vertex 0.047116 -0.380631 0.064721
vertex 0.054872 -0.607135 0.058317
vertex 0.054872 -0.380631 0.058317
endloop
endfacet
facet normal 0.535073 -0.000000 0.844806
outer loop
vertex 0.038616 -0.380631 0.070105
vertex 0.038616 -0.607135 0.070105
vertex 0.047116 -0.607135 0.064721
endloop
endfacet
facet normal 0.535072 -0.000000 0.844806
outer loop
vertex 0.038616 -0.380631 0.070105
vertex 0.047116 -0.607135 0.064721
vertex 0.047116 -0.380631 0.064721
endloop
endfacet
facet normal 0.425091 -0.000000 0.905151
outer loop
vertex 0.029508 -0.380631 0.074382
vertex 0.029508 -0.607135 0.074382
vertex 0.038616 -0.607135 0.070105
endloop
endfacet
facet normal 0.425091 -0.000000 0.905151
outer loop
vertex 0.029508 -0.380631 0.074382
vertex 0.038616 -0.607135 0.070105
vertex 0.038616 -0.380631 0.070105
endloop
endfacet
facet normal 0.308466 -0.000000 0.951236
outer loop
vertex 0.019935 -0.380631 0.077487
vertex 0.019935 -0.607135 0.077487
vertex 0.029508 -0.607135 0.074382
endloop
endfacet
facet normal 0.308464 -0.000000 0.951236
outer loop
vertex 0.019935 -0.380631 0.077487
vertex 0.029508 -0.607135 0.074382
vertex 0.029508 -0.380631 0.074382
endloop
endfacet
facet normal 0.187024 -0.000000 0.982355
outer loop
vertex 0.010046 -0.380631 0.079369
vertex 0.010046 -0.607135 0.079369
vertex 0.019935 -0.607135 0.077487
endloop
endfacet
facet normal 0.187025 -0.000000 0.982355
outer loop
vertex 0.010046 -0.380631 0.079369
vertex 0.019935 -0.607135 0.077487
vertex 0.019935 -0.380631 0.077487
endloop
endfacet
facet normal 0.062667 -0.000000 0.998034
outer loop
vertex 0.000000 -0.380631 0.080000
vertex 0.000000 -0.607135 0.080000
vertex 0.010046 -0.607135 0.079369
endloop
endfacet
facet normal 0.062669 -0.000000 0.998034
outer loop
vertex 0.000000 -0.380631 0.080000
vertex 0.010046 -0.607135 0.079369
vertex 0.010046 -0.380631 0.079369
endloop
endfacet
facet normal 0.000000 -1.000000 -0.000073
outer loop
vertex 0.000000 -0.607135 0.080000
vertex -0.010046 -0.607135 0.079369
vertex -0.019934 -0.607135 0.077487
endloop
endfacet
facet normal 0.000000 -1.000000 -0.000073
outer loop
vertex -0.019934 -0.607135 0.077487
vertex -0.029508 -0.607135 0.074382
vertex -0.038616 -0.607135 0.070105
endloop
endfacet
facet normal 0.000000 -1.000000 0.000073
outer loop
vertex -0.038616 -0.607135 0.070105
vertex -0.047116 -0.607135 0.064721
vertex -0.054872 -0.607135 0.058318
endloop
endfacet
facet normal 0.000000 -1.000000 -0.000037
outer loop
vertex -0.054872 -0.607135 0.058318
vertex -0.061763 -0.607135 0.050994
vertex -0.067680 -0.607135 0.042866
endloop
endfacet
facet normal 0.000000 -1.000000 0.000037
outer loop
vertex -0.067680 -0.607135 0.042866
vertex -0.072529 -0.607135 0.034062
vertex -0.076235 -0.607135 0.024721
endloop
endfacet
facet normal 0.000000 -1.000000 -0.000028
outer loop
vertex -0.076235 -0.607135 0.024721
vertex -0.078738 -0.607135 0.014991
vertex -0.080000 -0.607135 0.005023
endloop
endfacet
facet normal 0.000000 -1.000000 0.000009
outer loop
vertex -0.080000 -0.607135 0.005023
vertex -0.080000 -0.607135 -0.005023
vertex -0.078738 -0.607135 -0.014990
endloop
endfacet
facet normal 0.000000 -1.000000 0.000000
outer loop
vertex -0.078738 -0.607135 -0.014990
vertex -0.076235 -0.607135 -0.024721
vertex -0.072529 -0.607135 -0.034062
endloop
endfacet
facet normal 0.000000 -1.000000 0.000037
outer loop
vertex -0.072529 -0.607135 -0.034062
vertex -0.067680 -0.607135 -0.042866
vertex -0.061763 -0.607135 -0.050994
endloop
endfacet
facet normal 0.000000 -1.000000 0.000000
outer loop
vertex -0.061763 -0.607135 -0.050994
vertex -0.054872 -0.607135 -0.058317
vertex -0.047116 -0.607135 -0.064721
endloop
endfacet
facet normal 0.000000 -1.000000 0.000073
outer loop
vertex -0.047116 -0.607135 -0.064721
vertex -0.038617 -0.607135 -0.070105
vertex -0.029508 -0.607135 -0.074382
endloop
endfacet
facet normal 0.000000 -1.000000 0.000147
outer loop
vertex -0.029508 -0.607135 -0.074382
vertex -0.019935 -0.607135 -0.077487
vertex -0.010047 -0.607135 -0.079369
endloop
endfacet
facet normal 0.000000 -1.000000 0.000073
outer loop
vertex -0.010047 -0.607135 -0.079369
vertex -0.000000 -0.607135 -0.080000
vertex 0.010046 -0.607135 -0.079369
endloop
endfacet
facet normal 0.000000 -1.000000 -0.000073
outer loop
vertex 0.010046 -0.607135 -0.079369
vertex 0.019934 -0.607135 -0.077487
vertex 0.029508 -0.607135 -0.074382
endloop
endfacet
facet normal 0.000000 -1.000000 -0.000073
outer loop
vertex 0.029508 -0.607135 -0.074382
vertex 0.038616 -0.607135 -0.070105
vertex 0.047116 -0.607135 -0.064721
endloop
endfacet
facet normal 0.000000 -1.000000 0.000073
outer loop
vertex 0.047116 -0.607135 -0.064721
vertex 0.054872 -0.607135 -0.058318
vertex 0.061763 -0.607135 -0.050994
endloop
endfacet
facet normal 0.000000 -1.000000 0.000000
outer loop
vertex 0.061763 -0.607135 -0.050994
vertex 0.067680 -0.607135 -0.042866
vertex 0.072529 -0.607135 -0.034062
endloop
endfacet
facet normal 0.000000 -1.000000 0.000018
outer loop
vertex 0.072529 -0.607135 -0.034062
vertex 0.076235 -0.607135 -0.024721
vertex 0.078738 -0.607135 -0.014991
endloop
endfacet
facet normal 0.000000 -1.000000 0.000000
outer loop
vertex 0.078738 -0.607135 -0.014991
vertex 0.080000 -0.607135 -0.005023
vertex 0.080000 -0.607135 0.005023
endloop
endfacet
facet normal 0.000000 -1.000000 0.000000
outer loop
vertex 0.080000 -0.607135 0.005023
vertex 0.078738 -0.607135 0.014990
vertex 0.076235 -0.607135 0.024721
endloop
endfacet
facet normal 0.000000 -1.000000 0.000037
outer loop
vertex 0.076235 -0.607135 0.024721
vertex 0.072529 -0.607135 0.034062
vertex 0.067680 -0.607135 0.042866
endloop
endfacet
facet normal 0.000000 -1.000000 0.000000
outer loop
vertex 0.067680 -0.607135 0.042866
vertex 0.061763 -0.607135 0.050994
vertex 0.054872 -0.607135 0.058317
endloop
endfacet
facet normal 0.000000 -1.000000 -0.000073
outer loop
vertex 0.054872 -0.607135 0.058317
vertex 0.047116 -0.607135 0.064721
vertex 0.038616 -0.607135 0.070105
endloop
endfacet
facet normal 0.000000 -1.000000 0.000000
outer loop
vertex 0.038616 -0.607135 0.070105
vertex 0.029508 -0.607135 0.074382
vertex 0.019935 -0.607135 0.077487
endloop
endfacet
facet normal 0.000000 -1.000000 0.000000
outer loop
vertex 0.019935 -0.607135 0.077487
vertex 0.010046 -0.607135 0.079369
vertex 0.000000 -0.607135 0.080000
endloop
endfacet
facet normal 0.000000 -1.000000 0.000000
outer loop
vertex 0.000000 -0.607135 0.080000
vertex -0.019934 -0.607135 0.077487
vertex -0.038616 -0.607135 0.070105
endloop
endfacet
facet normal 0.000000 -1.000000 -0.000019
outer loop
vertex -0.038616 -0.607135 0.070105
vertex -0.054872 -0.607135 0.058318
vertex -0.067680 -0.607135 0.042866
endloop
endfacet
facet normal 0.000000 -1.000000 0.000000
outer loop
vertex -0.067680 -0.607135 0.042866
vertex -0.076235 -0.607135 0.024721
vertex -0.080000 -0.607135 0.005023
endloop
endfacet
facet normal 0.000000 -1.000000 -0.000005
outer loop
vertex -0.080000 -0.607135 0.005023
vertex -0.078738 -0.607135 -0.014990
vertex -0.072529 -0.607135 -0.034062
endloop
endfacet
facet normal 0.000000 -1.000000 0.000000
outer loop
vertex -0.072529 -0.607135 -0.034062
vertex -0.061763 -0.607135 -0.050994
vertex -0.047116 -0.607135 -0.064721
endloop
endfacet
facet normal 0.000000 -1.000000 -0.000019
outer loop
vertex -0.047116 -0.607135 -0.064721
vertex -0.029508 -0.607135 -0.074382
vertex -0.010047 -0.607135 -0.079369
endloop
endfacet
facet normal 0.000000 -1.000000 -0.000019
outer loop
vertex -0.010047 -0.607135 -0.079369
vertex 0.010046 -0.607135 -0.079369
vertex 0.029508 -0.607135 -0.074382
endloop
endfacet
facet normal 0.000000 -1.000000 -0.000019
outer loop
vertex 0.029508 -0.607135 -0.074382
vertex 0.047116 -0.607135 -0.064721
vertex 0.061763 -0.607135 -0.050994
endloop
endfacet
facet normal 0.000000 -1.000000 0.000005
outer loop
vertex 0.061763 -0.607135 -0.050994
vertex 0.072529 -0.607135 -0.034062
vertex 0.078738 -0.607135 -0.014991
endloop
endfacet
facet normal 0.000000 -1.000000 0.000000
outer loop
vertex 0.078738 -0.607135 -0.014991
vertex 0.080000 -0.607135 0.005023
vertex 0.076235 -0.607135 0.024721
endloop
endfacet
facet normal 0.000000 -1.000000 0.000000
outer loop
vertex 0.076235 -0.607135 0.024721
vertex 0.067680 -0.607135 0.042866
vertex 0.054872 -0.607135 0.058317
endloop
endfacet
facet normal 0.000000 -1.000000 -0.000037
outer loop
vertex 0.054872 -0.607135 0.058317
vertex 0.038616 -0.607135 0.070105
vertex 0.019935 -0.607135 0.077487
endloop
endfacet
facet normal 0.000000 -1.000000 0.000013
outer loop
vertex 0.019935 -0.607135 0.077487
vertex 0.000000 -0.607135 0.080000
vertex -0.038616 -0.607135 0.070105
endloop
endfacet
facet normal 0.000000 -1.000000 0.000000
outer loop
vertex -0.038616 -0.607135 0.070105
vertex -0.067680 -0.607135 0.042866
vertex -0.080000 -0.607135 0.005023
endloop
endfacet
facet normal 0.000000 -1.000000 -0.000002
outer loop
vertex -0.080000 -0.607135 0.005023
vertex -0.072529 -0.607135 -0.034062
vertex -0.047116 -0.607135 -0.064721
endloop
endfacet
facet normal 0.000000 -1.000000 0.000005
outer loop
vertex -0.047116 -0.607135 -0.064721
vertex -0.010047 -0.607135 -0.079369
vertex 0.029508 -0.607135 -0.074382
endloop
endfacet
facet normal 0.000000 -1.000000 0.000002
outer loop
vertex 0.029508 -0.607135 -0.074382
vertex 0.061763 -0.607135 -0.050994
vertex 0.078738 -0.607135 -0.014991
endloop
endfacet
facet normal 0.000000 -1.000000 0.000000
outer loop
vertex 0.078738 -0.607135 -0.014991
vertex 0.076235 -0.607135 0.024721
vertex 0.054872 -0.607135 0.058317
endloop
endfacet
facet normal 0.000000 -1.000000 0.000000
outer loop
vertex 0.054872 -0.607135 0.058317
vertex 0.019935 -0.607135 0.077487
vertex -0.038616 -0.607135 0.070105
endloop
endfacet
facet normal 0.000000 -1.000000 0.000001
outer loop
vertex -0.038616 -0.607135 0.070105
vertex -0.080000 -0.607135 0.005023
vertex -0.047116 -0.607135 -0.064721
endloop
endfacet
facet normal 0.000000 -1.000000 -0.000001
outer loop
vertex -0.047116 -0.607135 -0.064721
vertex 0.029508 -0.607135 -0.074382
vertex 0.078738 -0.607135 -0.014991
endloop
endfacet
facet normal 0.000000 -1.000000 0.000000
outer loop
vertex 0.078738 -0.607135 -0.014991
vertex 0.054872 -0.607135 0.058317
vertex -0.038616 -0.607135 0.070105
endloop
endfacet
facet normal 0.000000 -1.000000 0.000000
outer loop
vertex -0.038616 -0.607135 0.070105
vertex -0.047116 -0.607135 -0.064721
vertex 0.078738 -0.607135 -0.014991
endloop
endfacet
endsolid Exported from Blender-2.83.3
